M48
; DRILL file {KiCad 7.99.0-999-ge1db4e0694} date 2023 December 05, Tuesday 13:45:31
; FORMAT={-:-/ absolute / inch / decimal}
; #@! TF.CreationDate,2023-12-05T13:45:31-05:00
; #@! TF.GenerationSoftware,Kicad,Pcbnew,7.99.0-999-ge1db4e0694
; #@! TF.FileFunction,Plated,1,2,PTH
FMAT,2
INCH
; #@! TA.AperFunction,Plated,PTH,ViaDrill
T1C0.0236
; #@! TA.AperFunction,Plated,PTH,ComponentDrill
T2C0.0335
; #@! TA.AperFunction,Plated,PTH,ComponentDrill
T3C0.0748
; #@! TA.AperFunction,Plated,PTH,ComponentDrill
T4C0.0984
%
G90
G05
T1
X3.4223Y-4.1007
X3.4535Y-6.5261
X3.7035Y-3.9708
X5.6069Y-6.3102
X5.7504Y-6.2237
X6.5116Y-4.7805
X7.3591Y-4.5268
X7.6127Y-4.4742
X8.1987Y-6.2713
X8.2973Y-6.3074
X8.5785Y-6.7761
X8.641Y-6.2237
X8.766Y-3.8386
X8.9535Y-4.4771
X8.9607Y-3.9708
X9.0087Y-4.4324
X9.8285Y-3.9708
X10.024Y-6.2284
X10.9269Y-4.4771
X11.4223Y-4.0574
X11.8285Y-3.8068
X17.1144Y-6.144
T2
X7.2448Y-3.8962
X7.294Y-3.9946
X7.3432Y-3.8962
X7.3924Y-3.9946
X7.4416Y-3.8962
X7.4908Y-3.9946
X7.54Y-3.8962
X7.5892Y-3.9946
X7.6385Y-3.8962
X7.6877Y-3.9946
X7.7369Y-3.8962
X7.7861Y-3.9946
X7.8353Y-3.8962
X7.8845Y-3.9946
X7.9337Y-3.8962
X7.9829Y-3.9946
X8.0322Y-3.8962
X8.0814Y-3.9946
X8.1306Y-3.8962
X8.1798Y-3.9946
X8.229Y-3.8962
X8.2782Y-3.9946
X8.3274Y-3.8962
X8.3766Y-3.9946
X8.4259Y-3.8962
X8.4751Y-3.9946
X8.5243Y-3.8962
X8.5735Y-3.9946
X8.6227Y-3.8962
X8.6719Y-3.9946
X8.7211Y-3.8962
X8.7703Y-3.9946
T3
X2.2926Y-5.8374
X2.2976Y-3.2131
X2.3863Y-4.3374
X2.4894Y-5.8177
X2.4944Y-3.1934
X2.5738Y-5.0874
X2.5832Y-4.3177
X2.7707Y-5.0677
X2.8551Y-6.5874
X2.8551Y-7.3374
X3.0426Y-5.8374
X3.0519Y-6.5677
X3.0519Y-7.3177
X3.2301Y-4.3374
X3.2394Y-5.8177
X3.4269Y-4.3177
X3.5113Y-3.2124
X3.6051Y-5.0874
X3.6051Y-7.3374
X3.7082Y-3.1927
X3.7926Y-5.8374
X3.8019Y-5.0677
X3.8019Y-7.3177
X3.9801Y-4.3374
X3.9894Y-5.8177
X4.1676Y-6.5874
X4.1769Y-4.3177
X4.3551Y-5.0874
X4.3644Y-6.5677
X4.4488Y-3.212
X4.5426Y-5.8374
X4.5519Y-5.0677
X4.6457Y-3.1923
X4.7301Y-4.3374
X4.7301Y-7.3374
X4.7394Y-5.8177
X4.9176Y-6.5874
X4.9269Y-4.3177
X4.9269Y-7.3177
X5.1051Y-5.0874
X5.1144Y-6.5677
X5.2926Y-5.8374
X5.3019Y-5.0677
X5.3863Y-3.2124
X5.4801Y-4.3374
X5.4894Y-5.8177
X5.5832Y-3.1927
X5.6676Y-6.5874
X5.6769Y-4.3177
X5.8551Y-5.0874
X5.8644Y-6.5677
X6.0426Y-5.8374
X6.0519Y-5.0677
X6.2301Y-4.3374
X6.2394Y-5.8177
X6.3238Y-3.2124
X6.4176Y-6.5874
X6.4269Y-4.3177
X6.5207Y-3.1927
X6.6051Y-5.0905
X6.6144Y-6.5677
X6.7926Y-5.8374
X6.8019Y-5.0708
X6.9801Y-4.3374
X6.9894Y-5.8177
X7.1676Y-6.5874
X7.1769Y-4.3177
X7.2613Y-3.212
X7.3551Y-5.0874
X7.3644Y-6.5677
X7.4582Y-3.1923
X7.5426Y-5.8374
X7.5519Y-5.0677
X7.7301Y-4.3374
X7.7394Y-5.8177
X7.9176Y-6.5874
X7.9176Y-7.3386
X7.9269Y-4.3177
X8.1051Y-5.0874
X8.1144Y-6.5677
X8.1144Y-7.319
X8.2926Y-5.8374
X8.3019Y-5.0677
X8.4801Y-4.3374
X8.4894Y-5.8177
X8.5738Y-3.2124
X8.6676Y-6.5874
X8.6769Y-4.3177
X8.7707Y-3.1927
X8.8551Y-5.0874
X8.8644Y-6.5677
X9.0426Y-5.8374
X9.0519Y-5.0677
X9.2301Y-4.3374
X9.2394Y-5.8177
X9.4177Y-6.5875
X9.4269Y-4.3177
X9.5113Y-3.2124
X9.6051Y-5.0874
X9.6146Y-6.5678
X9.7082Y-3.1927
X9.7926Y-5.8374
X9.8019Y-5.0677
X9.9801Y-4.3374
X9.9894Y-5.8177
X10.1674Y-6.5883
X10.1769Y-4.3177
X10.3551Y-5.0874
X10.3642Y-6.5686
X10.4488Y-3.2124
X10.5519Y-5.0677
X10.5526Y-5.8374
X10.6457Y-3.1927
X10.7301Y-4.3374
X10.7494Y-5.8177
X10.9176Y-6.5874
X10.9269Y-4.3177
X11.1051Y-5.0874
X11.1144Y-6.5677
X11.2926Y-7.3374
X11.3019Y-5.0677
X11.3026Y-5.8374
X11.3863Y-3.2124
X11.4801Y-4.3374
X11.4894Y-7.3177
X11.4994Y-5.8177
X11.5832Y-3.1927
X11.6676Y-6.5874
X11.6769Y-4.3177
X11.8551Y-5.0874
X11.8644Y-6.5677
X12.0519Y-5.0677
X12.0526Y-5.8386
X12.2301Y-4.3374
X12.2494Y-5.819
X12.3238Y-3.2124
X12.4269Y-4.3177
X12.5207Y-3.1927
X12.6051Y-7.3374
X12.7926Y-6.5874
X12.8019Y-7.3177
X12.9894Y-6.5677
X13.0738Y-4.3374
X13.1445Y-5.5229
X13.1641Y-5.7197
X13.2707Y-4.3177
X14.2926Y-4.3374
X14.2926Y-6.5874
X14.4894Y-4.3177
X14.4894Y-6.5677
X15.0426Y-4.3374
X15.0426Y-5.8374
X15.0426Y-6.5874
X15.2394Y-4.3177
X15.2394Y-5.8177
X15.2394Y-6.5677
X15.7926Y-4.3374
X15.7926Y-6.5874
X15.9894Y-4.3177
X15.9894Y-6.5677
X16.9176Y-4.3374
X16.9176Y-5.0874
X16.9176Y-5.8374
X16.9176Y-6.5874
X16.9176Y-7.3374
X17.1144Y-4.3177
X17.1144Y-5.0677
X17.1144Y-5.8177
X17.1144Y-6.5677
X17.1144Y-7.3177
X17.6676Y-4.3374
X17.6676Y-5.0874
X17.6676Y-5.8374
X17.6676Y-6.5874
X17.6676Y-7.3374
X17.8644Y-4.3177
X17.8644Y-5.0677
X17.8644Y-5.8177
X17.8644Y-6.5677
X17.8644Y-7.3177
X18.4176Y-4.3374
X18.4176Y-5.0874
X18.4176Y-5.8374
X18.4176Y-6.5874
X18.4176Y-7.3374
X18.6144Y-4.3177
X18.6144Y-5.0677
X18.6144Y-5.8177
X18.6144Y-6.5677
X18.6144Y-7.3177
X19.1676Y-4.3374
X19.1676Y-5.0874
X19.1676Y-5.8374
X19.1676Y-6.5874
X19.1676Y-7.3374
X19.3644Y-4.3177
X19.3644Y-5.0677
X19.3644Y-5.8177
X19.3644Y-6.5677
X19.3644Y-7.3177
T4
G00X13.1937Y-5.5229
M15
G01X13.0952Y-5.5229
M16
G05
G00X13.2134Y-5.7197
M15
G01X13.1149Y-5.7197
M16
G05
T0
M30
