%TF.GenerationSoftware,KiCad,Pcbnew,7.99.0-999-ge1db4e0694*%
%TF.CreationDate,2023-12-05T13:45:31-05:00*%
%TF.ProjectId,A1200KB,41313230-304b-4422-9e6b-696361645f70,rev?*%
%TF.SameCoordinates,Original*%
%TF.FileFunction,Copper,L1,Top*%
%TF.FilePolarity,Positive*%
%FSLAX46Y46*%
G04 Gerber Fmt 4.6, Leading zero omitted, Abs format (unit mm)*
G04 Created by KiCad (PCBNEW 7.99.0-999-ge1db4e0694) date 2023-12-05 13:45:31*
%MOMM*%
%LPD*%
G01*
G04 APERTURE LIST*
%ADD10C,0.300000*%
%TA.AperFunction,NonConductor*%
%ADD11C,0.300000*%
%TD*%
%TA.AperFunction,EtchedComponent*%
%ADD12C,0.000000*%
%TD*%
%TA.AperFunction,ComponentPad*%
%ADD13C,3.500000*%
%TD*%
%TA.AperFunction,ComponentPad*%
%ADD14O,6.000000X3.500000*%
%TD*%
%TA.AperFunction,ComponentPad*%
%ADD15C,1.524000*%
%TD*%
%TA.AperFunction,ViaPad*%
%ADD16C,0.800000*%
%TD*%
%TA.AperFunction,Conductor*%
%ADD17C,0.800000*%
%TD*%
G04 APERTURE END LIST*
D10*
D11*
X402525550Y-131231578D02*
X402525550Y-132445864D01*
X402525550Y-132445864D02*
X402454121Y-132588721D01*
X402454121Y-132588721D02*
X402382692Y-132660150D01*
X402382692Y-132660150D02*
X402239835Y-132731578D01*
X402239835Y-132731578D02*
X402025550Y-132731578D01*
X402025550Y-132731578D02*
X401882692Y-132660150D01*
X402525550Y-132160150D02*
X402382692Y-132231578D01*
X402382692Y-132231578D02*
X402096978Y-132231578D01*
X402096978Y-132231578D02*
X401954121Y-132160150D01*
X401954121Y-132160150D02*
X401882692Y-132088721D01*
X401882692Y-132088721D02*
X401811264Y-131945864D01*
X401811264Y-131945864D02*
X401811264Y-131517292D01*
X401811264Y-131517292D02*
X401882692Y-131374435D01*
X401882692Y-131374435D02*
X401954121Y-131303007D01*
X401954121Y-131303007D02*
X402096978Y-131231578D01*
X402096978Y-131231578D02*
X402382692Y-131231578D01*
X402382692Y-131231578D02*
X402525550Y-131303007D01*
X403239835Y-132231578D02*
X403239835Y-131231578D01*
X403239835Y-131517292D02*
X403311264Y-131374435D01*
X403311264Y-131374435D02*
X403382693Y-131303007D01*
X403382693Y-131303007D02*
X403525550Y-131231578D01*
X403525550Y-131231578D02*
X403668407Y-131231578D01*
X404811264Y-132231578D02*
X404811264Y-131445864D01*
X404811264Y-131445864D02*
X404739835Y-131303007D01*
X404739835Y-131303007D02*
X404596978Y-131231578D01*
X404596978Y-131231578D02*
X404311264Y-131231578D01*
X404311264Y-131231578D02*
X404168406Y-131303007D01*
X404811264Y-132160150D02*
X404668406Y-132231578D01*
X404668406Y-132231578D02*
X404311264Y-132231578D01*
X404311264Y-132231578D02*
X404168406Y-132160150D01*
X404168406Y-132160150D02*
X404096978Y-132017292D01*
X404096978Y-132017292D02*
X404096978Y-131874435D01*
X404096978Y-131874435D02*
X404168406Y-131731578D01*
X404168406Y-131731578D02*
X404311264Y-131660150D01*
X404311264Y-131660150D02*
X404668406Y-131660150D01*
X404668406Y-131660150D02*
X404811264Y-131588721D01*
X405382692Y-131231578D02*
X405739835Y-132231578D01*
X406096978Y-131231578D02*
X405739835Y-132231578D01*
X405739835Y-132231578D02*
X405596978Y-132588721D01*
X405596978Y-132588721D02*
X405525549Y-132660150D01*
X405525549Y-132660150D02*
X405382692Y-132731578D01*
X407311264Y-131231578D02*
X407311264Y-132231578D01*
X406668406Y-131231578D02*
X406668406Y-132017292D01*
X406668406Y-132017292D02*
X406739835Y-132160150D01*
X406739835Y-132160150D02*
X406882692Y-132231578D01*
X406882692Y-132231578D02*
X407096978Y-132231578D01*
X407096978Y-132231578D02*
X407239835Y-132160150D01*
X407239835Y-132160150D02*
X407311264Y-132088721D01*
X408025549Y-131231578D02*
X408025549Y-132231578D01*
X408025549Y-131374435D02*
X408096978Y-131303007D01*
X408096978Y-131303007D02*
X408239835Y-131231578D01*
X408239835Y-131231578D02*
X408454121Y-131231578D01*
X408454121Y-131231578D02*
X408596978Y-131303007D01*
X408596978Y-131303007D02*
X408668407Y-131445864D01*
X408668407Y-131445864D02*
X408668407Y-132231578D01*
X409382692Y-132231578D02*
X409382692Y-131231578D01*
X409382692Y-130731578D02*
X409311264Y-130803007D01*
X409311264Y-130803007D02*
X409382692Y-130874435D01*
X409382692Y-130874435D02*
X409454121Y-130803007D01*
X409454121Y-130803007D02*
X409382692Y-130731578D01*
X409382692Y-130731578D02*
X409382692Y-130874435D01*
X410739836Y-132160150D02*
X410596978Y-132231578D01*
X410596978Y-132231578D02*
X410311264Y-132231578D01*
X410311264Y-132231578D02*
X410168407Y-132160150D01*
X410168407Y-132160150D02*
X410096978Y-132088721D01*
X410096978Y-132088721D02*
X410025550Y-131945864D01*
X410025550Y-131945864D02*
X410025550Y-131517292D01*
X410025550Y-131517292D02*
X410096978Y-131374435D01*
X410096978Y-131374435D02*
X410168407Y-131303007D01*
X410168407Y-131303007D02*
X410311264Y-131231578D01*
X410311264Y-131231578D02*
X410596978Y-131231578D01*
X410596978Y-131231578D02*
X410739836Y-131303007D01*
X411596978Y-132231578D02*
X411454121Y-132160150D01*
X411454121Y-132160150D02*
X411382692Y-132088721D01*
X411382692Y-132088721D02*
X411311264Y-131945864D01*
X411311264Y-131945864D02*
X411311264Y-131517292D01*
X411311264Y-131517292D02*
X411382692Y-131374435D01*
X411382692Y-131374435D02*
X411454121Y-131303007D01*
X411454121Y-131303007D02*
X411596978Y-131231578D01*
X411596978Y-131231578D02*
X411811264Y-131231578D01*
X411811264Y-131231578D02*
X411954121Y-131303007D01*
X411954121Y-131303007D02*
X412025550Y-131374435D01*
X412025550Y-131374435D02*
X412096978Y-131517292D01*
X412096978Y-131517292D02*
X412096978Y-131945864D01*
X412096978Y-131945864D02*
X412025550Y-132088721D01*
X412025550Y-132088721D02*
X411954121Y-132160150D01*
X411954121Y-132160150D02*
X411811264Y-132231578D01*
X411811264Y-132231578D02*
X411596978Y-132231578D01*
X412739835Y-132231578D02*
X412739835Y-131231578D01*
X412739835Y-131517292D02*
X412811264Y-131374435D01*
X412811264Y-131374435D02*
X412882693Y-131303007D01*
X412882693Y-131303007D02*
X413025550Y-131231578D01*
X413025550Y-131231578D02*
X413168407Y-131231578D01*
X413668406Y-131231578D02*
X413668406Y-132231578D01*
X413668406Y-131374435D02*
X413739835Y-131303007D01*
X413739835Y-131303007D02*
X413882692Y-131231578D01*
X413882692Y-131231578D02*
X414096978Y-131231578D01*
X414096978Y-131231578D02*
X414239835Y-131303007D01*
X414239835Y-131303007D02*
X414311264Y-131445864D01*
X414311264Y-131445864D02*
X414311264Y-132231578D01*
X415025549Y-132088721D02*
X415096978Y-132160150D01*
X415096978Y-132160150D02*
X415025549Y-132231578D01*
X415025549Y-132231578D02*
X414954121Y-132160150D01*
X414954121Y-132160150D02*
X415025549Y-132088721D01*
X415025549Y-132088721D02*
X415025549Y-132231578D01*
X416382693Y-132160150D02*
X416239835Y-132231578D01*
X416239835Y-132231578D02*
X415954121Y-132231578D01*
X415954121Y-132231578D02*
X415811264Y-132160150D01*
X415811264Y-132160150D02*
X415739835Y-132088721D01*
X415739835Y-132088721D02*
X415668407Y-131945864D01*
X415668407Y-131945864D02*
X415668407Y-131517292D01*
X415668407Y-131517292D02*
X415739835Y-131374435D01*
X415739835Y-131374435D02*
X415811264Y-131303007D01*
X415811264Y-131303007D02*
X415954121Y-131231578D01*
X415954121Y-131231578D02*
X416239835Y-131231578D01*
X416239835Y-131231578D02*
X416382693Y-131303007D01*
X417239835Y-132231578D02*
X417096978Y-132160150D01*
X417096978Y-132160150D02*
X417025549Y-132088721D01*
X417025549Y-132088721D02*
X416954121Y-131945864D01*
X416954121Y-131945864D02*
X416954121Y-131517292D01*
X416954121Y-131517292D02*
X417025549Y-131374435D01*
X417025549Y-131374435D02*
X417096978Y-131303007D01*
X417096978Y-131303007D02*
X417239835Y-131231578D01*
X417239835Y-131231578D02*
X417454121Y-131231578D01*
X417454121Y-131231578D02*
X417596978Y-131303007D01*
X417596978Y-131303007D02*
X417668407Y-131374435D01*
X417668407Y-131374435D02*
X417739835Y-131517292D01*
X417739835Y-131517292D02*
X417739835Y-131945864D01*
X417739835Y-131945864D02*
X417668407Y-132088721D01*
X417668407Y-132088721D02*
X417596978Y-132160150D01*
X417596978Y-132160150D02*
X417454121Y-132231578D01*
X417454121Y-132231578D02*
X417239835Y-132231578D01*
X418382692Y-132231578D02*
X418382692Y-131231578D01*
X418382692Y-131374435D02*
X418454121Y-131303007D01*
X418454121Y-131303007D02*
X418596978Y-131231578D01*
X418596978Y-131231578D02*
X418811264Y-131231578D01*
X418811264Y-131231578D02*
X418954121Y-131303007D01*
X418954121Y-131303007D02*
X419025550Y-131445864D01*
X419025550Y-131445864D02*
X419025550Y-132231578D01*
X419025550Y-131445864D02*
X419096978Y-131303007D01*
X419096978Y-131303007D02*
X419239835Y-131231578D01*
X419239835Y-131231578D02*
X419454121Y-131231578D01*
X419454121Y-131231578D02*
X419596978Y-131303007D01*
X419596978Y-131303007D02*
X419668407Y-131445864D01*
X419668407Y-131445864D02*
X419668407Y-132231578D01*
D10*
D11*
X386312965Y-129517007D02*
X387027251Y-129517007D01*
X386170108Y-129945578D02*
X386670108Y-128445578D01*
X386670108Y-128445578D02*
X387170108Y-129945578D01*
X388455822Y-129945578D02*
X387598679Y-129945578D01*
X388027250Y-129945578D02*
X388027250Y-128445578D01*
X388027250Y-128445578D02*
X387884393Y-128659864D01*
X387884393Y-128659864D02*
X387741536Y-128802721D01*
X387741536Y-128802721D02*
X387598679Y-128874150D01*
X389027250Y-128588435D02*
X389098678Y-128517007D01*
X389098678Y-128517007D02*
X389241536Y-128445578D01*
X389241536Y-128445578D02*
X389598678Y-128445578D01*
X389598678Y-128445578D02*
X389741536Y-128517007D01*
X389741536Y-128517007D02*
X389812964Y-128588435D01*
X389812964Y-128588435D02*
X389884393Y-128731292D01*
X389884393Y-128731292D02*
X389884393Y-128874150D01*
X389884393Y-128874150D02*
X389812964Y-129088435D01*
X389812964Y-129088435D02*
X388955821Y-129945578D01*
X388955821Y-129945578D02*
X389884393Y-129945578D01*
X390812964Y-128445578D02*
X390955821Y-128445578D01*
X390955821Y-128445578D02*
X391098678Y-128517007D01*
X391098678Y-128517007D02*
X391170107Y-128588435D01*
X391170107Y-128588435D02*
X391241535Y-128731292D01*
X391241535Y-128731292D02*
X391312964Y-129017007D01*
X391312964Y-129017007D02*
X391312964Y-129374150D01*
X391312964Y-129374150D02*
X391241535Y-129659864D01*
X391241535Y-129659864D02*
X391170107Y-129802721D01*
X391170107Y-129802721D02*
X391098678Y-129874150D01*
X391098678Y-129874150D02*
X390955821Y-129945578D01*
X390955821Y-129945578D02*
X390812964Y-129945578D01*
X390812964Y-129945578D02*
X390670107Y-129874150D01*
X390670107Y-129874150D02*
X390598678Y-129802721D01*
X390598678Y-129802721D02*
X390527249Y-129659864D01*
X390527249Y-129659864D02*
X390455821Y-129374150D01*
X390455821Y-129374150D02*
X390455821Y-129017007D01*
X390455821Y-129017007D02*
X390527249Y-128731292D01*
X390527249Y-128731292D02*
X390598678Y-128588435D01*
X390598678Y-128588435D02*
X390670107Y-128517007D01*
X390670107Y-128517007D02*
X390812964Y-128445578D01*
X392241535Y-128445578D02*
X392384392Y-128445578D01*
X392384392Y-128445578D02*
X392527249Y-128517007D01*
X392527249Y-128517007D02*
X392598678Y-128588435D01*
X392598678Y-128588435D02*
X392670106Y-128731292D01*
X392670106Y-128731292D02*
X392741535Y-129017007D01*
X392741535Y-129017007D02*
X392741535Y-129374150D01*
X392741535Y-129374150D02*
X392670106Y-129659864D01*
X392670106Y-129659864D02*
X392598678Y-129802721D01*
X392598678Y-129802721D02*
X392527249Y-129874150D01*
X392527249Y-129874150D02*
X392384392Y-129945578D01*
X392384392Y-129945578D02*
X392241535Y-129945578D01*
X392241535Y-129945578D02*
X392098678Y-129874150D01*
X392098678Y-129874150D02*
X392027249Y-129802721D01*
X392027249Y-129802721D02*
X391955820Y-129659864D01*
X391955820Y-129659864D02*
X391884392Y-129374150D01*
X391884392Y-129374150D02*
X391884392Y-129017007D01*
X391884392Y-129017007D02*
X391955820Y-128731292D01*
X391955820Y-128731292D02*
X392027249Y-128588435D01*
X392027249Y-128588435D02*
X392098678Y-128517007D01*
X392098678Y-128517007D02*
X392241535Y-128445578D01*
X393384391Y-129945578D02*
X393384391Y-128445578D01*
X394241534Y-129945578D02*
X393598677Y-129088435D01*
X394241534Y-128445578D02*
X393384391Y-129302721D01*
X395384391Y-129159864D02*
X395598677Y-129231292D01*
X395598677Y-129231292D02*
X395670106Y-129302721D01*
X395670106Y-129302721D02*
X395741534Y-129445578D01*
X395741534Y-129445578D02*
X395741534Y-129659864D01*
X395741534Y-129659864D02*
X395670106Y-129802721D01*
X395670106Y-129802721D02*
X395598677Y-129874150D01*
X395598677Y-129874150D02*
X395455820Y-129945578D01*
X395455820Y-129945578D02*
X394884391Y-129945578D01*
X394884391Y-129945578D02*
X394884391Y-128445578D01*
X394884391Y-128445578D02*
X395384391Y-128445578D01*
X395384391Y-128445578D02*
X395527249Y-128517007D01*
X395527249Y-128517007D02*
X395598677Y-128588435D01*
X395598677Y-128588435D02*
X395670106Y-128731292D01*
X395670106Y-128731292D02*
X395670106Y-128874150D01*
X395670106Y-128874150D02*
X395598677Y-129017007D01*
X395598677Y-129017007D02*
X395527249Y-129088435D01*
X395527249Y-129088435D02*
X395384391Y-129159864D01*
X395384391Y-129159864D02*
X394884391Y-129159864D01*
D10*
D11*
X408486265Y-129894778D02*
X408486265Y-128394778D01*
X408486265Y-128394778D02*
X408843408Y-128394778D01*
X408843408Y-128394778D02*
X409057694Y-128466207D01*
X409057694Y-128466207D02*
X409200551Y-128609064D01*
X409200551Y-128609064D02*
X409271980Y-128751921D01*
X409271980Y-128751921D02*
X409343408Y-129037635D01*
X409343408Y-129037635D02*
X409343408Y-129251921D01*
X409343408Y-129251921D02*
X409271980Y-129537635D01*
X409271980Y-129537635D02*
X409200551Y-129680492D01*
X409200551Y-129680492D02*
X409057694Y-129823350D01*
X409057694Y-129823350D02*
X408843408Y-129894778D01*
X408843408Y-129894778D02*
X408486265Y-129894778D01*
X410557694Y-129823350D02*
X410414837Y-129894778D01*
X410414837Y-129894778D02*
X410129123Y-129894778D01*
X410129123Y-129894778D02*
X409986265Y-129823350D01*
X409986265Y-129823350D02*
X409914837Y-129680492D01*
X409914837Y-129680492D02*
X409914837Y-129109064D01*
X409914837Y-129109064D02*
X409986265Y-128966207D01*
X409986265Y-128966207D02*
X410129123Y-128894778D01*
X410129123Y-128894778D02*
X410414837Y-128894778D01*
X410414837Y-128894778D02*
X410557694Y-128966207D01*
X410557694Y-128966207D02*
X410629123Y-129109064D01*
X410629123Y-129109064D02*
X410629123Y-129251921D01*
X410629123Y-129251921D02*
X409914837Y-129394778D01*
X411914837Y-129823350D02*
X411771979Y-129894778D01*
X411771979Y-129894778D02*
X411486265Y-129894778D01*
X411486265Y-129894778D02*
X411343408Y-129823350D01*
X411343408Y-129823350D02*
X411271979Y-129751921D01*
X411271979Y-129751921D02*
X411200551Y-129609064D01*
X411200551Y-129609064D02*
X411200551Y-129180492D01*
X411200551Y-129180492D02*
X411271979Y-129037635D01*
X411271979Y-129037635D02*
X411343408Y-128966207D01*
X411343408Y-128966207D02*
X411486265Y-128894778D01*
X411486265Y-128894778D02*
X411771979Y-128894778D01*
X411771979Y-128894778D02*
X411914837Y-128966207D01*
X412557693Y-129751921D02*
X412629122Y-129823350D01*
X412629122Y-129823350D02*
X412557693Y-129894778D01*
X412557693Y-129894778D02*
X412486265Y-129823350D01*
X412486265Y-129823350D02*
X412557693Y-129751921D01*
X412557693Y-129751921D02*
X412557693Y-129894778D01*
X414343408Y-128537635D02*
X414414836Y-128466207D01*
X414414836Y-128466207D02*
X414557694Y-128394778D01*
X414557694Y-128394778D02*
X414914836Y-128394778D01*
X414914836Y-128394778D02*
X415057694Y-128466207D01*
X415057694Y-128466207D02*
X415129122Y-128537635D01*
X415129122Y-128537635D02*
X415200551Y-128680492D01*
X415200551Y-128680492D02*
X415200551Y-128823350D01*
X415200551Y-128823350D02*
X415129122Y-129037635D01*
X415129122Y-129037635D02*
X414271979Y-129894778D01*
X414271979Y-129894778D02*
X415200551Y-129894778D01*
X416129122Y-128394778D02*
X416271979Y-128394778D01*
X416271979Y-128394778D02*
X416414836Y-128466207D01*
X416414836Y-128466207D02*
X416486265Y-128537635D01*
X416486265Y-128537635D02*
X416557693Y-128680492D01*
X416557693Y-128680492D02*
X416629122Y-128966207D01*
X416629122Y-128966207D02*
X416629122Y-129323350D01*
X416629122Y-129323350D02*
X416557693Y-129609064D01*
X416557693Y-129609064D02*
X416486265Y-129751921D01*
X416486265Y-129751921D02*
X416414836Y-129823350D01*
X416414836Y-129823350D02*
X416271979Y-129894778D01*
X416271979Y-129894778D02*
X416129122Y-129894778D01*
X416129122Y-129894778D02*
X415986265Y-129823350D01*
X415986265Y-129823350D02*
X415914836Y-129751921D01*
X415914836Y-129751921D02*
X415843407Y-129609064D01*
X415843407Y-129609064D02*
X415771979Y-129323350D01*
X415771979Y-129323350D02*
X415771979Y-128966207D01*
X415771979Y-128966207D02*
X415843407Y-128680492D01*
X415843407Y-128680492D02*
X415914836Y-128537635D01*
X415914836Y-128537635D02*
X415986265Y-128466207D01*
X415986265Y-128466207D02*
X416129122Y-128394778D01*
X417200550Y-128537635D02*
X417271978Y-128466207D01*
X417271978Y-128466207D02*
X417414836Y-128394778D01*
X417414836Y-128394778D02*
X417771978Y-128394778D01*
X417771978Y-128394778D02*
X417914836Y-128466207D01*
X417914836Y-128466207D02*
X417986264Y-128537635D01*
X417986264Y-128537635D02*
X418057693Y-128680492D01*
X418057693Y-128680492D02*
X418057693Y-128823350D01*
X418057693Y-128823350D02*
X417986264Y-129037635D01*
X417986264Y-129037635D02*
X417129121Y-129894778D01*
X417129121Y-129894778D02*
X418057693Y-129894778D01*
X418557692Y-128394778D02*
X419486264Y-128394778D01*
X419486264Y-128394778D02*
X418986264Y-128966207D01*
X418986264Y-128966207D02*
X419200549Y-128966207D01*
X419200549Y-128966207D02*
X419343407Y-129037635D01*
X419343407Y-129037635D02*
X419414835Y-129109064D01*
X419414835Y-129109064D02*
X419486264Y-129251921D01*
X419486264Y-129251921D02*
X419486264Y-129609064D01*
X419486264Y-129609064D02*
X419414835Y-129751921D01*
X419414835Y-129751921D02*
X419343407Y-129823350D01*
X419343407Y-129823350D02*
X419200549Y-129894778D01*
X419200549Y-129894778D02*
X418771978Y-129894778D01*
X418771978Y-129894778D02*
X418629121Y-129823350D01*
X418629121Y-129823350D02*
X418557692Y-129751921D01*
D10*
D11*
X398044300Y-129945578D02*
X397544300Y-129231292D01*
X397187157Y-129945578D02*
X397187157Y-128445578D01*
X397187157Y-128445578D02*
X397758586Y-128445578D01*
X397758586Y-128445578D02*
X397901443Y-128517007D01*
X397901443Y-128517007D02*
X397972872Y-128588435D01*
X397972872Y-128588435D02*
X398044300Y-128731292D01*
X398044300Y-128731292D02*
X398044300Y-128945578D01*
X398044300Y-128945578D02*
X397972872Y-129088435D01*
X397972872Y-129088435D02*
X397901443Y-129159864D01*
X397901443Y-129159864D02*
X397758586Y-129231292D01*
X397758586Y-129231292D02*
X397187157Y-129231292D01*
X399258586Y-129874150D02*
X399115729Y-129945578D01*
X399115729Y-129945578D02*
X398830015Y-129945578D01*
X398830015Y-129945578D02*
X398687157Y-129874150D01*
X398687157Y-129874150D02*
X398615729Y-129731292D01*
X398615729Y-129731292D02*
X398615729Y-129159864D01*
X398615729Y-129159864D02*
X398687157Y-129017007D01*
X398687157Y-129017007D02*
X398830015Y-128945578D01*
X398830015Y-128945578D02*
X399115729Y-128945578D01*
X399115729Y-128945578D02*
X399258586Y-129017007D01*
X399258586Y-129017007D02*
X399330015Y-129159864D01*
X399330015Y-129159864D02*
X399330015Y-129302721D01*
X399330015Y-129302721D02*
X398615729Y-129445578D01*
X399830014Y-128945578D02*
X400187157Y-129945578D01*
X400187157Y-129945578D02*
X400544300Y-128945578D01*
X401115728Y-129802721D02*
X401187157Y-129874150D01*
X401187157Y-129874150D02*
X401115728Y-129945578D01*
X401115728Y-129945578D02*
X401044300Y-129874150D01*
X401044300Y-129874150D02*
X401115728Y-129802721D01*
X401115728Y-129802721D02*
X401115728Y-129945578D01*
X402901443Y-129517007D02*
X403615729Y-129517007D01*
X402758586Y-129945578D02*
X403258586Y-128445578D01*
X403258586Y-128445578D02*
X403758586Y-129945578D01*
X404472871Y-129945578D02*
X404330014Y-129874150D01*
X404330014Y-129874150D02*
X404258585Y-129731292D01*
X404258585Y-129731292D02*
X404258585Y-128445578D01*
X405044299Y-128945578D02*
X405044299Y-130445578D01*
X405044299Y-129017007D02*
X405187157Y-128945578D01*
X405187157Y-128945578D02*
X405472871Y-128945578D01*
X405472871Y-128945578D02*
X405615728Y-129017007D01*
X405615728Y-129017007D02*
X405687157Y-129088435D01*
X405687157Y-129088435D02*
X405758585Y-129231292D01*
X405758585Y-129231292D02*
X405758585Y-129659864D01*
X405758585Y-129659864D02*
X405687157Y-129802721D01*
X405687157Y-129802721D02*
X405615728Y-129874150D01*
X405615728Y-129874150D02*
X405472871Y-129945578D01*
X405472871Y-129945578D02*
X405187157Y-129945578D01*
X405187157Y-129945578D02*
X405044299Y-129874150D01*
X406330014Y-129874150D02*
X406472871Y-129945578D01*
X406472871Y-129945578D02*
X406758585Y-129945578D01*
X406758585Y-129945578D02*
X406901442Y-129874150D01*
X406901442Y-129874150D02*
X406972871Y-129731292D01*
X406972871Y-129731292D02*
X406972871Y-129659864D01*
X406972871Y-129659864D02*
X406901442Y-129517007D01*
X406901442Y-129517007D02*
X406758585Y-129445578D01*
X406758585Y-129445578D02*
X406544300Y-129445578D01*
X406544300Y-129445578D02*
X406401442Y-129374150D01*
X406401442Y-129374150D02*
X406330014Y-129231292D01*
X406330014Y-129231292D02*
X406330014Y-129159864D01*
X406330014Y-129159864D02*
X406401442Y-129017007D01*
X406401442Y-129017007D02*
X406544300Y-128945578D01*
X406544300Y-128945578D02*
X406758585Y-128945578D01*
X406758585Y-128945578D02*
X406901442Y-129017007D01*
D10*
D11*
X386876536Y-132231578D02*
X386876536Y-131445864D01*
X386876536Y-131445864D02*
X386805107Y-131303007D01*
X386805107Y-131303007D02*
X386662250Y-131231578D01*
X386662250Y-131231578D02*
X386376536Y-131231578D01*
X386376536Y-131231578D02*
X386233678Y-131303007D01*
X386876536Y-132160150D02*
X386733678Y-132231578D01*
X386733678Y-132231578D02*
X386376536Y-132231578D01*
X386376536Y-132231578D02*
X386233678Y-132160150D01*
X386233678Y-132160150D02*
X386162250Y-132017292D01*
X386162250Y-132017292D02*
X386162250Y-131874435D01*
X386162250Y-131874435D02*
X386233678Y-131731578D01*
X386233678Y-131731578D02*
X386376536Y-131660150D01*
X386376536Y-131660150D02*
X386733678Y-131660150D01*
X386733678Y-131660150D02*
X386876536Y-131588721D01*
X388162250Y-132160150D02*
X388019393Y-132231578D01*
X388019393Y-132231578D02*
X387733679Y-132231578D01*
X387733679Y-132231578D02*
X387590821Y-132160150D01*
X387590821Y-132160150D02*
X387519393Y-132017292D01*
X387519393Y-132017292D02*
X387519393Y-131445864D01*
X387519393Y-131445864D02*
X387590821Y-131303007D01*
X387590821Y-131303007D02*
X387733679Y-131231578D01*
X387733679Y-131231578D02*
X388019393Y-131231578D01*
X388019393Y-131231578D02*
X388162250Y-131303007D01*
X388162250Y-131303007D02*
X388233679Y-131445864D01*
X388233679Y-131445864D02*
X388233679Y-131588721D01*
X388233679Y-131588721D02*
X387519393Y-131731578D01*
X388876535Y-132231578D02*
X388876535Y-130731578D01*
X388876535Y-131303007D02*
X389019393Y-131231578D01*
X389019393Y-131231578D02*
X389305107Y-131231578D01*
X389305107Y-131231578D02*
X389447964Y-131303007D01*
X389447964Y-131303007D02*
X389519393Y-131374435D01*
X389519393Y-131374435D02*
X389590821Y-131517292D01*
X389590821Y-131517292D02*
X389590821Y-131945864D01*
X389590821Y-131945864D02*
X389519393Y-132088721D01*
X389519393Y-132088721D02*
X389447964Y-132160150D01*
X389447964Y-132160150D02*
X389305107Y-132231578D01*
X389305107Y-132231578D02*
X389019393Y-132231578D01*
X389019393Y-132231578D02*
X388876535Y-132160150D01*
X390805107Y-132160150D02*
X390662250Y-132231578D01*
X390662250Y-132231578D02*
X390376536Y-132231578D01*
X390376536Y-132231578D02*
X390233678Y-132160150D01*
X390233678Y-132160150D02*
X390162250Y-132017292D01*
X390162250Y-132017292D02*
X390162250Y-131445864D01*
X390162250Y-131445864D02*
X390233678Y-131303007D01*
X390233678Y-131303007D02*
X390376536Y-131231578D01*
X390376536Y-131231578D02*
X390662250Y-131231578D01*
X390662250Y-131231578D02*
X390805107Y-131303007D01*
X390805107Y-131303007D02*
X390876536Y-131445864D01*
X390876536Y-131445864D02*
X390876536Y-131588721D01*
X390876536Y-131588721D02*
X390162250Y-131731578D01*
X391519392Y-132231578D02*
X391519392Y-131231578D01*
X391519392Y-131517292D02*
X391590821Y-131374435D01*
X391590821Y-131374435D02*
X391662250Y-131303007D01*
X391662250Y-131303007D02*
X391805107Y-131231578D01*
X391805107Y-131231578D02*
X391947964Y-131231578D01*
X392447963Y-132231578D02*
X392447963Y-130731578D01*
X392447963Y-131303007D02*
X392590821Y-131231578D01*
X392590821Y-131231578D02*
X392876535Y-131231578D01*
X392876535Y-131231578D02*
X393019392Y-131303007D01*
X393019392Y-131303007D02*
X393090821Y-131374435D01*
X393090821Y-131374435D02*
X393162249Y-131517292D01*
X393162249Y-131517292D02*
X393162249Y-131945864D01*
X393162249Y-131945864D02*
X393090821Y-132088721D01*
X393090821Y-132088721D02*
X393019392Y-132160150D01*
X393019392Y-132160150D02*
X392876535Y-132231578D01*
X392876535Y-132231578D02*
X392590821Y-132231578D01*
X392590821Y-132231578D02*
X392447963Y-132160150D01*
X394447964Y-132231578D02*
X394447964Y-131445864D01*
X394447964Y-131445864D02*
X394376535Y-131303007D01*
X394376535Y-131303007D02*
X394233678Y-131231578D01*
X394233678Y-131231578D02*
X393947964Y-131231578D01*
X393947964Y-131231578D02*
X393805106Y-131303007D01*
X394447964Y-132160150D02*
X394305106Y-132231578D01*
X394305106Y-132231578D02*
X393947964Y-132231578D01*
X393947964Y-132231578D02*
X393805106Y-132160150D01*
X393805106Y-132160150D02*
X393733678Y-132017292D01*
X393733678Y-132017292D02*
X393733678Y-131874435D01*
X393733678Y-131874435D02*
X393805106Y-131731578D01*
X393805106Y-131731578D02*
X393947964Y-131660150D01*
X393947964Y-131660150D02*
X394305106Y-131660150D01*
X394305106Y-131660150D02*
X394447964Y-131588721D01*
X395805107Y-132160150D02*
X395662249Y-132231578D01*
X395662249Y-132231578D02*
X395376535Y-132231578D01*
X395376535Y-132231578D02*
X395233678Y-132160150D01*
X395233678Y-132160150D02*
X395162249Y-132088721D01*
X395162249Y-132088721D02*
X395090821Y-131945864D01*
X395090821Y-131945864D02*
X395090821Y-131517292D01*
X395090821Y-131517292D02*
X395162249Y-131374435D01*
X395162249Y-131374435D02*
X395233678Y-131303007D01*
X395233678Y-131303007D02*
X395376535Y-131231578D01*
X395376535Y-131231578D02*
X395662249Y-131231578D01*
X395662249Y-131231578D02*
X395805107Y-131303007D01*
X396447963Y-132231578D02*
X396447963Y-130731578D01*
X397090821Y-132231578D02*
X397090821Y-131445864D01*
X397090821Y-131445864D02*
X397019392Y-131303007D01*
X397019392Y-131303007D02*
X396876535Y-131231578D01*
X396876535Y-131231578D02*
X396662249Y-131231578D01*
X396662249Y-131231578D02*
X396519392Y-131303007D01*
X396519392Y-131303007D02*
X396447963Y-131374435D01*
D12*
%TA.AperFunction,EtchedComponent*%
%TO.C,G\u002A\u002A\u002A*%
G36*
X388762309Y-185378238D02*
G01*
X388864617Y-185400226D01*
X388963396Y-185442372D01*
X389040966Y-185500107D01*
X389094986Y-185568430D01*
X389123117Y-185642340D01*
X389123016Y-185716836D01*
X389092345Y-185786917D01*
X389061815Y-185821566D01*
X389014403Y-185865505D01*
X389054039Y-185893267D01*
X389087719Y-185923116D01*
X389112689Y-185962598D01*
X389130633Y-186017717D01*
X389143236Y-186094479D01*
X389152182Y-186198888D01*
X389155359Y-186254470D01*
X389174558Y-186581548D01*
X389196967Y-186876055D01*
X389223070Y-187141601D01*
X389253356Y-187381797D01*
X389288310Y-187600254D01*
X389328419Y-187800585D01*
X389374169Y-187986399D01*
X389401742Y-188083145D01*
X389430430Y-188183084D01*
X389447579Y-188256164D01*
X389453760Y-188309733D01*
X389449542Y-188351135D01*
X389435498Y-188387719D01*
X389426652Y-188403676D01*
X389369418Y-188469800D01*
X389297935Y-188504621D01*
X389218393Y-188506821D01*
X389136980Y-188475078D01*
X389125787Y-188467851D01*
X389095267Y-188444445D01*
X389071311Y-188416988D01*
X389049880Y-188377965D01*
X389026934Y-188319862D01*
X388998432Y-188235165D01*
X388995038Y-188224689D01*
X388939283Y-188030445D01*
X388887992Y-187808407D01*
X388842935Y-187566968D01*
X388810271Y-187348331D01*
X388779730Y-187117763D01*
X388711011Y-187213728D01*
X388616528Y-187322252D01*
X388510077Y-187403833D01*
X388396275Y-187456793D01*
X388279740Y-187479456D01*
X388165090Y-187470145D01*
X388083808Y-187441505D01*
X387991435Y-187380141D01*
X387901411Y-187289776D01*
X387818805Y-187177592D01*
X387748683Y-187050771D01*
X387696114Y-186916495D01*
X387684412Y-186875403D01*
X387663835Y-186757770D01*
X387655305Y-186620095D01*
X387656832Y-186556955D01*
X388082929Y-186556955D01*
X388087235Y-186698378D01*
X388118468Y-186827035D01*
X388123980Y-186840915D01*
X388153921Y-186902489D01*
X388189932Y-186961835D01*
X388225906Y-187010299D01*
X388255741Y-187039230D01*
X388267041Y-187043684D01*
X388292496Y-187031447D01*
X388327968Y-187001262D01*
X388335221Y-186993791D01*
X388407407Y-186903680D01*
X388475016Y-186791026D01*
X388539186Y-186653083D01*
X388601055Y-186487106D01*
X388661761Y-186290352D01*
X388722444Y-186060074D01*
X388722451Y-186060045D01*
X388742775Y-185988850D01*
X388764317Y-185943440D01*
X388792567Y-185913569D01*
X388805816Y-185904404D01*
X388859179Y-185870616D01*
X388786446Y-185837818D01*
X388698325Y-185813747D01*
X388647170Y-185815818D01*
X388573504Y-185838930D01*
X388486938Y-185883306D01*
X388398021Y-185942515D01*
X388317303Y-186010131D01*
X388299553Y-186027684D01*
X388213862Y-186138129D01*
X388148014Y-186268626D01*
X388103779Y-186410969D01*
X388082929Y-186556955D01*
X387656832Y-186556955D01*
X387658776Y-186476551D01*
X387674205Y-186341307D01*
X387686279Y-186281684D01*
X387749422Y-186093672D01*
X387843655Y-185917787D01*
X387964988Y-185759157D01*
X388109432Y-185622912D01*
X388272997Y-185514182D01*
X388290415Y-185504934D01*
X388430627Y-185438422D01*
X388551527Y-185395953D01*
X388659845Y-185376301D01*
X388762309Y-185378238D01*
G37*
%TD.AperFunction*%
%TA.AperFunction,EtchedComponent*%
G36*
X390574026Y-184692364D02*
G01*
X390645645Y-184702182D01*
X390696326Y-184721638D01*
X390733600Y-184753261D01*
X390756031Y-184784452D01*
X390781963Y-184858682D01*
X390776658Y-184939945D01*
X390746718Y-185008474D01*
X390734341Y-185034195D01*
X390742654Y-185053190D01*
X390777257Y-185075497D01*
X390787081Y-185080839D01*
X390828783Y-185109347D01*
X390859902Y-185147556D01*
X390882906Y-185201739D01*
X390900263Y-185278175D01*
X390914440Y-185383139D01*
X390917592Y-185412763D01*
X390925078Y-185661342D01*
X390896929Y-185907514D01*
X390833782Y-186147859D01*
X390738337Y-186374886D01*
X390683919Y-186482687D01*
X390769574Y-186536103D01*
X390832326Y-186574728D01*
X390907872Y-186620519D01*
X390966122Y-186655382D01*
X391096237Y-186750304D01*
X391201044Y-186863679D01*
X391277230Y-186990835D01*
X391321484Y-187127100D01*
X391327563Y-187165131D01*
X391328351Y-187257148D01*
X391313008Y-187365527D01*
X391284494Y-187475770D01*
X391245767Y-187573380D01*
X391243207Y-187578471D01*
X391185666Y-187665304D01*
X391103902Y-187754666D01*
X391007992Y-187837244D01*
X390908011Y-187903726D01*
X390870086Y-187923283D01*
X390748750Y-187965970D01*
X390618297Y-187987798D01*
X390490112Y-187988028D01*
X390375583Y-187965924D01*
X390350721Y-187956943D01*
X390210140Y-187881277D01*
X390090881Y-187776402D01*
X389993614Y-187642946D01*
X389970945Y-187601583D01*
X389940386Y-187536725D01*
X389923601Y-187481474D01*
X389916902Y-187419303D01*
X389916295Y-187356654D01*
X389916365Y-187355905D01*
X390349213Y-187355905D01*
X390357153Y-187404595D01*
X390398451Y-187477627D01*
X390462009Y-187528016D01*
X390540122Y-187553581D01*
X390625085Y-187552142D01*
X390709193Y-187521518D01*
X390728327Y-187509630D01*
X390804283Y-187449645D01*
X390853197Y-187387949D01*
X390883238Y-187314314D01*
X390895500Y-187244392D01*
X390887779Y-187182852D01*
X390857065Y-187125403D01*
X390800347Y-187067751D01*
X390714615Y-187005603D01*
X390630653Y-186954154D01*
X390485506Y-186869326D01*
X390437401Y-186995215D01*
X390386353Y-187143313D01*
X390356928Y-187263695D01*
X390349213Y-187355905D01*
X389916365Y-187355905D01*
X389928416Y-187226838D01*
X389961584Y-187073608D01*
X390014493Y-186902134D01*
X390065309Y-186767220D01*
X390116684Y-186640011D01*
X390000315Y-186533957D01*
X389856988Y-186383469D01*
X389739695Y-186218638D01*
X389652075Y-186045275D01*
X389605721Y-185904066D01*
X389579649Y-185728831D01*
X389582669Y-185605539D01*
X390016512Y-185605539D01*
X390020734Y-185741867D01*
X390049312Y-185870889D01*
X390075152Y-185934200D01*
X390104631Y-185984997D01*
X390146191Y-186044899D01*
X390193829Y-186106611D01*
X390241541Y-186162841D01*
X390283324Y-186206298D01*
X390313175Y-186229687D01*
X390320142Y-186231797D01*
X390333405Y-186216238D01*
X390355735Y-186174883D01*
X390382945Y-186115717D01*
X390391172Y-186096316D01*
X390454137Y-185917138D01*
X390488338Y-185747053D01*
X390495558Y-185575569D01*
X390491449Y-185506083D01*
X390482435Y-185392311D01*
X390477548Y-185308300D01*
X390476747Y-185247767D01*
X390479992Y-185204427D01*
X390487245Y-185171996D01*
X390489302Y-185165904D01*
X390495406Y-185141954D01*
X390486285Y-185129854D01*
X390454252Y-185125578D01*
X390411369Y-185125083D01*
X390304528Y-185136783D01*
X390218289Y-185174284D01*
X390144553Y-185241191D01*
X390141116Y-185245293D01*
X390077589Y-185347993D01*
X390035759Y-185471161D01*
X390016512Y-185605539D01*
X389582669Y-185605539D01*
X389584122Y-185546235D01*
X389617421Y-185364398D01*
X389677829Y-185191437D01*
X389763628Y-185035474D01*
X389800118Y-184985410D01*
X389899173Y-184876012D01*
X390005198Y-184794394D01*
X390124097Y-184737963D01*
X390261775Y-184704127D01*
X390424139Y-184690295D01*
X390473941Y-184689654D01*
X390574026Y-184692364D01*
G37*
%TD.AperFunction*%
%TA.AperFunction,EtchedComponent*%
G36*
X380568189Y-186301089D02*
G01*
X380670039Y-186345791D01*
X380752426Y-186421042D01*
X380800283Y-186494868D01*
X380810877Y-186516508D01*
X380819257Y-186539296D01*
X380825646Y-186567462D01*
X380830268Y-186605235D01*
X380833347Y-186656846D01*
X380835107Y-186726523D01*
X380835771Y-186818496D01*
X380835563Y-186936995D01*
X380834707Y-187086248D01*
X380834348Y-187138940D01*
X380833040Y-187284635D01*
X380831235Y-187423137D01*
X380829045Y-187549054D01*
X380826584Y-187656990D01*
X380823965Y-187741551D01*
X380821301Y-187797342D01*
X380820265Y-187810225D01*
X380791081Y-188030383D01*
X380747094Y-188270948D01*
X380690911Y-188520488D01*
X380625136Y-188767570D01*
X380552373Y-189000764D01*
X380542380Y-189029914D01*
X380516581Y-189105939D01*
X380496955Y-189170009D01*
X380482111Y-189230023D01*
X380470658Y-189293876D01*
X380461204Y-189369467D01*
X380452357Y-189464692D01*
X380442726Y-189587450D01*
X380441675Y-189601414D01*
X380425878Y-189820269D01*
X380412348Y-190027532D01*
X380400820Y-190229569D01*
X380391030Y-190432743D01*
X380382714Y-190643419D01*
X380375609Y-190867961D01*
X380369449Y-191112733D01*
X380363972Y-191384101D01*
X380361294Y-191538583D01*
X380357469Y-191798926D01*
X380355281Y-192025526D01*
X380354865Y-192220894D01*
X380356353Y-192387542D01*
X380359880Y-192527981D01*
X380365580Y-192644722D01*
X380373587Y-192740278D01*
X380384034Y-192817158D01*
X380397056Y-192877875D01*
X380412787Y-192924941D01*
X380431360Y-192960865D01*
X380437648Y-192970040D01*
X380474993Y-192992025D01*
X380533133Y-192984609D01*
X380611813Y-192947948D01*
X380710780Y-192882198D01*
X380741324Y-192857895D01*
X381901729Y-192857895D01*
X381919023Y-192857964D01*
X381967937Y-192854562D01*
X382044018Y-192848143D01*
X382142813Y-192839162D01*
X382259869Y-192828074D01*
X382390734Y-192815334D01*
X382530954Y-192801396D01*
X382676076Y-192786715D01*
X382821648Y-192771746D01*
X382963217Y-192756943D01*
X383096330Y-192742762D01*
X383216534Y-192729656D01*
X383319377Y-192718081D01*
X383400404Y-192708491D01*
X383455164Y-192701341D01*
X383479203Y-192697086D01*
X383479870Y-192696741D01*
X383484449Y-192673784D01*
X383486910Y-192620619D01*
X383487444Y-192543250D01*
X383486240Y-192447680D01*
X383483488Y-192339915D01*
X383479378Y-192225958D01*
X383474100Y-192111813D01*
X383467844Y-192003485D01*
X383460800Y-191906977D01*
X383453157Y-191828293D01*
X383452143Y-191819797D01*
X383432849Y-191685617D01*
X383405504Y-191527399D01*
X383372290Y-191355914D01*
X383335387Y-191181938D01*
X383296978Y-191016242D01*
X383261096Y-190876368D01*
X383219050Y-190722154D01*
X383182714Y-190812868D01*
X383148101Y-190892539D01*
X383098664Y-190997082D01*
X383037812Y-191120000D01*
X382968955Y-191254795D01*
X382895503Y-191394968D01*
X382820867Y-191534021D01*
X382748457Y-191665456D01*
X382681682Y-191782775D01*
X382623953Y-191879479D01*
X382617684Y-191889568D01*
X382526900Y-192030091D01*
X382424501Y-192180488D01*
X382316272Y-192332811D01*
X382207997Y-192479110D01*
X382105460Y-192611437D01*
X382014447Y-192721842D01*
X381999712Y-192738799D01*
X381954505Y-192791155D01*
X381920333Y-192832342D01*
X381902865Y-192855468D01*
X381901729Y-192857895D01*
X380741324Y-192857895D01*
X380829778Y-192787514D01*
X380968554Y-192664052D01*
X381027269Y-192608815D01*
X381313600Y-192312618D01*
X381584505Y-191985420D01*
X381838402Y-191629765D01*
X382073708Y-191248193D01*
X382288841Y-190843247D01*
X382482219Y-190417467D01*
X382631294Y-190032725D01*
X382690038Y-189857210D01*
X382733353Y-189698643D01*
X382764429Y-189542828D01*
X382786457Y-189375569D01*
X382792134Y-189317121D01*
X382804091Y-189202821D01*
X382818170Y-189116710D01*
X382837187Y-189050699D01*
X382863957Y-188996697D01*
X382901295Y-188946615D01*
X382933250Y-188911617D01*
X383022915Y-188842423D01*
X383125472Y-188805231D01*
X383235589Y-188800667D01*
X383347933Y-188829356D01*
X383403456Y-188856470D01*
X383483396Y-188918761D01*
X383544510Y-189005275D01*
X383589740Y-189120465D01*
X383598146Y-189151252D01*
X383610305Y-189196372D01*
X383631259Y-189271300D01*
X383659574Y-189371029D01*
X383693818Y-189490552D01*
X383732557Y-189624863D01*
X383774359Y-189768955D01*
X383805846Y-189876966D01*
X383896574Y-190191707D01*
X383975694Y-190475859D01*
X384043886Y-190732975D01*
X384101830Y-190966608D01*
X384150207Y-191180310D01*
X384189697Y-191377634D01*
X384220979Y-191562132D01*
X384244734Y-191737358D01*
X384261643Y-191906864D01*
X384272385Y-192074204D01*
X384277640Y-192242928D01*
X384278443Y-192345424D01*
X384279098Y-192454448D01*
X384281329Y-192531713D01*
X384285535Y-192581723D01*
X384292117Y-192608987D01*
X384301474Y-192618010D01*
X384302623Y-192618083D01*
X384329297Y-192615919D01*
X384387925Y-192609753D01*
X384474456Y-192600072D01*
X384584837Y-192587366D01*
X384715016Y-192572123D01*
X384860941Y-192554829D01*
X385018559Y-192535975D01*
X385183819Y-192516047D01*
X385352668Y-192495535D01*
X385521055Y-192474926D01*
X385684925Y-192454708D01*
X385840229Y-192435371D01*
X385982913Y-192417401D01*
X386108926Y-192401287D01*
X386192514Y-192390390D01*
X386291595Y-192377039D01*
X386422438Y-192358958D01*
X386580914Y-192336735D01*
X386762892Y-192310964D01*
X386964241Y-192282234D01*
X387180831Y-192251138D01*
X387408532Y-192218265D01*
X387643213Y-192184207D01*
X387880743Y-192149555D01*
X388088443Y-192119099D01*
X388629176Y-192039848D01*
X389135975Y-191966085D01*
X389610734Y-191897548D01*
X390055346Y-191833979D01*
X390471706Y-191775119D01*
X390861706Y-191720708D01*
X391227242Y-191670488D01*
X391570207Y-191624199D01*
X391892494Y-191581581D01*
X392195997Y-191542376D01*
X392482611Y-191506324D01*
X392754229Y-191473167D01*
X393012745Y-191442644D01*
X393123086Y-191429953D01*
X393255240Y-191414304D01*
X393413494Y-191394632D01*
X393588049Y-191372213D01*
X393769107Y-191348322D01*
X393946871Y-191324233D01*
X394102800Y-191302466D01*
X394337208Y-191269567D01*
X394540476Y-191242025D01*
X394717281Y-191219385D01*
X394872299Y-191201190D01*
X395010209Y-191186984D01*
X395135687Y-191176311D01*
X395253410Y-191168715D01*
X395368055Y-191163740D01*
X395484299Y-191160930D01*
X395563300Y-191160046D01*
X395917086Y-191157583D01*
X396001470Y-191216184D01*
X396082865Y-191292991D01*
X396137819Y-191387480D01*
X396165765Y-191492483D01*
X396166139Y-191600828D01*
X396138372Y-191705347D01*
X396081901Y-191798870D01*
X396050140Y-191832538D01*
X396008904Y-191866018D01*
X395962284Y-191891885D01*
X395904581Y-191911448D01*
X395830100Y-191926015D01*
X395733142Y-191936898D01*
X395608011Y-191945406D01*
X395545157Y-191948610D01*
X395420962Y-191954906D01*
X395307015Y-191961691D01*
X395198033Y-191969527D01*
X395088732Y-191978975D01*
X394973828Y-191990595D01*
X394848038Y-192004948D01*
X394706078Y-192022596D01*
X394542665Y-192044098D01*
X394352516Y-192070016D01*
X394193514Y-192092085D01*
X394016607Y-192116370D01*
X393825390Y-192141928D01*
X393629358Y-192167536D01*
X393438006Y-192191973D01*
X393260829Y-192214016D01*
X393107322Y-192232441D01*
X393068657Y-192236926D01*
X392869065Y-192260171D01*
X392663483Y-192284785D01*
X392450081Y-192311021D01*
X392227028Y-192339131D01*
X391992493Y-192369371D01*
X391744646Y-192401993D01*
X391481655Y-192437250D01*
X391201691Y-192475397D01*
X390902921Y-192516686D01*
X390583517Y-192561372D01*
X390241646Y-192609708D01*
X389875478Y-192661948D01*
X389483182Y-192718344D01*
X389062928Y-192779151D01*
X388612885Y-192844622D01*
X388131223Y-192915010D01*
X387616109Y-192990570D01*
X387444371Y-193015814D01*
X386915859Y-193091898D01*
X386401419Y-193162484D01*
X385887119Y-193229404D01*
X385359028Y-193294490D01*
X385022300Y-193334293D01*
X384863657Y-193352859D01*
X384715236Y-193370405D01*
X384581150Y-193386433D01*
X384465508Y-193400443D01*
X384372422Y-193411936D01*
X384306003Y-193420414D01*
X384270361Y-193425376D01*
X384266440Y-193426071D01*
X384238611Y-193441191D01*
X384221999Y-193477822D01*
X384215457Y-193511561D01*
X384141718Y-193933215D01*
X384053624Y-194323159D01*
X383950442Y-194683314D01*
X383831437Y-195015602D01*
X383695875Y-195321946D01*
X383543023Y-195604268D01*
X383372145Y-195864489D01*
X383260895Y-196010521D01*
X383164266Y-196125590D01*
X383066113Y-196231036D01*
X382958706Y-196334374D01*
X382834314Y-196443121D01*
X382716707Y-196539599D01*
X382335614Y-196824117D01*
X381933811Y-197081892D01*
X381510640Y-197313157D01*
X381065439Y-197518142D01*
X380597548Y-197697077D01*
X380106307Y-197850193D01*
X379591056Y-197977721D01*
X379051135Y-198079890D01*
X378485883Y-198156933D01*
X377946586Y-198205562D01*
X377840350Y-198211134D01*
X377704270Y-198215443D01*
X377544766Y-198218495D01*
X377368259Y-198220298D01*
X377181167Y-198220857D01*
X376989911Y-198220178D01*
X376800910Y-198218267D01*
X376620585Y-198215131D01*
X376455355Y-198210775D01*
X376311641Y-198205206D01*
X376286514Y-198203971D01*
X375972002Y-198184235D01*
X375645095Y-198156405D01*
X375301368Y-198119967D01*
X374936396Y-198074408D01*
X374545754Y-198019213D01*
X374125016Y-197953871D01*
X374109372Y-197951342D01*
X373755829Y-197889470D01*
X373432615Y-197822660D01*
X373133913Y-197749160D01*
X372853904Y-197667217D01*
X372586773Y-197575078D01*
X372326700Y-197470989D01*
X372067870Y-197353199D01*
X371977586Y-197308953D01*
X371714774Y-197166553D01*
X371487591Y-197019042D01*
X371295684Y-196866003D01*
X371138703Y-196707021D01*
X371016295Y-196541680D01*
X370928108Y-196369564D01*
X370873790Y-196190257D01*
X370852990Y-196003343D01*
X370852729Y-195979330D01*
X370853840Y-195966651D01*
X371651014Y-195966651D01*
X371659639Y-196035969D01*
X371687991Y-196103417D01*
X371739782Y-196175113D01*
X371818728Y-196257171D01*
X371838995Y-196276191D01*
X371980120Y-196390512D01*
X372153500Y-196503410D01*
X372355101Y-196613245D01*
X372580893Y-196718379D01*
X372826845Y-196817171D01*
X373088924Y-196907982D01*
X373363100Y-196989172D01*
X373645340Y-197059101D01*
X373882586Y-197107369D01*
X374434520Y-197201751D01*
X374973137Y-197280673D01*
X375494120Y-197343627D01*
X375993155Y-197390108D01*
X376465924Y-197419610D01*
X376585872Y-197424504D01*
X376726979Y-197429148D01*
X376855275Y-197432253D01*
X376977833Y-197433767D01*
X377101727Y-197433639D01*
X377234028Y-197431818D01*
X377381810Y-197428254D01*
X377552147Y-197422895D01*
X377737943Y-197416221D01*
X377989617Y-197402460D01*
X378259962Y-197379883D01*
X378537759Y-197349825D01*
X378811788Y-197313618D01*
X379070830Y-197272594D01*
X379280086Y-197233029D01*
X379775114Y-197116462D01*
X380242723Y-196977268D01*
X380684388Y-196814775D01*
X381101583Y-196628309D01*
X381495781Y-196417196D01*
X381868456Y-196180762D01*
X382221081Y-195918335D01*
X382302997Y-195851321D01*
X382497661Y-195671210D01*
X382672500Y-195470830D01*
X382828816Y-195247858D01*
X382967913Y-194999970D01*
X383091092Y-194724840D01*
X383199654Y-194420146D01*
X383294904Y-194083562D01*
X383296156Y-194078583D01*
X383322622Y-193969279D01*
X383347368Y-193859863D01*
X383369184Y-193756492D01*
X383386861Y-193665326D01*
X383399190Y-193592521D01*
X383404961Y-193544237D01*
X383404297Y-193527910D01*
X383385524Y-193526286D01*
X383334982Y-193528147D01*
X383256984Y-193533169D01*
X383155847Y-193541026D01*
X383035885Y-193551391D01*
X382901413Y-193563941D01*
X382817943Y-193572145D01*
X382652336Y-193588652D01*
X382460618Y-193607652D01*
X382252796Y-193628158D01*
X382038879Y-193649186D01*
X381828874Y-193669752D01*
X381632788Y-193688871D01*
X381557014Y-193696229D01*
X381123069Y-193738783D01*
X380693267Y-193781847D01*
X380270737Y-193825079D01*
X379858609Y-193868137D01*
X379460013Y-193910678D01*
X379078080Y-193952360D01*
X378715939Y-193992840D01*
X378376720Y-194031776D01*
X378063553Y-194068825D01*
X377779567Y-194103645D01*
X377527894Y-194135893D01*
X377474872Y-194142915D01*
X377389269Y-194154157D01*
X377274779Y-194168934D01*
X377138527Y-194186340D01*
X376987637Y-194205471D01*
X376829236Y-194225420D01*
X376670447Y-194245282D01*
X376622157Y-194251293D01*
X376216455Y-194302875D01*
X375844031Y-194352790D01*
X375501952Y-194401657D01*
X375187281Y-194450095D01*
X374897085Y-194498723D01*
X374628428Y-194548161D01*
X374378376Y-194599027D01*
X374143994Y-194651942D01*
X373922346Y-194707523D01*
X373710499Y-194766391D01*
X373505517Y-194829164D01*
X373304465Y-194896462D01*
X373104409Y-194968904D01*
X372962174Y-195023482D01*
X372679549Y-195139412D01*
X372432444Y-195251792D01*
X372220310Y-195361017D01*
X372042595Y-195467483D01*
X371898750Y-195571587D01*
X371788225Y-195673723D01*
X371710469Y-195774288D01*
X371664933Y-195873677D01*
X371651014Y-195966651D01*
X370853840Y-195966651D01*
X370870473Y-195776778D01*
X370923492Y-195581652D01*
X371011462Y-195394344D01*
X371134059Y-195215246D01*
X371290960Y-195044751D01*
X371481841Y-194883251D01*
X371706379Y-194731137D01*
X371964251Y-194588803D01*
X372022943Y-194560031D01*
X372279100Y-194443608D01*
X372564091Y-194326148D01*
X372870675Y-194210510D01*
X373173320Y-194105618D01*
X373361166Y-194045136D01*
X373550207Y-193988385D01*
X373743174Y-193934851D01*
X373942800Y-193884025D01*
X374151816Y-193835394D01*
X374372955Y-193788447D01*
X374608949Y-193742673D01*
X374862531Y-193697559D01*
X375136432Y-193652594D01*
X375433384Y-193607266D01*
X375756121Y-193561065D01*
X376107374Y-193513478D01*
X376489875Y-193463994D01*
X376821729Y-193422510D01*
X377084800Y-193390056D01*
X376963609Y-193376220D01*
X376871962Y-193356973D01*
X377324913Y-193356973D01*
X377334617Y-193358391D01*
X377372547Y-193353881D01*
X377375086Y-193353548D01*
X377418138Y-193348017D01*
X377489024Y-193339046D01*
X377579568Y-193327663D01*
X377681594Y-193314898D01*
X377737943Y-193307873D01*
X377838507Y-193295605D01*
X377963118Y-193280809D01*
X378106680Y-193264056D01*
X378264096Y-193245918D01*
X378430270Y-193226967D01*
X378600104Y-193207774D01*
X378768502Y-193188910D01*
X378930368Y-193170947D01*
X379080605Y-193154456D01*
X379214117Y-193140009D01*
X379325806Y-193128176D01*
X379410577Y-193119531D01*
X379455154Y-193115331D01*
X379524022Y-193108128D01*
X379579207Y-193100118D01*
X379610333Y-193092852D01*
X379612479Y-193091805D01*
X379619393Y-193066568D01*
X379611620Y-193009168D01*
X379600697Y-192962607D01*
X379593814Y-192932195D01*
X379588036Y-192896774D01*
X379583271Y-192853092D01*
X379579425Y-192797897D01*
X379576404Y-192727938D01*
X379574116Y-192639963D01*
X379572466Y-192530720D01*
X379571362Y-192396957D01*
X379570709Y-192235423D01*
X379570415Y-192042866D01*
X379570372Y-191906874D01*
X379570158Y-191726716D01*
X379569546Y-191558404D01*
X379568575Y-191405256D01*
X379567287Y-191270589D01*
X379565722Y-191157721D01*
X379563922Y-191069970D01*
X379561928Y-191010652D01*
X379559779Y-190983085D01*
X379558960Y-190981589D01*
X379545536Y-191000137D01*
X379515404Y-191043671D01*
X379472082Y-191107049D01*
X379419088Y-191185129D01*
X379370310Y-191257368D01*
X379144580Y-191579680D01*
X378890173Y-191919273D01*
X378608897Y-192273745D01*
X378574011Y-192316451D01*
X378402575Y-192521198D01*
X378246581Y-192697365D01*
X378102967Y-192847586D01*
X377968670Y-192974494D01*
X377840627Y-193080721D01*
X377715775Y-193168901D01*
X377591051Y-193241667D01*
X377463394Y-193301652D01*
X377397938Y-193327514D01*
X377345373Y-193347417D01*
X377324913Y-193356973D01*
X376871962Y-193356973D01*
X376794567Y-193340719D01*
X376644555Y-193276128D01*
X376516045Y-193184435D01*
X376411507Y-193067630D01*
X376333412Y-192927703D01*
X376303595Y-192844868D01*
X376275869Y-192721043D01*
X376258223Y-192575293D01*
X376251616Y-192420814D01*
X376252291Y-192402019D01*
X377042982Y-192402019D01*
X377043872Y-192492462D01*
X377057312Y-192550897D01*
X377083460Y-192578400D01*
X377099229Y-192580977D01*
X377139322Y-192572176D01*
X377193203Y-192550983D01*
X377215198Y-192540156D01*
X377308795Y-192480118D01*
X377418344Y-192391144D01*
X377541764Y-192275785D01*
X377676976Y-192136595D01*
X377821899Y-191976125D01*
X377974455Y-191796927D01*
X378132563Y-191601553D01*
X378294143Y-191392557D01*
X378457116Y-191172489D01*
X378619402Y-190943902D01*
X378778920Y-190709349D01*
X378933592Y-190471381D01*
X379039302Y-190301789D01*
X379118497Y-190169480D01*
X379199764Y-190028470D01*
X379281061Y-189882767D01*
X379360349Y-189736376D01*
X379435584Y-189593306D01*
X379504725Y-189457563D01*
X379565732Y-189333154D01*
X379616562Y-189224086D01*
X379655175Y-189134367D01*
X379679529Y-189068002D01*
X379687590Y-189029283D01*
X379681463Y-189022069D01*
X379666841Y-189044979D01*
X379662899Y-189053628D01*
X379640755Y-189094403D01*
X379607824Y-189136289D01*
X379560468Y-189182318D01*
X379495050Y-189235524D01*
X379407933Y-189298942D01*
X379295480Y-189375606D01*
X379206444Y-189434392D01*
X379075840Y-189521753D01*
X378965220Y-189600742D01*
X378864002Y-189679692D01*
X378761605Y-189766937D01*
X378647448Y-189870812D01*
X378621036Y-189895476D01*
X378316248Y-190193091D01*
X378043093Y-190484979D01*
X377801968Y-190770535D01*
X377593271Y-191049154D01*
X377417399Y-191320233D01*
X377274749Y-191583167D01*
X377165718Y-191837351D01*
X377090705Y-192082181D01*
X377054482Y-192278492D01*
X377042982Y-192402019D01*
X376252291Y-192402019D01*
X376257007Y-192270804D01*
X376259701Y-192241618D01*
X376304865Y-191957997D01*
X376382292Y-191671641D01*
X376492456Y-191381615D01*
X376635825Y-191086981D01*
X376812873Y-190786801D01*
X377024071Y-190480138D01*
X377269889Y-190166056D01*
X377353848Y-190066276D01*
X377495717Y-189905463D01*
X377653999Y-189734823D01*
X377819841Y-189563450D01*
X377984390Y-189400435D01*
X378138795Y-189254875D01*
X378180393Y-189217241D01*
X378249869Y-189153447D01*
X378307153Y-189097713D01*
X378347883Y-189054539D01*
X378367695Y-189028426D01*
X378368445Y-189023222D01*
X378335995Y-189008423D01*
X378273433Y-188994894D01*
X378186929Y-188983292D01*
X378082650Y-188974274D01*
X377966766Y-188968499D01*
X377845445Y-188966623D01*
X377837729Y-188966651D01*
X377645815Y-188973962D01*
X377475994Y-188995838D01*
X377316002Y-189035163D01*
X377153579Y-189094822D01*
X377008415Y-189161709D01*
X376838646Y-189254940D01*
X376671954Y-189365899D01*
X376507023Y-189496191D01*
X376342535Y-189647417D01*
X376177172Y-189821179D01*
X376009616Y-190019080D01*
X375838551Y-190242723D01*
X375662658Y-190493710D01*
X375480620Y-190773644D01*
X375291121Y-191084126D01*
X375092841Y-191426761D01*
X374979677Y-191629297D01*
X374853671Y-191862533D01*
X374747864Y-192070193D01*
X374660829Y-192255840D01*
X374591140Y-192423039D01*
X374537371Y-192575351D01*
X374498097Y-192716340D01*
X374471892Y-192849569D01*
X374462414Y-192921926D01*
X374448685Y-193033704D01*
X374433518Y-193117179D01*
X374414401Y-193180318D01*
X374388821Y-193231089D01*
X374354265Y-193277458D01*
X374347999Y-193284701D01*
X374261486Y-193357603D01*
X374160214Y-193401423D01*
X374051563Y-193415816D01*
X373942915Y-193400435D01*
X373841649Y-193354935D01*
X373785424Y-193311084D01*
X373748286Y-193266972D01*
X373707980Y-193205667D01*
X373684354Y-193162368D01*
X373645526Y-193088896D01*
X373599099Y-193008121D01*
X373571164Y-192962797D01*
X373543709Y-192917295D01*
X373501733Y-192844280D01*
X373447721Y-192748293D01*
X373384156Y-192633876D01*
X373313521Y-192505570D01*
X373238301Y-192367917D01*
X373160978Y-192225459D01*
X373084037Y-192082737D01*
X373009962Y-191944293D01*
X372941235Y-191814669D01*
X372893043Y-191722804D01*
X372847927Y-191638236D01*
X372808393Y-191567774D01*
X372777440Y-191516479D01*
X372758067Y-191489409D01*
X372753221Y-191486947D01*
X372743264Y-191511571D01*
X372726755Y-191559109D01*
X372712763Y-191602083D01*
X372639340Y-191793873D01*
X372539172Y-191996025D01*
X372417164Y-192201155D01*
X372278222Y-192401879D01*
X372127252Y-192590814D01*
X371969159Y-192760576D01*
X371898971Y-192826964D01*
X371666578Y-193018179D01*
X371429509Y-193175549D01*
X371188876Y-193298728D01*
X370945791Y-193387370D01*
X370701366Y-193441131D01*
X370456714Y-193459665D01*
X370212947Y-193442627D01*
X370031857Y-193406422D01*
X369846978Y-193343285D01*
X369666786Y-193252129D01*
X369497265Y-193137700D01*
X369344404Y-193004743D01*
X369214189Y-192858003D01*
X369112607Y-192702225D01*
X369091905Y-192661414D01*
X369024377Y-192480269D01*
X368983582Y-192279747D01*
X368968787Y-192064184D01*
X368971757Y-192000006D01*
X369767411Y-192000006D01*
X369768636Y-192115203D01*
X369779761Y-192211050D01*
X369789920Y-192250856D01*
X369844651Y-192360369D01*
X369930342Y-192459494D01*
X370042262Y-192544391D01*
X370175681Y-192611223D01*
X370274195Y-192643836D01*
X370362076Y-192663204D01*
X370443896Y-192670032D01*
X370534491Y-192664736D01*
X370614746Y-192653447D01*
X370778844Y-192610359D01*
X370947288Y-192535767D01*
X371116146Y-192433498D01*
X371281488Y-192307379D01*
X371439383Y-192161236D01*
X371585901Y-191998894D01*
X371717112Y-191824180D01*
X371829084Y-191640921D01*
X371917887Y-191452943D01*
X371955699Y-191348083D01*
X372048847Y-191014933D01*
X372123237Y-190661950D01*
X372176628Y-190301609D01*
X372206450Y-189952727D01*
X372219175Y-189709443D01*
X372102778Y-189720312D01*
X371943622Y-189748103D01*
X371766348Y-189802228D01*
X371575228Y-189880469D01*
X371374534Y-189980609D01*
X371168539Y-190100428D01*
X370961514Y-190237709D01*
X370757733Y-190390233D01*
X370662229Y-190468289D01*
X370425244Y-190684177D01*
X370224366Y-190902788D01*
X370059511Y-191124240D01*
X369930595Y-191348651D01*
X369837531Y-191576136D01*
X369818464Y-191638368D01*
X369792791Y-191751584D01*
X369775618Y-191875465D01*
X369767411Y-192000006D01*
X368971757Y-192000006D01*
X368979259Y-191837915D01*
X369014266Y-191605276D01*
X369073073Y-191370601D01*
X369154948Y-191138225D01*
X369259158Y-190912486D01*
X369384969Y-190697716D01*
X369436764Y-190622017D01*
X369612249Y-190396465D01*
X369811322Y-190176746D01*
X370029804Y-189965764D01*
X370263517Y-189766425D01*
X370508283Y-189581634D01*
X370759924Y-189414297D01*
X371014262Y-189267318D01*
X371267117Y-189143603D01*
X371514312Y-189046057D01*
X371751669Y-188977586D01*
X371823372Y-188962571D01*
X371973976Y-188937391D01*
X372096674Y-188924663D01*
X372197552Y-188924154D01*
X372282700Y-188935625D01*
X372313796Y-188943538D01*
X372384362Y-188960509D01*
X372435489Y-188962765D01*
X372472134Y-188954309D01*
X372580102Y-188934774D01*
X372691961Y-188946007D01*
X372796848Y-188985676D01*
X372872783Y-189040367D01*
X372924289Y-189098126D01*
X372960307Y-189162673D01*
X372983912Y-189242534D01*
X372998180Y-189346234D01*
X373002126Y-189398911D01*
X373021783Y-189635252D01*
X373051356Y-189856486D01*
X373092715Y-190069377D01*
X373147734Y-190280691D01*
X373218285Y-190497191D01*
X373306239Y-190725642D01*
X373413468Y-190972810D01*
X373473779Y-191103154D01*
X373512292Y-191182731D01*
X373561535Y-191281163D01*
X373617911Y-191391580D01*
X373677820Y-191507115D01*
X373737665Y-191620901D01*
X373793846Y-191726069D01*
X373842765Y-191815752D01*
X373880823Y-191883083D01*
X373894060Y-191905255D01*
X373903687Y-191917676D01*
X373914247Y-191919934D01*
X373928314Y-191908306D01*
X373948462Y-191879071D01*
X373977265Y-191828506D01*
X374017297Y-191752890D01*
X374069718Y-191651255D01*
X374303031Y-191209911D01*
X374533975Y-190799463D01*
X374762055Y-190420654D01*
X374986775Y-190074231D01*
X375207639Y-189760938D01*
X375424152Y-189481519D01*
X375635817Y-189236721D01*
X375768466Y-189098606D01*
X376016520Y-188869539D01*
X376266258Y-188675011D01*
X376520741Y-188513300D01*
X376783028Y-188382684D01*
X377056179Y-188281443D01*
X377343252Y-188207854D01*
X377356514Y-188205172D01*
X377511987Y-188181878D01*
X377690291Y-188168054D01*
X377879207Y-188163780D01*
X378066516Y-188169138D01*
X378239999Y-188184210D01*
X378336242Y-188198647D01*
X378461775Y-188224911D01*
X378605841Y-188260667D01*
X378757145Y-188302656D01*
X378904393Y-188347617D01*
X379036292Y-188392293D01*
X379123831Y-188425912D01*
X379193872Y-188452560D01*
X379256721Y-188472268D01*
X379300469Y-188481380D01*
X379305260Y-188481612D01*
X379408084Y-188498146D01*
X379506013Y-188543188D01*
X379590527Y-188610556D01*
X379653106Y-188694065D01*
X379677257Y-188751586D01*
X379702158Y-188835297D01*
X379712531Y-188771797D01*
X379717327Y-188737126D01*
X379725542Y-188671863D01*
X379736520Y-188581474D01*
X379749605Y-188471424D01*
X379764140Y-188347178D01*
X379778984Y-188218440D01*
X379806786Y-187982174D01*
X379834926Y-187755505D01*
X379862860Y-187542239D01*
X379890045Y-187346181D01*
X379915936Y-187171138D01*
X379939990Y-187020917D01*
X379961663Y-186899323D01*
X379979876Y-186812412D01*
X380027832Y-186645883D01*
X380085685Y-186513040D01*
X380154852Y-186412288D01*
X380236745Y-186342033D01*
X380332781Y-186300680D01*
X380444373Y-186286636D01*
X380446347Y-186286624D01*
X380568189Y-186301089D01*
G37*
%TD.AperFunction*%
%TA.AperFunction,EtchedComponent*%
G36*
X349626336Y-174483059D02*
G01*
X349730114Y-174521444D01*
X349817669Y-174579441D01*
X349867341Y-174634168D01*
X349924120Y-174732716D01*
X349962387Y-174839606D01*
X349982147Y-174958583D01*
X349983405Y-175093388D01*
X349966169Y-175247766D01*
X349930443Y-175425459D01*
X349876233Y-175630212D01*
X349868888Y-175655411D01*
X349811762Y-175861803D01*
X349751885Y-176100729D01*
X349689935Y-176368598D01*
X349626594Y-176661821D01*
X349562541Y-176976809D01*
X349498454Y-177309972D01*
X349435016Y-177657720D01*
X349372904Y-178016464D01*
X349312798Y-178382614D01*
X349255380Y-178752580D01*
X349201327Y-179122773D01*
X349171606Y-179337511D01*
X349130670Y-179636285D01*
X349092583Y-179906374D01*
X349056146Y-180155153D01*
X349020162Y-180389995D01*
X348983432Y-180618276D01*
X348944758Y-180847370D01*
X348902940Y-181084652D01*
X348856782Y-181337495D01*
X348805085Y-181613275D01*
X348782452Y-181732368D01*
X348757144Y-181866211D01*
X348736061Y-181981519D01*
X348718457Y-182084326D01*
X348703589Y-182180666D01*
X348690710Y-182276572D01*
X348679076Y-182378079D01*
X348667941Y-182491220D01*
X348656562Y-182622029D01*
X348644192Y-182776538D01*
X348630087Y-182960783D01*
X348629000Y-182975154D01*
X348576936Y-183696862D01*
X348532131Y-184390893D01*
X348494241Y-185065051D01*
X348462923Y-185727140D01*
X348437831Y-186384964D01*
X348418624Y-187046325D01*
X348404956Y-187719029D01*
X348398410Y-188209368D01*
X348387522Y-189234440D01*
X348482093Y-189143725D01*
X348591059Y-189033747D01*
X348716752Y-188897462D01*
X348855985Y-188738900D01*
X349005576Y-188562088D01*
X349162340Y-188371055D01*
X349323091Y-188169831D01*
X349484646Y-187962443D01*
X349643819Y-187752920D01*
X349797428Y-187545292D01*
X349942286Y-187343586D01*
X350075210Y-187151832D01*
X350174355Y-187002868D01*
X350237332Y-186903394D01*
X350308277Y-186786656D01*
X350385158Y-186656406D01*
X350465940Y-186516393D01*
X350548587Y-186370370D01*
X350631066Y-186222087D01*
X350711343Y-186075295D01*
X350787382Y-185933745D01*
X350857149Y-185801189D01*
X350918610Y-185681377D01*
X350969730Y-185578060D01*
X351008475Y-185494989D01*
X351032810Y-185435915D01*
X351040729Y-185405525D01*
X351044636Y-185378264D01*
X351055721Y-185320011D01*
X351073032Y-185235135D01*
X351095614Y-185128007D01*
X351122513Y-185002996D01*
X351152777Y-184864474D01*
X351185451Y-184716809D01*
X351219582Y-184564372D01*
X351254215Y-184411533D01*
X351288399Y-184262662D01*
X351315716Y-184145368D01*
X351570219Y-183108734D01*
X351840112Y-182102963D01*
X352126065Y-181125755D01*
X352428746Y-180174810D01*
X352699113Y-179387026D01*
X352807448Y-179082255D01*
X352904807Y-178809323D01*
X352992116Y-178565792D01*
X353070300Y-178349225D01*
X353140287Y-178157181D01*
X353203001Y-177987224D01*
X353259368Y-177836914D01*
X353310315Y-177703812D01*
X353356767Y-177585482D01*
X353399650Y-177479483D01*
X353439891Y-177383378D01*
X353478414Y-177294728D01*
X353516146Y-177211094D01*
X353554013Y-177130038D01*
X353564261Y-177108528D01*
X353671180Y-176898825D01*
X353775411Y-176722242D01*
X353876502Y-176579354D01*
X353974004Y-176470738D01*
X354067465Y-176396970D01*
X354149241Y-176360444D01*
X354264129Y-176345821D01*
X354379152Y-176360332D01*
X354485840Y-176401079D01*
X354575720Y-176465162D01*
X354624633Y-176523157D01*
X354656427Y-176576619D01*
X354679059Y-176630477D01*
X354692776Y-176690214D01*
X354697826Y-176761312D01*
X354694457Y-176849253D01*
X354682916Y-176959519D01*
X354663452Y-177097593D01*
X354653487Y-177161936D01*
X354626260Y-177334083D01*
X354601239Y-177489450D01*
X354577595Y-177631158D01*
X354554502Y-177762328D01*
X354531130Y-177886080D01*
X354506652Y-178005535D01*
X354480242Y-178123814D01*
X354451070Y-178244037D01*
X354418310Y-178369326D01*
X354381134Y-178502801D01*
X354338714Y-178647582D01*
X354290222Y-178806791D01*
X354234831Y-178983549D01*
X354171713Y-179180975D01*
X354100041Y-179402191D01*
X354018986Y-179650318D01*
X353927722Y-179928476D01*
X353886428Y-180054154D01*
X353813616Y-180275717D01*
X353736619Y-180510021D01*
X353657486Y-180750827D01*
X353578267Y-180991897D01*
X353501012Y-181226993D01*
X353427771Y-181449878D01*
X353360594Y-181654314D01*
X353301530Y-181834062D01*
X353272350Y-181922868D01*
X353079831Y-182499424D01*
X352892324Y-183041847D01*
X352709181Y-183551846D01*
X352529756Y-184031129D01*
X352353403Y-184481406D01*
X352179476Y-184904386D01*
X352007328Y-185301777D01*
X351927457Y-185478868D01*
X351895934Y-185548539D01*
X351870165Y-185608503D01*
X351848580Y-185664436D01*
X351829613Y-185722012D01*
X351811694Y-185786906D01*
X351793257Y-185864793D01*
X351772732Y-185961349D01*
X351748552Y-186082248D01*
X351719414Y-186231797D01*
X351604069Y-186850956D01*
X351493375Y-187493185D01*
X351388519Y-188150158D01*
X351290687Y-188813547D01*
X351201063Y-189475027D01*
X351120834Y-190126269D01*
X351051185Y-190758948D01*
X351001224Y-191275511D01*
X350988293Y-191443625D01*
X350977658Y-191631511D01*
X350969377Y-191833047D01*
X350963507Y-192042109D01*
X350960107Y-192252572D01*
X350959235Y-192458313D01*
X350960948Y-192653208D01*
X350965304Y-192831133D01*
X350972361Y-192985963D01*
X350982178Y-193111576D01*
X350983731Y-193126083D01*
X351008579Y-193329485D01*
X351036601Y-193524488D01*
X351066918Y-193706571D01*
X351098648Y-193871215D01*
X351130909Y-194013902D01*
X351162821Y-194130111D01*
X351193503Y-194215325D01*
X351198094Y-194225474D01*
X351227760Y-194273947D01*
X351263417Y-194297387D01*
X351311310Y-194296411D01*
X351377686Y-194271635D01*
X351424783Y-194247848D01*
X351499966Y-194199268D01*
X351592051Y-194126062D01*
X351696396Y-194032800D01*
X351808359Y-193924054D01*
X351923296Y-193804394D01*
X352036567Y-193678393D01*
X352143528Y-193550620D01*
X352181104Y-193503130D01*
X352189186Y-193486528D01*
X352188601Y-193463123D01*
X352177371Y-193427181D01*
X352153515Y-193372966D01*
X352115054Y-193294746D01*
X352096536Y-193258201D01*
X351956297Y-192946446D01*
X351850657Y-192629090D01*
X351779003Y-192303337D01*
X351740724Y-191966393D01*
X351736567Y-191701868D01*
X352561936Y-191701868D01*
X352564458Y-191862266D01*
X352573593Y-192001248D01*
X352591053Y-192133349D01*
X352618549Y-192273107D01*
X352639938Y-192364083D01*
X352664324Y-192454820D01*
X352691480Y-192542029D01*
X352719054Y-192619626D01*
X352744691Y-192681528D01*
X352766040Y-192721651D01*
X352780747Y-192733911D01*
X352782507Y-192732689D01*
X352796877Y-192712918D01*
X352827246Y-192668693D01*
X352869650Y-192605862D01*
X352920127Y-192530271D01*
X352940112Y-192500154D01*
X353002783Y-192403425D01*
X353078477Y-192283217D01*
X353162286Y-192147591D01*
X353249298Y-192004614D01*
X353334604Y-191862348D01*
X353413293Y-191728856D01*
X353475908Y-191620226D01*
X353520775Y-191537789D01*
X353576515Y-191430105D01*
X353639276Y-191305089D01*
X353705205Y-191170655D01*
X353770449Y-191034720D01*
X353831157Y-190905197D01*
X353883474Y-190790004D01*
X353913032Y-190722154D01*
X354049032Y-190376112D01*
X354159334Y-190039718D01*
X354242750Y-189716992D01*
X354296266Y-189424940D01*
X354310021Y-189321712D01*
X354323650Y-189207453D01*
X354336311Y-189090582D01*
X354347161Y-188979520D01*
X354355359Y-188882686D01*
X354360062Y-188808499D01*
X354360856Y-188779108D01*
X354360871Y-188722919D01*
X354148346Y-188711530D01*
X354049734Y-188706946D01*
X353978268Y-188707608D01*
X353924869Y-188716610D01*
X353880460Y-188737047D01*
X353835965Y-188772015D01*
X353782307Y-188824607D01*
X353765095Y-188842205D01*
X353667708Y-188952563D01*
X353562421Y-189090748D01*
X353453355Y-189250349D01*
X353344633Y-189424958D01*
X353240375Y-189608163D01*
X353144704Y-189793557D01*
X353119292Y-189846524D01*
X353080680Y-189932664D01*
X353032872Y-190045864D01*
X352978651Y-190178931D01*
X352920800Y-190324673D01*
X352862103Y-190475899D01*
X352805345Y-190625417D01*
X352753308Y-190766035D01*
X352708776Y-190890561D01*
X352674534Y-190991803D01*
X352667802Y-191012968D01*
X352620567Y-191178193D01*
X352588842Y-191327103D01*
X352570278Y-191474971D01*
X352562530Y-191637069D01*
X352561936Y-191701868D01*
X351736567Y-191701868D01*
X351735209Y-191615461D01*
X351735456Y-191607434D01*
X351742101Y-191465487D01*
X351753487Y-191331316D01*
X351770797Y-191200377D01*
X351795211Y-191068124D01*
X351827911Y-190930011D01*
X351870080Y-190781493D01*
X351922898Y-190618025D01*
X351987547Y-190435062D01*
X352065210Y-190228057D01*
X352151915Y-190005511D01*
X352294621Y-189664348D01*
X352443005Y-189348896D01*
X352596181Y-189060375D01*
X352753263Y-188800008D01*
X352913364Y-188569016D01*
X353075599Y-188368620D01*
X353239082Y-188200043D01*
X353402925Y-188064505D01*
X353566244Y-187963228D01*
X353665934Y-187918526D01*
X353707066Y-187903977D01*
X353747031Y-187893494D01*
X353792599Y-187886487D01*
X353850542Y-187882364D01*
X353927630Y-187880536D01*
X354030632Y-187880411D01*
X354098101Y-187880835D01*
X354211575Y-187882573D01*
X354319953Y-187885822D01*
X354414947Y-187890216D01*
X354488264Y-187895389D01*
X354524459Y-187899629D01*
X354690121Y-187943123D01*
X354835549Y-188014682D01*
X354958252Y-188111957D01*
X355055739Y-188232603D01*
X355125519Y-188374273D01*
X355159061Y-188497595D01*
X355171813Y-188603621D01*
X355176996Y-188738745D01*
X355175043Y-188896671D01*
X355166387Y-189071104D01*
X355151462Y-189255748D01*
X355130700Y-189444310D01*
X355104534Y-189630492D01*
X355073398Y-189808001D01*
X355066547Y-189842225D01*
X354985933Y-190174905D01*
X354877234Y-190525489D01*
X354741943Y-190890858D01*
X354581551Y-191267898D01*
X354397551Y-191653492D01*
X354191436Y-192044522D01*
X353964698Y-192437873D01*
X353718830Y-192830428D01*
X353455323Y-193219071D01*
X353437125Y-193244821D01*
X353373971Y-193335076D01*
X353330224Y-193400861D01*
X353303428Y-193446664D01*
X353291127Y-193476977D01*
X353290864Y-193496287D01*
X353295227Y-193504174D01*
X353334134Y-193541765D01*
X353396879Y-193591425D01*
X353475504Y-193647742D01*
X353562050Y-193705306D01*
X353648558Y-193758704D01*
X353727068Y-193802526D01*
X353753273Y-193815601D01*
X353979464Y-193905026D01*
X354227585Y-193969137D01*
X354493533Y-194007901D01*
X354773209Y-194021283D01*
X355062512Y-194009250D01*
X355357341Y-193971769D01*
X355653594Y-193908805D01*
X355909297Y-193833274D01*
X356108178Y-193758111D01*
X356324637Y-193661403D01*
X356550854Y-193547521D01*
X356779006Y-193420832D01*
X357001270Y-193285703D01*
X357209826Y-193146505D01*
X357396849Y-193007603D01*
X357417943Y-192990786D01*
X357769564Y-192687517D01*
X358102211Y-192357930D01*
X358417312Y-192001226D01*
X358484855Y-191918240D01*
X358570250Y-191810940D01*
X358669772Y-191684180D01*
X358779692Y-191542816D01*
X358896282Y-191391703D01*
X359015814Y-191235697D01*
X359134562Y-191079653D01*
X359248797Y-190928426D01*
X359354791Y-190786872D01*
X359448817Y-190659846D01*
X359482894Y-190613297D01*
X359610981Y-190439191D01*
X359721862Y-190292131D01*
X359818281Y-190168855D01*
X359902983Y-190066102D01*
X359978715Y-189980611D01*
X360048221Y-189909118D01*
X360114246Y-189848363D01*
X360156001Y-189813563D01*
X360339342Y-189683617D01*
X360522479Y-189588734D01*
X360708245Y-189527818D01*
X360899475Y-189499776D01*
X360974005Y-189497511D01*
X361146673Y-189514518D01*
X361306171Y-189564880D01*
X361451045Y-189647612D01*
X361579841Y-189761726D01*
X361691106Y-189906237D01*
X361760966Y-190031476D01*
X361793241Y-190101832D01*
X361825515Y-190180619D01*
X361859032Y-190271680D01*
X361895035Y-190378858D01*
X361934768Y-190505998D01*
X361979474Y-190656942D01*
X362030396Y-190835534D01*
X362087137Y-191039654D01*
X362154443Y-191278557D01*
X362216135Y-191485119D01*
X362273542Y-191662614D01*
X362327992Y-191814316D01*
X362380814Y-191943499D01*
X362433339Y-192053438D01*
X362486894Y-192147405D01*
X362542808Y-192228676D01*
X362596121Y-192293529D01*
X362706673Y-192394653D01*
X362834362Y-192468411D01*
X362980270Y-192514869D01*
X363145477Y-192534095D01*
X363331067Y-192526153D01*
X363538120Y-192491110D01*
X363767719Y-192429032D01*
X363927793Y-192374855D01*
X363996066Y-192349356D01*
X364048854Y-192326160D01*
X364094102Y-192299792D01*
X364139754Y-192264779D01*
X364193754Y-192215647D01*
X364264045Y-192146922D01*
X364276476Y-192134593D01*
X364353358Y-192061385D01*
X364449662Y-191974356D01*
X364555994Y-191881738D01*
X364662959Y-191791760D01*
X364729422Y-191737754D01*
X364819084Y-191665967D01*
X364896859Y-191603027D01*
X364966235Y-191545666D01*
X365030700Y-191490615D01*
X365093744Y-191434606D01*
X365158856Y-191374371D01*
X365229524Y-191306643D01*
X365309237Y-191228152D01*
X365401484Y-191135631D01*
X365509754Y-191025811D01*
X365637535Y-190895425D01*
X365734633Y-190796129D01*
X366074580Y-190445123D01*
X366388927Y-190113511D01*
X366680397Y-189798005D01*
X366951711Y-189495316D01*
X367205591Y-189202155D01*
X367444759Y-188915233D01*
X367671937Y-188631261D01*
X367889847Y-188346951D01*
X368101212Y-188059013D01*
X368308752Y-187764159D01*
X368515190Y-187459100D01*
X368588924Y-187347426D01*
X368661527Y-187236052D01*
X368734000Y-187123556D01*
X368801650Y-187017322D01*
X368859781Y-186924731D01*
X368903701Y-186853167D01*
X368911818Y-186839583D01*
X368943870Y-186783365D01*
X368985931Y-186706420D01*
X369035472Y-186613686D01*
X369089961Y-186510103D01*
X369146870Y-186400609D01*
X369203668Y-186290143D01*
X369257825Y-186183644D01*
X369306811Y-186086051D01*
X369348095Y-186002301D01*
X369379149Y-185937336D01*
X369397441Y-185896092D01*
X369401300Y-185884081D01*
X369386493Y-185875229D01*
X369360479Y-185877417D01*
X369331021Y-185881152D01*
X369269284Y-185886788D01*
X369179208Y-185894059D01*
X369064736Y-185902700D01*
X368929809Y-185912446D01*
X368778367Y-185923031D01*
X368614353Y-185934190D01*
X368441707Y-185945656D01*
X368264372Y-185957166D01*
X368086288Y-185968453D01*
X367911397Y-185979252D01*
X367743641Y-185989297D01*
X367586960Y-185998323D01*
X367469086Y-186004800D01*
X367309196Y-186012043D01*
X367124432Y-186018182D01*
X366920285Y-186023197D01*
X366702246Y-186027067D01*
X366475804Y-186029773D01*
X366246450Y-186031294D01*
X366019673Y-186031609D01*
X365800965Y-186030700D01*
X365595815Y-186028546D01*
X365409713Y-186025126D01*
X365248151Y-186020420D01*
X365116617Y-186014409D01*
X365101443Y-186013495D01*
X364610577Y-185974338D01*
X364151788Y-185920011D01*
X363724105Y-185850327D01*
X363326557Y-185765101D01*
X362958174Y-185664145D01*
X362617983Y-185547272D01*
X362561443Y-185525235D01*
X362430844Y-185470374D01*
X362280263Y-185402191D01*
X362119936Y-185325710D01*
X361960095Y-185245954D01*
X361810976Y-185167947D01*
X361682813Y-185096711D01*
X361654300Y-185079987D01*
X361400010Y-184912076D01*
X361179348Y-184730732D01*
X360992153Y-184535757D01*
X360838268Y-184326953D01*
X360717533Y-184104122D01*
X360629790Y-183867066D01*
X360604732Y-183771794D01*
X360554237Y-183478018D01*
X360539831Y-183180648D01*
X360540032Y-183177858D01*
X361402706Y-183177858D01*
X361411168Y-183363667D01*
X361441201Y-183543184D01*
X361491327Y-183708866D01*
X361560067Y-183853173D01*
X361596957Y-183909511D01*
X361699870Y-184028646D01*
X361836862Y-184150607D01*
X362005961Y-184274102D01*
X362205196Y-184397835D01*
X362432595Y-184520512D01*
X362686185Y-184640838D01*
X362761014Y-184673672D01*
X362982161Y-184762006D01*
X363214654Y-184840562D01*
X363461394Y-184909848D01*
X363725284Y-184970372D01*
X364009227Y-185022641D01*
X364316124Y-185067162D01*
X364648878Y-185104442D01*
X365010391Y-185134989D01*
X365403566Y-185159310D01*
X365591300Y-185168345D01*
X365675403Y-185170629D01*
X365790631Y-185171625D01*
X365931853Y-185171429D01*
X366093936Y-185170137D01*
X366271746Y-185167842D01*
X366460150Y-185164642D01*
X366654016Y-185160631D01*
X366848209Y-185155904D01*
X367037599Y-185150558D01*
X367217050Y-185144687D01*
X367381432Y-185138387D01*
X367505371Y-185132771D01*
X367660892Y-185124682D01*
X367830565Y-185115151D01*
X368010899Y-185104428D01*
X368198405Y-185092762D01*
X368389593Y-185080406D01*
X368580974Y-185067609D01*
X368769056Y-185054623D01*
X368950351Y-185041697D01*
X369121369Y-185029082D01*
X369278619Y-185017030D01*
X369418612Y-185005790D01*
X369537858Y-184995613D01*
X369632867Y-184986750D01*
X369700149Y-184979451D01*
X369736214Y-184973967D01*
X369741270Y-184972216D01*
X369749170Y-184951748D01*
X369763390Y-184902367D01*
X369782336Y-184830573D01*
X369804416Y-184742864D01*
X369828034Y-184645741D01*
X369851597Y-184545703D01*
X369873512Y-184449249D01*
X369892184Y-184362879D01*
X369899549Y-184326797D01*
X369958852Y-183962806D01*
X369993811Y-183593992D01*
X370004394Y-183227032D01*
X369990573Y-182868607D01*
X369952315Y-182525396D01*
X369908870Y-182287976D01*
X369822909Y-181970301D01*
X369704126Y-181652981D01*
X369555595Y-181340768D01*
X369380386Y-181038415D01*
X369181574Y-180750672D01*
X368962230Y-180482294D01*
X368725426Y-180238031D01*
X368474235Y-180022635D01*
X368415591Y-179978298D01*
X368161985Y-179808123D01*
X367903066Y-179668844D01*
X367634956Y-179559255D01*
X367353773Y-179478150D01*
X367055640Y-179424326D01*
X366736677Y-179396578D01*
X366527837Y-179391940D01*
X366192992Y-179404497D01*
X365856499Y-179442690D01*
X365515480Y-179507303D01*
X365167056Y-179599120D01*
X364808348Y-179718925D01*
X364436477Y-179867501D01*
X364048565Y-180045631D01*
X363952385Y-180093054D01*
X363648343Y-180255297D01*
X363366829Y-180428284D01*
X363100457Y-180617430D01*
X362841841Y-180828145D01*
X362583595Y-181065844D01*
X362467265Y-181181302D01*
X362213688Y-181453640D01*
X361995383Y-181721255D01*
X361811787Y-181985118D01*
X361662335Y-182246202D01*
X361546465Y-182505481D01*
X361463612Y-182763925D01*
X361417293Y-182993297D01*
X361402706Y-183177858D01*
X360540032Y-183177858D01*
X360561502Y-182879738D01*
X360619238Y-182575347D01*
X360713027Y-182267530D01*
X360842857Y-181956344D01*
X361008715Y-181641846D01*
X361091871Y-181504393D01*
X361268200Y-181246311D01*
X361474573Y-180983700D01*
X361706036Y-180721618D01*
X361957638Y-180465120D01*
X362224425Y-180219264D01*
X362501444Y-179989107D01*
X362775534Y-179785434D01*
X363101373Y-179573432D01*
X363453500Y-179373458D01*
X363825198Y-179188287D01*
X364209748Y-179020692D01*
X364600434Y-178873448D01*
X364990538Y-178749329D01*
X365373341Y-178651109D01*
X365658199Y-178594992D01*
X365976172Y-178552457D01*
X366303664Y-178529642D01*
X366632948Y-178526335D01*
X366956293Y-178542325D01*
X367265971Y-178577403D01*
X367554251Y-178631358D01*
X367625210Y-178648570D01*
X367901750Y-178733641D01*
X368184765Y-178847912D01*
X368466315Y-178987286D01*
X368738459Y-179147664D01*
X368993256Y-179324949D01*
X369101943Y-179410633D01*
X369386107Y-179666234D01*
X369653247Y-179950926D01*
X369900393Y-180260345D01*
X370124573Y-180590128D01*
X370322817Y-180935912D01*
X370492154Y-181293332D01*
X370627308Y-181651027D01*
X370696924Y-181876343D01*
X370752426Y-182091105D01*
X370795261Y-182304109D01*
X370826877Y-182524149D01*
X370848720Y-182760019D01*
X370862237Y-183020515D01*
X370864559Y-183093083D01*
X370866431Y-183448435D01*
X370850264Y-183783924D01*
X370814926Y-184111794D01*
X370759284Y-184444288D01*
X370723737Y-184614996D01*
X370704833Y-184703979D01*
X370690145Y-184779620D01*
X370680870Y-184835227D01*
X370678202Y-184864104D01*
X370678832Y-184866520D01*
X370699529Y-184867311D01*
X370753905Y-184863680D01*
X370839658Y-184855881D01*
X370954483Y-184844172D01*
X371096078Y-184828809D01*
X371262140Y-184810049D01*
X371450365Y-184788148D01*
X371658451Y-184763365D01*
X371884093Y-184735954D01*
X372124990Y-184706173D01*
X372186229Y-184698525D01*
X372466894Y-184663459D01*
X372723349Y-184631573D01*
X372959238Y-184602468D01*
X373178207Y-184575748D01*
X373383901Y-184551014D01*
X373579964Y-184527870D01*
X373770041Y-184505918D01*
X373957778Y-184484761D01*
X374146819Y-184464002D01*
X374340809Y-184443242D01*
X374543393Y-184422085D01*
X374758217Y-184400133D01*
X374988925Y-184376989D01*
X375239162Y-184352255D01*
X375512573Y-184325534D01*
X375812803Y-184296429D01*
X376143497Y-184264542D01*
X376340943Y-184245553D01*
X376668344Y-184213202D01*
X376996456Y-184179086D01*
X377318163Y-184144004D01*
X377626347Y-184108754D01*
X377913892Y-184074135D01*
X378173681Y-184040945D01*
X378218729Y-184034944D01*
X378310318Y-184022544D01*
X378402852Y-184009759D01*
X378499305Y-183996139D01*
X378602651Y-183981237D01*
X378715864Y-183964602D01*
X378841919Y-183945786D01*
X378983788Y-183924341D01*
X379144447Y-183899817D01*
X379326868Y-183871766D01*
X379534026Y-183839738D01*
X379768895Y-183803285D01*
X380034449Y-183761958D01*
X380250729Y-183728245D01*
X380598834Y-183674149D01*
X380915064Y-183625461D01*
X381203338Y-183581640D01*
X381467574Y-183542144D01*
X381711691Y-183506431D01*
X381939609Y-183473961D01*
X382155246Y-183444191D01*
X382362522Y-183416580D01*
X382565356Y-183390586D01*
X382767666Y-183365669D01*
X382973371Y-183341286D01*
X383186392Y-183316896D01*
X383398514Y-183293290D01*
X383558676Y-183275674D01*
X383714291Y-183258555D01*
X383860012Y-183242521D01*
X383990492Y-183228160D01*
X384100382Y-183216062D01*
X384184336Y-183206814D01*
X384233086Y-183201438D01*
X384446279Y-183178853D01*
X384691241Y-183154669D01*
X384968405Y-183128852D01*
X385278205Y-183101365D01*
X385621075Y-183072174D01*
X385997449Y-183041243D01*
X386407763Y-183008536D01*
X386852449Y-182974019D01*
X387331941Y-182937654D01*
X387846675Y-182899408D01*
X388397084Y-182859243D01*
X388560157Y-182847468D01*
X388885552Y-182823872D01*
X389178477Y-182802253D01*
X389442671Y-182782253D01*
X389681874Y-182763514D01*
X389899826Y-182745678D01*
X390100266Y-182728389D01*
X390286936Y-182711287D01*
X390463574Y-182694016D01*
X390633921Y-182676218D01*
X390801717Y-182657535D01*
X390970701Y-182637609D01*
X391144613Y-182616083D01*
X391327193Y-182592600D01*
X391522181Y-182566800D01*
X391590014Y-182557701D01*
X391840068Y-182525343D01*
X392092991Y-182495034D01*
X392345636Y-182467007D01*
X392594854Y-182441493D01*
X392837497Y-182418724D01*
X393070417Y-182398932D01*
X393290464Y-182382349D01*
X393494490Y-182369206D01*
X393679348Y-182359737D01*
X393841887Y-182354172D01*
X393978961Y-182352744D01*
X394087420Y-182355684D01*
X394164115Y-182363225D01*
X394181942Y-182366768D01*
X394298533Y-182411622D01*
X394392163Y-182484363D01*
X394461799Y-182584183D01*
X394463206Y-182586983D01*
X394502356Y-182701377D01*
X394509760Y-182816516D01*
X394487972Y-182926710D01*
X394439545Y-183026268D01*
X394367031Y-183109498D01*
X394272985Y-183170711D01*
X394188644Y-183199012D01*
X394142680Y-183205611D01*
X394068150Y-183212388D01*
X393972763Y-183218816D01*
X393864231Y-183224364D01*
X393765586Y-183228050D01*
X393620558Y-183233043D01*
X393480808Y-183239105D01*
X393342608Y-183246585D01*
X393202230Y-183255835D01*
X393055945Y-183267204D01*
X392900026Y-183281045D01*
X392730743Y-183297707D01*
X392544368Y-183317541D01*
X392337173Y-183340898D01*
X392105431Y-183368129D01*
X391845411Y-183399584D01*
X391553387Y-183435615D01*
X391535586Y-183437828D01*
X391289174Y-183468412D01*
X391070395Y-183495347D01*
X390874703Y-183519064D01*
X390697551Y-183539994D01*
X390534394Y-183558567D01*
X390380685Y-183575215D01*
X390231878Y-183590368D01*
X390083429Y-183604456D01*
X389930789Y-183617911D01*
X389769414Y-183631164D01*
X389594757Y-183644644D01*
X389402272Y-183658783D01*
X389187414Y-183674012D01*
X388945635Y-183690762D01*
X388672391Y-183709462D01*
X388659943Y-183710311D01*
X388386121Y-183729316D01*
X388091948Y-183750327D01*
X387782559Y-183772945D01*
X387463091Y-183796768D01*
X387138678Y-183821398D01*
X386814459Y-183846434D01*
X386495567Y-183871476D01*
X386187139Y-183896125D01*
X385894311Y-183919980D01*
X385622220Y-183942642D01*
X385376000Y-183963710D01*
X385160787Y-183982785D01*
X385158371Y-183983004D01*
X384732509Y-184022590D01*
X384322917Y-184062749D01*
X383925072Y-184104065D01*
X383534453Y-184147119D01*
X383146537Y-184192494D01*
X382756803Y-184240774D01*
X382360729Y-184292542D01*
X381953793Y-184348379D01*
X381531472Y-184408869D01*
X381089245Y-184474594D01*
X380622591Y-184546138D01*
X380126986Y-184624083D01*
X379887872Y-184662275D01*
X379526805Y-184719663D01*
X379195229Y-184771122D01*
X378886978Y-184817445D01*
X378595884Y-184859425D01*
X378315782Y-184897856D01*
X378040505Y-184933532D01*
X377763887Y-184967244D01*
X377479759Y-184999787D01*
X377181958Y-185031955D01*
X376864315Y-185064539D01*
X376520663Y-185098334D01*
X376431657Y-185106903D01*
X376096669Y-185139080D01*
X375794434Y-185168231D01*
X375521576Y-185194714D01*
X375274721Y-185218883D01*
X375050493Y-185241095D01*
X374845517Y-185261707D01*
X374656419Y-185281074D01*
X374479823Y-185299553D01*
X374312354Y-185317500D01*
X374150636Y-185335271D01*
X373991296Y-185353222D01*
X373830957Y-185371710D01*
X373666244Y-185391091D01*
X373493784Y-185411720D01*
X373310199Y-185433955D01*
X373165943Y-185451560D01*
X372840071Y-185491409D01*
X372547702Y-185527113D01*
X372286327Y-185558975D01*
X372053437Y-185587295D01*
X371846523Y-185612374D01*
X371663075Y-185634514D01*
X371500585Y-185654015D01*
X371356544Y-185671179D01*
X371228441Y-185686307D01*
X371113768Y-185699698D01*
X371010017Y-185711656D01*
X370914677Y-185722480D01*
X370825239Y-185732472D01*
X370816443Y-185733446D01*
X370695916Y-185747232D01*
X370587629Y-185760482D01*
X370496734Y-185772495D01*
X370428379Y-185782571D01*
X370387713Y-185790008D01*
X370378625Y-185793026D01*
X370368143Y-185813556D01*
X370347177Y-185861474D01*
X370318435Y-185930368D01*
X370284624Y-186013823D01*
X370271719Y-186046232D01*
X370215617Y-186179750D01*
X370144379Y-186336771D01*
X370061772Y-186509823D01*
X369971562Y-186691434D01*
X369877514Y-186874134D01*
X369783396Y-187050450D01*
X369692973Y-187212911D01*
X369624891Y-187329440D01*
X369386709Y-187712248D01*
X369124747Y-188107995D01*
X368844808Y-188508609D01*
X368552696Y-188906018D01*
X368254213Y-189292149D01*
X367955163Y-189658931D01*
X367921011Y-189699490D01*
X367856488Y-189778560D01*
X367779657Y-189876929D01*
X367698669Y-189983928D01*
X367621674Y-190088889D01*
X367595282Y-190125847D01*
X367313219Y-190514553D01*
X367039743Y-190870965D01*
X366772673Y-191197440D01*
X366509826Y-191496334D01*
X366249020Y-191770005D01*
X365988075Y-192020808D01*
X365724808Y-192251101D01*
X365457036Y-192463241D01*
X365375202Y-192523914D01*
X365099140Y-192712122D01*
X364817822Y-192878348D01*
X364534161Y-193021710D01*
X364251075Y-193141330D01*
X363971479Y-193236325D01*
X363698289Y-193305815D01*
X363434420Y-193348920D01*
X363182788Y-193364759D01*
X362946309Y-193352452D01*
X362749734Y-193316808D01*
X362528806Y-193244090D01*
X362326706Y-193141582D01*
X362142385Y-193008470D01*
X361974794Y-192843940D01*
X361822884Y-192647180D01*
X361760163Y-192549230D01*
X361684613Y-192414438D01*
X361612905Y-192264889D01*
X361543543Y-192096592D01*
X361475030Y-191905558D01*
X361405870Y-191687797D01*
X361334569Y-191439320D01*
X361309827Y-191348083D01*
X361261425Y-191170622D01*
X361213396Y-191000783D01*
X361167150Y-190843169D01*
X361124092Y-190702381D01*
X361085631Y-190583021D01*
X361053173Y-190489692D01*
X361028278Y-190427333D01*
X361000628Y-190372086D01*
X360977085Y-190343227D01*
X360949927Y-190332840D01*
X360935318Y-190332083D01*
X360857783Y-190348189D01*
X360768342Y-190394802D01*
X360670038Y-190469368D01*
X360565912Y-190569329D01*
X360459006Y-190692129D01*
X360375229Y-190802710D01*
X360309412Y-190893673D01*
X360225395Y-191008063D01*
X360127163Y-191140593D01*
X360018696Y-191285973D01*
X359903978Y-191438915D01*
X359786992Y-191594130D01*
X359671720Y-191746330D01*
X359562145Y-191890227D01*
X359462250Y-192020530D01*
X359376017Y-192131953D01*
X359329196Y-192191726D01*
X359064783Y-192516795D01*
X358807962Y-192811094D01*
X358554989Y-193078326D01*
X358302121Y-193322189D01*
X358045616Y-193546386D01*
X357781730Y-193754616D01*
X357653800Y-193848227D01*
X357556718Y-193914863D01*
X357438215Y-193991950D01*
X357306605Y-194074447D01*
X357170203Y-194157318D01*
X357037323Y-194235523D01*
X356916280Y-194304024D01*
X356815389Y-194357782D01*
X356801086Y-194364970D01*
X356579606Y-194465877D01*
X356333253Y-194562093D01*
X356073426Y-194649844D01*
X355811526Y-194725355D01*
X355558953Y-194784851D01*
X355494800Y-194797498D01*
X355355712Y-194818083D01*
X355190532Y-194833480D01*
X355009114Y-194843474D01*
X354821309Y-194847849D01*
X354636970Y-194846388D01*
X354465949Y-194838875D01*
X354318098Y-194825095D01*
X354306443Y-194823564D01*
X353985606Y-194766342D01*
X353690127Y-194684408D01*
X353418063Y-194576956D01*
X353167472Y-194443179D01*
X352936413Y-194282271D01*
X352866981Y-194225511D01*
X352748802Y-194125257D01*
X352594984Y-194301877D01*
X352394268Y-194519985D01*
X352201606Y-194703814D01*
X352015872Y-194854189D01*
X351835943Y-194971936D01*
X351660694Y-195057881D01*
X351491245Y-195112322D01*
X351398692Y-195127580D01*
X351289248Y-195135751D01*
X351176969Y-195136599D01*
X351075911Y-195129889D01*
X351017976Y-195120243D01*
X350870606Y-195067144D01*
X350737272Y-194980767D01*
X350618181Y-194861380D01*
X350513540Y-194709253D01*
X350423554Y-194524654D01*
X350348431Y-194307852D01*
X350323918Y-194217449D01*
X350264255Y-193946925D01*
X350214116Y-193648220D01*
X350174067Y-193328316D01*
X350144671Y-192994195D01*
X350126496Y-192652840D01*
X350120106Y-192311231D01*
X350126067Y-191976352D01*
X350131974Y-191847011D01*
X350149960Y-191560610D01*
X350174355Y-191243967D01*
X350204559Y-190902444D01*
X350239974Y-190541402D01*
X350279999Y-190166203D01*
X350324036Y-189782207D01*
X350371486Y-189394776D01*
X350421749Y-189009272D01*
X350474227Y-188631054D01*
X350528320Y-188265486D01*
X350542436Y-188174065D01*
X350557010Y-188077878D01*
X350568759Y-187995168D01*
X350576860Y-187932166D01*
X350580489Y-187895108D01*
X350580211Y-187887946D01*
X350567792Y-187897935D01*
X350543082Y-187929978D01*
X350528950Y-187950624D01*
X350452214Y-188061967D01*
X350355047Y-188195579D01*
X350241221Y-188346698D01*
X350114510Y-188510558D01*
X349978685Y-188682395D01*
X349837518Y-188857445D01*
X349694784Y-189030944D01*
X349554252Y-189198128D01*
X349419698Y-189354232D01*
X349397462Y-189379583D01*
X349319426Y-189466293D01*
X349227176Y-189565507D01*
X349124862Y-189673056D01*
X349016634Y-189784773D01*
X348906641Y-189896488D01*
X348799033Y-190004033D01*
X348697960Y-190103239D01*
X348607571Y-190189937D01*
X348532016Y-190259959D01*
X348475445Y-190309137D01*
X348459907Y-190321403D01*
X348391872Y-190372675D01*
X348391872Y-190584536D01*
X348394092Y-190764186D01*
X348400505Y-190973515D01*
X348410737Y-191206205D01*
X348424416Y-191455937D01*
X348441170Y-191716393D01*
X348460625Y-191981254D01*
X348482410Y-192244202D01*
X348502711Y-192463868D01*
X348524089Y-192664675D01*
X348548442Y-192853690D01*
X348577380Y-193040696D01*
X348612514Y-193235475D01*
X348655454Y-193447808D01*
X348693872Y-193625011D01*
X348724327Y-193765327D01*
X348746448Y-193876216D01*
X348760766Y-193963438D01*
X348767813Y-194032753D01*
X348768119Y-194089919D01*
X348762215Y-194140697D01*
X348750630Y-194190846D01*
X348747143Y-194203157D01*
X348697111Y-194319287D01*
X348623484Y-194408314D01*
X348528278Y-194468845D01*
X348413505Y-194499486D01*
X348315509Y-194501994D01*
X348237433Y-194492636D01*
X348176573Y-194472288D01*
X348116957Y-194436703D01*
X348047192Y-194373082D01*
X347989596Y-194291370D01*
X347951042Y-194203470D01*
X347938300Y-194127389D01*
X347934483Y-194092097D01*
X347923786Y-194027372D01*
X347907342Y-193939171D01*
X347886283Y-193833451D01*
X347861742Y-193716168D01*
X347848442Y-193654701D01*
X347816551Y-193506300D01*
X347780810Y-193335586D01*
X347743959Y-193155931D01*
X347708738Y-192980703D01*
X347677886Y-192823274D01*
X347675062Y-192808583D01*
X347623316Y-192545414D01*
X347574780Y-192313339D01*
X347528179Y-192107445D01*
X347482236Y-191922820D01*
X347435677Y-191754549D01*
X347387226Y-191597721D01*
X347335606Y-191447421D01*
X347289943Y-191325404D01*
X347253919Y-191233816D01*
X347226162Y-191171585D01*
X347201921Y-191134198D01*
X347176449Y-191117140D01*
X347144996Y-191115899D01*
X347102812Y-191125961D01*
X347085466Y-191131070D01*
X346949750Y-191165389D01*
X346788828Y-191196112D01*
X346613738Y-191221424D01*
X346435517Y-191239505D01*
X346419239Y-191240750D01*
X346153111Y-191249459D01*
X345911697Y-191233987D01*
X345692487Y-191194149D01*
X345652288Y-191183574D01*
X345588901Y-191166780D01*
X345541123Y-191155580D01*
X345517781Y-191152010D01*
X345516851Y-191152341D01*
X345507921Y-191169220D01*
X345484634Y-191214222D01*
X345449142Y-191283158D01*
X345403600Y-191371840D01*
X345350160Y-191476079D01*
X345290976Y-191591686D01*
X345285657Y-191602083D01*
X345141013Y-191879325D01*
X344992864Y-192152829D01*
X344843352Y-192419081D01*
X344694619Y-192674566D01*
X344548806Y-192915770D01*
X344408053Y-193139180D01*
X344274503Y-193341281D01*
X344150297Y-193518558D01*
X344037576Y-193667499D01*
X343995884Y-193718712D01*
X343887952Y-193841487D01*
X343770890Y-193963260D01*
X343649105Y-194080316D01*
X343527001Y-194188937D01*
X343408983Y-194285407D01*
X343299458Y-194366009D01*
X343202829Y-194427026D01*
X343123502Y-194464743D01*
X343104521Y-194470749D01*
X342991892Y-194484090D01*
X342884939Y-194465769D01*
X342787982Y-194420388D01*
X342705338Y-194352543D01*
X342641326Y-194266835D01*
X342600265Y-194167864D01*
X342586473Y-194060227D01*
X342604269Y-193948525D01*
X342606806Y-193940683D01*
X342651331Y-193849772D01*
X342723347Y-193766241D01*
X342824375Y-193686908D01*
X343035074Y-193524438D01*
X343232196Y-193333739D01*
X343324055Y-193228989D01*
X343434107Y-193088034D01*
X343556400Y-192916614D01*
X343689143Y-192717727D01*
X343830543Y-192494368D01*
X343978807Y-192249535D01*
X344132143Y-191986225D01*
X344288758Y-191707435D01*
X344446859Y-191416161D01*
X344604654Y-191115400D01*
X344699758Y-190929024D01*
X344888412Y-190555323D01*
X344860718Y-190466382D01*
X344845703Y-190389187D01*
X344845180Y-190381734D01*
X345897190Y-190381734D01*
X345897603Y-190383862D01*
X345930703Y-190398286D01*
X345993050Y-190409023D01*
X346077768Y-190415825D01*
X346177982Y-190418444D01*
X346286816Y-190416633D01*
X346397395Y-190410142D01*
X346459657Y-190404132D01*
X346569194Y-190391196D01*
X346647277Y-190380254D01*
X346698613Y-190370304D01*
X346727912Y-190360341D01*
X346739880Y-190349364D01*
X346740872Y-190344226D01*
X346728565Y-190324047D01*
X346695259Y-190285046D01*
X346646376Y-190233274D01*
X346600264Y-190187282D01*
X346475975Y-190079819D01*
X346353945Y-190000530D01*
X346238042Y-189951658D01*
X346169478Y-189937448D01*
X346096800Y-189929269D01*
X345992516Y-190151880D01*
X345955042Y-190233919D01*
X345924954Y-190303751D01*
X345904815Y-190355111D01*
X345897190Y-190381734D01*
X344845180Y-190381734D01*
X344838589Y-190287868D01*
X344838912Y-190173606D01*
X344846208Y-190057585D01*
X344860014Y-189950989D01*
X344879867Y-189865000D01*
X344886424Y-189846195D01*
X344960158Y-189697316D01*
X345061431Y-189563007D01*
X345192882Y-189440432D01*
X345357147Y-189326757D01*
X345384723Y-189310331D01*
X345499514Y-189243198D01*
X345543201Y-189142463D01*
X346450586Y-189142463D01*
X346466191Y-189149839D01*
X346505593Y-189163128D01*
X346527693Y-189169857D01*
X346684640Y-189231233D01*
X346847694Y-189322502D01*
X347011183Y-189439239D01*
X347169436Y-189577015D01*
X347316779Y-189731403D01*
X347431069Y-189874948D01*
X347472326Y-189928442D01*
X347507453Y-189968043D01*
X347529803Y-189986371D01*
X347531845Y-189986840D01*
X347536071Y-189974418D01*
X347539989Y-189936121D01*
X347543627Y-189870751D01*
X347547014Y-189777107D01*
X347550176Y-189653992D01*
X347553142Y-189500206D01*
X347555939Y-189314552D01*
X347558595Y-189095830D01*
X347561138Y-188842841D01*
X347562828Y-188649333D01*
X347565003Y-188413905D01*
X347567633Y-188175307D01*
X347570639Y-187938178D01*
X347573945Y-187707159D01*
X347577475Y-187486888D01*
X347581152Y-187282006D01*
X347584900Y-187097151D01*
X347588643Y-186936964D01*
X347592303Y-186806084D01*
X347594093Y-186752691D01*
X347598875Y-186613268D01*
X347602782Y-186485139D01*
X347605712Y-186372909D01*
X347607562Y-186281183D01*
X347608230Y-186214565D01*
X347607615Y-186177660D01*
X347606947Y-186172119D01*
X347598782Y-186178917D01*
X347582333Y-186214297D01*
X347560152Y-186272209D01*
X347539701Y-186331583D01*
X347462862Y-186557975D01*
X347373180Y-186811350D01*
X347272961Y-187085718D01*
X347164509Y-187375088D01*
X347050129Y-187673470D01*
X346932123Y-187974874D01*
X346812798Y-188273310D01*
X346694457Y-188562786D01*
X346579405Y-188837314D01*
X346542777Y-188923085D01*
X346508273Y-189003808D01*
X346479647Y-189071418D01*
X346459585Y-189119523D01*
X346450773Y-189141735D01*
X346450586Y-189142463D01*
X345543201Y-189142463D01*
X345703405Y-188773063D01*
X346102574Y-187815487D01*
X346474791Y-186846404D01*
X346818693Y-185869961D01*
X347132920Y-184890305D01*
X347416108Y-183911581D01*
X347666898Y-182937937D01*
X347782950Y-182439940D01*
X347805301Y-182338347D01*
X347824475Y-182245438D01*
X347841259Y-182155687D01*
X347856442Y-182063564D01*
X347870812Y-181963542D01*
X347885158Y-181850094D01*
X347900268Y-181717692D01*
X347916929Y-181560808D01*
X347935931Y-181373915D01*
X347938190Y-181351368D01*
X347958371Y-181153309D01*
X347981589Y-180931487D01*
X348006660Y-180696833D01*
X348032401Y-180460280D01*
X348057627Y-180232759D01*
X348081154Y-180025202D01*
X348091456Y-179936225D01*
X348115493Y-179730273D01*
X348135904Y-179555076D01*
X348153273Y-179405349D01*
X348168182Y-179275809D01*
X348181216Y-179161170D01*
X348192957Y-179056146D01*
X348203989Y-178955454D01*
X348214897Y-178853808D01*
X348226262Y-178745923D01*
X348238669Y-178626514D01*
X348252701Y-178490297D01*
X348268942Y-178331987D01*
X348273735Y-178285226D01*
X348315284Y-177891662D01*
X348355730Y-177532922D01*
X348395276Y-177207568D01*
X348434125Y-176914160D01*
X348472482Y-176651260D01*
X348510550Y-176417430D01*
X348548532Y-176211230D01*
X348586632Y-176031224D01*
X348602021Y-175965942D01*
X348636914Y-175833638D01*
X348680726Y-175684475D01*
X348730669Y-175526649D01*
X348783955Y-175368359D01*
X348837795Y-175217798D01*
X348889402Y-175083164D01*
X348935988Y-174972654D01*
X348950672Y-174941020D01*
X349041496Y-174777122D01*
X349139960Y-174648436D01*
X349246483Y-174554613D01*
X349361481Y-174495306D01*
X349485373Y-174470166D01*
X349516729Y-174469178D01*
X349626336Y-174483059D01*
G37*
%TD.AperFunction*%
%TD*%
D13*
%TO.P,K1,1,COL*%
%TO.N,/15*%
X63358800Y-81111600D03*
%TO.P,K1,2,ROW*%
%TO.N,/7*%
X58358800Y-81611600D03*
%TD*%
%TO.P,K2,1,COL*%
%TO.N,/17*%
X89188050Y-81595400D03*
%TO.P,K2,2,ROW*%
%TO.N,/7*%
X94188050Y-81095400D03*
%TD*%
%TO.P,K3,1,COL*%
%TO.N,/18*%
X113000550Y-81583600D03*
%TO.P,K3,2,ROW*%
%TO.N,/7*%
X118000550Y-81083600D03*
%TD*%
%TO.P,K4,1,COL*%
%TO.N,/19*%
X136813050Y-81595400D03*
%TO.P,K4,2,ROW*%
%TO.N,/7*%
X141813050Y-81095400D03*
%TD*%
%TO.P,K5,1,COL*%
%TO.N,/20*%
X160625550Y-81595400D03*
%TO.P,K5,2,ROW*%
%TO.N,/7*%
X165625550Y-81095400D03*
%TD*%
%TO.P,K6,1,COL*%
%TO.N,/21*%
X184438050Y-81583600D03*
%TO.P,K6,2,ROW*%
%TO.N,/7*%
X189438050Y-81083600D03*
%TD*%
%TO.P,K7,1,COL*%
%TO.N,/7*%
X217775550Y-81595400D03*
%TO.P,K7,2,ROW*%
%TO.N,/23*%
X222775550Y-81095400D03*
%TD*%
%TO.P,K8,1,COL*%
%TO.N,/25*%
X241588050Y-81595400D03*
%TO.P,K8,2,ROW*%
%TO.N,/7*%
X246588050Y-81095400D03*
%TD*%
%TO.P,K9,1,COL*%
%TO.N,/26*%
X265400550Y-81595400D03*
%TO.P,K9,2,ROW*%
%TO.N,/7*%
X270400550Y-81095400D03*
%TD*%
%TO.P,K10,1,COL*%
%TO.N,/27*%
X289213050Y-81595400D03*
%TO.P,K10,2,ROW*%
%TO.N,/7*%
X294213050Y-81095400D03*
%TD*%
%TO.P,K11,1,COL*%
%TO.N,/28*%
X313025550Y-81595400D03*
%TO.P,K11,2,ROW*%
%TO.N,/7*%
X318025550Y-81095400D03*
%TD*%
%TO.P,K27,1,COL*%
%TO.N,/28*%
X368031800Y-109670400D03*
%TO.P,K27,2,ROW*%
%TO.N,/2*%
X363031800Y-110170400D03*
%TD*%
%TO.P,K29,1,COL*%
%TO.N,/16*%
X434706800Y-109670400D03*
%TO.P,K29,2,ROW*%
%TO.N,/7*%
X429706800Y-110170400D03*
%TD*%
%TO.P,K30,1,COL*%
%TO.N,/22*%
X453756800Y-109670400D03*
%TO.P,K30,2,ROW*%
%TO.N,/7*%
X448756800Y-110170400D03*
%TD*%
%TO.P,K31,1,COL*%
%TO.N,/24*%
X472806800Y-109670400D03*
%TO.P,K31,2,ROW*%
%TO.N,/7*%
X467806800Y-110170400D03*
%TD*%
%TO.P,K32,1,COL*%
%TO.N,/15*%
X491856800Y-109670400D03*
%TO.P,K32,2,ROW*%
%TO.N,/4*%
X486856800Y-110170400D03*
%TD*%
%TO.P,K47,1,COL*%
%TO.N,/25*%
X434706800Y-128720400D03*
%TO.P,K47,2,ROW*%
%TO.N,/4*%
X429706800Y-129220400D03*
%TD*%
%TO.P,K48,1,COL*%
%TO.N,/21*%
X453756800Y-128720400D03*
%TO.P,K48,2,ROW*%
%TO.N,/4*%
X448756800Y-129220400D03*
%TD*%
%TO.P,K49,1,COL*%
%TO.N,/17*%
X472806800Y-128720400D03*
%TO.P,K49,2,ROW*%
%TO.N,/4*%
X467806800Y-129220400D03*
%TD*%
%TO.P,K50,1,COL*%
%TO.N,/29*%
X491856800Y-128720400D03*
%TO.P,K50,2,ROW*%
%TO.N,/4*%
X486856800Y-129220400D03*
%TD*%
%TO.P,K65,1,COL*%
%TO.N,/5*%
X387081800Y-147770400D03*
%TO.P,K65,2,ROW*%
%TO.N,/29*%
X382081800Y-148270400D03*
%TD*%
%TO.P,K66,1,COL*%
%TO.N,/26*%
X434706800Y-147770400D03*
%TO.P,K66,2,ROW*%
%TO.N,/4*%
X429706800Y-148270400D03*
%TD*%
%TO.P,K67,1,COL*%
%TO.N,/22*%
X453756800Y-147770400D03*
%TO.P,K67,2,ROW*%
%TO.N,/4*%
X448756800Y-148270400D03*
%TD*%
%TO.P,K68,1,COL*%
%TO.N,/18*%
X472806800Y-147770400D03*
%TO.P,K68,2,ROW*%
%TO.N,/4*%
X467806800Y-148270400D03*
%TD*%
%TO.P,K69,1,COL*%
%TO.N,/16*%
X491856800Y-147770400D03*
%TO.P,K69,2,ROW*%
%TO.N,/4*%
X486856800Y-148270400D03*
%TD*%
%TO.P,K83,1,COL*%
%TO.N,/29*%
X368031800Y-166820400D03*
%TO.P,K83,2,ROW*%
%TO.N,/1*%
X363031800Y-167320400D03*
%TD*%
%TO.P,K84,1,COL*%
%TO.N,/3*%
X387081800Y-166820400D03*
%TO.P,K84,2,ROW*%
%TO.N,/29*%
X382081800Y-167320400D03*
%TD*%
%TO.P,K85,1,COL*%
%TO.N,/29*%
X406131800Y-166820400D03*
%TO.P,K85,2,ROW*%
%TO.N,/2*%
X401131800Y-167320400D03*
%TD*%
%TO.P,K86,1,COL*%
%TO.N,/27*%
X434706800Y-166820400D03*
%TO.P,K86,2,ROW*%
%TO.N,/4*%
X429706800Y-167320400D03*
%TD*%
%TO.P,K87,1,COL*%
%TO.N,/23*%
X453756800Y-166820400D03*
%TO.P,K87,2,ROW*%
%TO.N,/4*%
X448756800Y-167320400D03*
%TD*%
%TO.P,K88,1,COL*%
%TO.N,/19*%
X472806800Y-166820400D03*
%TO.P,K88,2,ROW*%
%TO.N,/4*%
X467806800Y-167320400D03*
%TD*%
%TO.P,K89,1,COL*%
%TO.N,/24*%
X491856800Y-185870400D03*
%TO.P,K89,2,ROW*%
%TO.N,/4*%
X486856800Y-186370400D03*
%TD*%
%TO.P,K95,1,COL*%
%TO.N,/4*%
X434706800Y-185870400D03*
%TO.P,K95,2,ROW*%
%TO.N,/28*%
X429706800Y-186370400D03*
%TD*%
%TO.P,K96,1,COL*%
%TO.N,/20*%
X472806800Y-185870400D03*
%TO.P,K96,2,ROW*%
%TO.N,/4*%
X467806800Y-186370400D03*
%TD*%
%TO.P,K28,1,COL*%
%TO.N,/29*%
X382081800Y-110170400D03*
%TO.P,K28,2,ROW*%
%TO.N,/7*%
X387081800Y-109670400D03*
%TD*%
%TO.P,K33,1,COL*%
%TO.N,/1*%
X65375550Y-129220400D03*
%TO.P,K33,2,ROW*%
%TO.N,/15*%
X70375550Y-128720400D03*
%TD*%
%TO.P,K92,1,COL*%
%TO.N,/27*%
X120144300Y-186370400D03*
%TO.P,K92,2,ROW*%
%TO.N,/3*%
X125144300Y-185870400D03*
%TD*%
%TO.P,K16,1,COL*%
%TO.N,/19*%
X144194300Y-109670400D03*
%TO.P,K16,2,ROW*%
%TO.N,/5*%
X139194300Y-110170400D03*
%TD*%
%TO.P,K13,1,COL*%
%TO.N,/16*%
X87044300Y-109670400D03*
%TO.P,K13,2,ROW*%
%TO.N,/5*%
X82044300Y-110170400D03*
%TD*%
%TO.P,K21,1,COL*%
%TO.N,/24*%
X239444300Y-109670400D03*
%TO.P,K21,2,ROW*%
%TO.N,/5*%
X234444300Y-110170400D03*
%TD*%
%TO.P,K19,1,COL*%
%TO.N,/22*%
X201344300Y-109670400D03*
%TO.P,K19,2,ROW*%
%TO.N,/5*%
X196344300Y-110170400D03*
%TD*%
%TO.P,K14,1,COL*%
%TO.N,/17*%
X106094300Y-109670400D03*
%TO.P,K14,2,ROW*%
%TO.N,/5*%
X101094300Y-110170400D03*
%TD*%
%TO.P,K23,1,COL*%
%TO.N,/26*%
X277544300Y-109670400D03*
%TO.P,K23,2,ROW*%
%TO.N,/5*%
X272544300Y-110170400D03*
%TD*%
%TO.P,K17,1,COL*%
%TO.N,/20*%
X163244300Y-109670400D03*
%TO.P,K17,2,ROW*%
%TO.N,/5*%
X158244300Y-110170400D03*
%TD*%
%TO.P,K20,1,COL*%
%TO.N,/5*%
X220394300Y-109670400D03*
%TO.P,K20,2,ROW*%
%TO.N,/23*%
X215394300Y-110170400D03*
%TD*%
%TO.P,K18,1,COL*%
%TO.N,/5*%
X182294300Y-109670400D03*
%TO.P,K18,2,ROW*%
%TO.N,/21*%
X177294300Y-110170400D03*
%TD*%
%TO.P,K15,1,COL*%
%TO.N,/18*%
X125144300Y-109670400D03*
%TO.P,K15,2,ROW*%
%TO.N,/5*%
X120144300Y-110170400D03*
%TD*%
D14*
%TO.P,K46,1,COL*%
%TO.N,/1*%
X334369300Y-145280400D03*
%TO.P,K46,2,ROW*%
%TO.N,/28*%
X333869300Y-140280400D03*
%TD*%
D13*
%TO.P,K60,1,COL*%
%TO.N,/23*%
X234681800Y-147770400D03*
%TO.P,K60,2,ROW*%
%TO.N,/2*%
X229681800Y-148270400D03*
%TD*%
%TO.P,K22,1,COL*%
%TO.N,/25*%
X258494300Y-109670400D03*
%TO.P,K22,2,ROW*%
%TO.N,/5*%
X253494300Y-110170400D03*
%TD*%
%TO.P,K53,1,COL*%
%TO.N,/16*%
X101331800Y-147770400D03*
%TO.P,K53,2,ROW*%
%TO.N,/2*%
X96331800Y-148270400D03*
%TD*%
%TO.P,K54,1,COL*%
%TO.N,/17*%
X120381800Y-147770400D03*
%TO.P,K54,2,ROW*%
%TO.N,/2*%
X115381800Y-148270400D03*
%TD*%
%TO.P,K64,1,COL*%
%TO.N,/27*%
X311135800Y-147801650D03*
%TO.P,K64,2,ROW*%
%TO.N,/2*%
X306135800Y-148301650D03*
%TD*%
%TO.P,K58,1,COL*%
%TO.N,/2*%
X196581800Y-147770400D03*
%TO.P,K58,2,ROW*%
%TO.N,/21*%
X191581800Y-148270400D03*
%TD*%
%TO.P,K59,1,COL*%
%TO.N,/22*%
X215631800Y-147770400D03*
%TO.P,K59,2,ROW*%
%TO.N,/2*%
X210631800Y-148270400D03*
%TD*%
%TO.P,K45,1,COL*%
%TO.N,/27*%
X306119300Y-128720400D03*
%TO.P,K45,2,ROW*%
%TO.N,/1*%
X301119300Y-129220400D03*
%TD*%
%TO.P,K63,1,COL*%
%TO.N,/26*%
X292085800Y-147770400D03*
%TO.P,K63,2,ROW*%
%TO.N,/2*%
X287085800Y-148270400D03*
%TD*%
%TO.P,K62,1,COL*%
%TO.N,/25*%
X273035800Y-147770400D03*
%TO.P,K62,2,ROW*%
%TO.N,/2*%
X268035800Y-148270400D03*
%TD*%
%TO.P,K55,1,COL*%
%TO.N,/18*%
X139431800Y-147770400D03*
%TO.P,K55,2,ROW*%
%TO.N,/2*%
X134431800Y-148270400D03*
%TD*%
%TO.P,K61,1,COL*%
%TO.N,/24*%
X253731800Y-147770400D03*
%TO.P,K61,2,ROW*%
%TO.N,/2*%
X248731800Y-148270400D03*
%TD*%
%TO.P,K57,1,COL*%
%TO.N,/20*%
X177531800Y-147770400D03*
%TO.P,K57,2,ROW*%
%TO.N,/2*%
X172531800Y-148270400D03*
%TD*%
%TO.P,K56,1,COL*%
%TO.N,/19*%
X158481800Y-147770400D03*
%TO.P,K56,2,ROW*%
%TO.N,/2*%
X153481800Y-148270400D03*
%TD*%
%TO.P,K34,1,COL*%
%TO.N,/16*%
X96569300Y-128720400D03*
%TO.P,K34,2,ROW*%
%TO.N,/1*%
X91569300Y-129220400D03*
%TD*%
%TO.P,K40,1,COL*%
%TO.N,/22*%
X210869300Y-128720400D03*
%TO.P,K40,2,ROW*%
%TO.N,/1*%
X205869300Y-129220400D03*
%TD*%
%TO.P,K39,1,COL*%
%TO.N,/1*%
X191819300Y-128720400D03*
%TO.P,K39,2,ROW*%
%TO.N,/21*%
X186819300Y-129220400D03*
%TD*%
%TO.P,K42,1,COL*%
%TO.N,/24*%
X248969300Y-128720400D03*
%TO.P,K42,2,ROW*%
%TO.N,/1*%
X243969300Y-129220400D03*
%TD*%
%TO.P,K26,1,COL*%
%TO.N,/28*%
X332075550Y-110170400D03*
%TO.P,K26,2,ROW*%
%TO.N,/3*%
X337075550Y-109670400D03*
%TD*%
%TO.P,K36,1,COL*%
%TO.N,/18*%
X134669300Y-128720400D03*
%TO.P,K36,2,ROW*%
%TO.N,/1*%
X129669300Y-129220400D03*
%TD*%
%TO.P,K25,1,COL*%
%TO.N,/5*%
X315644300Y-109670400D03*
%TO.P,K25,2,ROW*%
%TO.N,/28*%
X310644300Y-110170400D03*
%TD*%
%TO.P,K44,1,COL*%
%TO.N,/26*%
X287069300Y-128720400D03*
%TO.P,K44,2,ROW*%
%TO.N,/1*%
X282069300Y-129220400D03*
%TD*%
%TO.P,K41,1,COL*%
%TO.N,/23*%
X229919300Y-128720400D03*
%TO.P,K41,2,ROW*%
%TO.N,/1*%
X224919300Y-129220400D03*
%TD*%
%TO.P,K35,1,COL*%
%TO.N,/17*%
X115619300Y-128720400D03*
%TO.P,K35,2,ROW*%
%TO.N,/1*%
X110619300Y-129220400D03*
%TD*%
%TO.P,K38,1,COL*%
%TO.N,/20*%
X172769300Y-128799200D03*
%TO.P,K38,2,ROW*%
%TO.N,/1*%
X167769300Y-129299200D03*
%TD*%
%TO.P,K24,1,COL*%
%TO.N,/27*%
X296594300Y-109670400D03*
%TO.P,K24,2,ROW*%
%TO.N,/5*%
X291594300Y-110170400D03*
%TD*%
%TO.P,K37,1,COL*%
%TO.N,/19*%
X153719300Y-128720400D03*
%TO.P,K37,2,ROW*%
%TO.N,/1*%
X148719300Y-129220400D03*
%TD*%
%TO.P,K43,1,COL*%
%TO.N,/25*%
X268019300Y-128720400D03*
%TO.P,K43,2,ROW*%
%TO.N,/1*%
X263019300Y-129220400D03*
%TD*%
%TO.P,K94,1,COL*%
%TO.N,/8*%
X325169300Y-185870400D03*
%TO.P,K94,2,ROW*%
%TO.N,/30*%
X320169300Y-186370400D03*
%TD*%
%TO.P,K91,1,COL*%
%TO.N,/30*%
X96569300Y-185870400D03*
%TO.P,K91,2,ROW*%
%TO.N,/14*%
X91569300Y-186370400D03*
%TD*%
%TO.P,K70,1,COL*%
%TO.N,/30*%
X72519300Y-167320400D03*
%TO.P,K70,2,ROW*%
%TO.N,/12*%
X77519300Y-166820400D03*
%TD*%
%TO.P,K52,1,COL*%
%TO.N,/15*%
X82281800Y-147770400D03*
%TO.P,K52,2,ROW*%
%TO.N,/2*%
X77281800Y-148270400D03*
%TD*%
%TO.P,K12,1,COL*%
%TO.N,/15*%
X60613050Y-110170400D03*
%TO.P,K12,2,ROW*%
%TO.N,/5*%
X65613050Y-109670400D03*
%TD*%
%TO.P,K90,1,COL*%
%TO.N,/30*%
X77519300Y-185870400D03*
%TO.P,K90,2,ROW*%
%TO.N,/13*%
X72519300Y-186370400D03*
%TD*%
%TO.P,K82,1,COL*%
%TO.N,/6*%
X324931800Y-167320400D03*
%TO.P,K82,2,ROW*%
%TO.N,/30*%
X329931800Y-166820400D03*
%TD*%
%TO.P,K51,1,COL*%
%TO.N,/30*%
X63231800Y-147770400D03*
%TO.P,K51,2,ROW*%
%TO.N,/11*%
X58231800Y-148270400D03*
%TD*%
%TO.P,K72,1,COL*%
%TO.N,/16*%
X110856800Y-166820400D03*
%TO.P,K72,2,ROW*%
%TO.N,/3*%
X105856800Y-167320400D03*
%TD*%
%TO.P,K73,1,COL*%
%TO.N,/17*%
X129906800Y-166820400D03*
%TO.P,K73,2,ROW*%
%TO.N,/3*%
X124906800Y-167320400D03*
%TD*%
%TO.P,K78,1,COL*%
%TO.N,/22*%
X225156800Y-166820400D03*
%TO.P,K78,2,ROW*%
%TO.N,/3*%
X220156800Y-167320400D03*
%TD*%
%TO.P,K80,1,COL*%
%TO.N,/24*%
X263250800Y-166842400D03*
%TO.P,K80,2,ROW*%
%TO.N,/3*%
X258250800Y-167342400D03*
%TD*%
%TO.P,K76,1,COL*%
%TO.N,/20*%
X187056800Y-166820400D03*
%TO.P,K76,2,ROW*%
%TO.N,/3*%
X182056800Y-167320400D03*
%TD*%
%TO.P,K71,1,COL*%
%TO.N,/15*%
X301356800Y-166820400D03*
%TO.P,K71,2,ROW*%
%TO.N,/3*%
X296356800Y-167320400D03*
%TD*%
%TO.P,K81,1,COL*%
%TO.N,/25*%
X282306800Y-166820400D03*
%TO.P,K81,2,ROW*%
%TO.N,/3*%
X277306800Y-167320400D03*
%TD*%
%TO.P,K79,1,COL*%
%TO.N,/23*%
X244210800Y-166822400D03*
%TO.P,K79,2,ROW*%
%TO.N,/3*%
X239210800Y-167322400D03*
%TD*%
%TO.P,K74,1,COL*%
%TO.N,/18*%
X148956800Y-166820400D03*
%TO.P,K74,2,ROW*%
%TO.N,/3*%
X143956800Y-167320400D03*
%TD*%
%TO.P,K75,1,COL*%
%TO.N,/19*%
X168006800Y-166820400D03*
%TO.P,K75,2,ROW*%
%TO.N,/3*%
X163006800Y-167320400D03*
%TD*%
%TO.P,K77,1,COL*%
%TO.N,/3*%
X206106800Y-166820400D03*
%TO.P,K77,2,ROW*%
%TO.N,/21*%
X201106800Y-167320400D03*
%TD*%
%TO.P,K101,1,COL*%
%TO.N,/1*%
X334369300Y-145280400D03*
%TO.P,K101,2,ROW*%
%TO.N,/28*%
X333869300Y-140280400D03*
%TD*%
%TO.P,K100,1,COL*%
%TO.N,/23*%
X453756800Y-185870400D03*
%TO.P,K100,2,ROW*%
%TO.N,/3*%
X448756800Y-186370400D03*
%TD*%
%TO.P,K98,1,COL*%
%TO.N,/27*%
X286831800Y-186370400D03*
%TO.P,K98,2,ROW*%
%TO.N,/3*%
X291831800Y-185870400D03*
%TD*%
%TO.P,K97,1,COL*%
%TO.N,/27*%
X201106800Y-186401650D03*
%TO.P,K97,2,ROW*%
%TO.N,/3*%
X206106800Y-185901650D03*
%TD*%
%TO.P,K93,1,COL*%
%TO.N,/28*%
X406131800Y-109670400D03*
%TO.P,K93,2,ROW*%
%TO.N,/2*%
X401131800Y-110170400D03*
%TD*%
%TO.P,K99,1,COL*%
%TO.N,/27*%
X491856800Y-166820400D03*
%TO.P,K99,2,ROW*%
%TO.N,/5*%
X486856800Y-167320400D03*
%TD*%
D15*
%TO.P,J1,1,Pin_1*%
%TO.N,/1*%
X184016800Y-98962400D03*
%TO.P,J1,2,Pin_2*%
%TO.N,/2*%
X185266800Y-101462400D03*
%TO.P,J1,3,Pin_3*%
%TO.N,/3*%
X186516800Y-98962400D03*
%TO.P,J1,4,Pin_4*%
%TO.N,/4*%
X187766800Y-101462400D03*
%TO.P,J1,5,Pin_5*%
%TO.N,/5*%
X189016800Y-98962400D03*
%TO.P,J1,6,Pin_6*%
%TO.N,/6*%
X190266800Y-101462400D03*
%TO.P,J1,7,Pin_7*%
%TO.N,/7*%
X191516800Y-98962400D03*
%TO.P,J1,8,Pin_8*%
%TO.N,/8*%
X192766800Y-101462400D03*
%TO.P,J1,9,Pin_9*%
%TO.N,/9*%
X194016800Y-98962400D03*
%TO.P,J1,10,Pin_10*%
%TO.N,/10*%
X195266800Y-101462400D03*
%TO.P,J1,11,Pin_11*%
%TO.N,/11*%
X196516800Y-98962400D03*
%TO.P,J1,12,Pin_12*%
%TO.N,/12*%
X197766800Y-101462400D03*
%TO.P,J1,13,Pin_13*%
%TO.N,/13*%
X199016800Y-98962400D03*
%TO.P,J1,14,Pin_14*%
%TO.N,/14*%
X200266800Y-101462400D03*
%TO.P,J1,15,Pin_15*%
%TO.N,/15*%
X201516800Y-98962400D03*
%TO.P,J1,16,Pin_16*%
%TO.N,/16*%
X202766800Y-101462400D03*
%TO.P,J1,17,Pin_17*%
%TO.N,/17*%
X204016800Y-98962400D03*
%TO.P,J1,18,Pin_18*%
%TO.N,/18*%
X205266800Y-101462400D03*
%TO.P,J1,19,Pin_19*%
%TO.N,/19*%
X206516800Y-98962400D03*
%TO.P,J1,20,Pin_20*%
%TO.N,/20*%
X207766800Y-101462400D03*
%TO.P,J1,21,Pin_21*%
%TO.N,/21*%
X209016800Y-98962400D03*
%TO.P,J1,22,Pin_22*%
%TO.N,/22*%
X210266800Y-101462400D03*
%TO.P,J1,23,Pin_23*%
%TO.N,/23*%
X211516800Y-98962400D03*
%TO.P,J1,24,Pin_24*%
%TO.N,/24*%
X212766800Y-101462400D03*
%TO.P,J1,25,Pin_25*%
%TO.N,/25*%
X214016800Y-98962400D03*
%TO.P,J1,26,Pin_26*%
%TO.N,/26*%
X215266800Y-101462400D03*
%TO.P,J1,27,Pin_27*%
%TO.N,/27*%
X216516800Y-98962400D03*
%TO.P,J1,28,Pin_28*%
%TO.N,/28*%
X217766800Y-101462400D03*
%TO.P,J1,29,Pin_29*%
%TO.N,/29*%
X219016800Y-98962400D03*
%TO.P,J1,30,Pin_30*%
%TO.N,/30*%
X220266800Y-101462400D03*
%TO.P,J1,31,Pin_31*%
%TO.N,/31*%
X221516800Y-98962400D03*
%TO.P,J1,32,Pin_32*%
%TO.N,unconnected-(J1-Pin_32-Pad32)*%
X222766800Y-101462400D03*
%TD*%
D16*
%TO.N,/15*%
X87719300Y-165764150D03*
%TO.N,/18*%
X142416175Y-160279775D03*
X210750550Y-160207900D03*
%TO.N,/20*%
X165395525Y-121425425D03*
X193361709Y-113645741D03*
%TO.N,/21*%
X222656800Y-97501650D03*
%TO.N,/25*%
X249644300Y-100858900D03*
%TO.N,/26*%
X277544300Y-113719400D03*
X227419300Y-113719400D03*
X434706800Y-156056900D03*
%TO.N,/27*%
X290125550Y-103057900D03*
%TO.N,/28*%
X228819800Y-112582900D03*
%TO.N,/30*%
X300444300Y-96693966D03*
X227601550Y-100858900D03*
%TO.N,/6*%
X217894300Y-172114150D03*
%TO.N,/16*%
X86925550Y-104157400D03*
%TO.N,/3*%
X94069300Y-100858900D03*
%TO.N,/12*%
X208246282Y-159291132D03*
%TO.N,/4*%
X186921764Y-114980436D03*
%TO.N,/24*%
X146059925Y-158080775D03*
X254610480Y-158202080D03*
X219481800Y-158080775D03*
%TD*%
D17*
%TO.N,/16*%
X485626159Y-152758371D02*
G75*
G03*
X487747479Y-151879721I41J2999971D01*
G01*
X418004224Y-143136084D02*
G75*
G03*
X415882909Y-142257400I-2121324J-2121316D01*
G01*
X426747875Y-151879715D02*
G75*
G03*
X428869191Y-152758400I2121325J2121315D01*
G01*
%TO.N,/27*%
X426292462Y-152979202D02*
G75*
G03*
X428413763Y-153857900I2121338J2121302D01*
G01*
X417548811Y-144235571D02*
G75*
G03*
X415427481Y-143356900I-2121311J-2121329D01*
G01*
%TO.N,/25*%
X385166271Y-138080211D02*
G75*
G03*
X387287581Y-138958900I2121329J2121311D01*
G01*
%TO.N,/21*%
X384710856Y-139179696D02*
G75*
G03*
X386832153Y-140058400I2121344J2121296D01*
G01*
%TO.N,/22*%
X384255393Y-140279233D02*
G75*
G03*
X386376725Y-141157900I2121307J2121333D01*
G01*
%TO.N,/16*%
X383799978Y-141378718D02*
G75*
G03*
X385921297Y-142257400I2121322J2121318D01*
G01*
%TO.N,/27*%
X383344565Y-142478205D02*
G75*
G03*
X385465869Y-143356900I2121335J2121305D01*
G01*
%TO.N,/5*%
X363091714Y-123780344D02*
G75*
G03*
X360970409Y-122901650I-2121314J-2121256D01*
G01*
%TO.N,/27*%
X363547129Y-122680859D02*
G75*
G03*
X361425837Y-121802150I-2121329J-2121241D01*
G01*
%TO.N,/16*%
X364002592Y-121581322D02*
G75*
G03*
X361881265Y-120702650I-2121292J-2121278D01*
G01*
%TO.N,/22*%
X364458007Y-120481837D02*
G75*
G03*
X362336693Y-119603150I-2121307J-2121263D01*
G01*
%TO.N,/21*%
X364913420Y-119382350D02*
G75*
G03*
X362792121Y-118503650I-2121320J-2121250D01*
G01*
%TO.N,/25*%
X365368856Y-118282844D02*
G75*
G03*
X363247549Y-117404150I-2121356J-2121356D01*
G01*
X332183201Y-116525471D02*
G75*
G03*
X334304521Y-117404150I2121299J2121271D01*
G01*
%TO.N,/21*%
X331727786Y-117624956D02*
G75*
G03*
X333849093Y-118503650I2121314J2121256D01*
G01*
%TO.N,/22*%
X331272373Y-118724443D02*
G75*
G03*
X333393665Y-119603150I2121327J2121243D01*
G01*
%TO.N,/16*%
X330816887Y-119823999D02*
G75*
G03*
X332938237Y-120702650I2121313J2121399D01*
G01*
%TO.N,/27*%
X330361495Y-120923465D02*
G75*
G03*
X332482809Y-121802150I2121305J2121265D01*
G01*
%TO.N,/5*%
X327996885Y-122022955D02*
G75*
G03*
X330118191Y-122901650I2121315J2121255D01*
G01*
%TO.N,/27*%
X312508149Y-103070161D02*
G75*
G03*
X310386843Y-102191466I-2121349J-2121339D01*
G01*
%TO.N,/16*%
X312963612Y-101970624D02*
G75*
G03*
X310842271Y-101091966I-2121312J-2121376D01*
G01*
%TO.N,/22*%
X313419027Y-100871139D02*
G75*
G03*
X311297699Y-99992466I-2121327J-2121361D01*
G01*
%TO.N,/21*%
X313874440Y-99771652D02*
G75*
G03*
X311753127Y-98892966I-2121340J-2121348D01*
G01*
%TO.N,/25*%
X314329905Y-98672117D02*
G75*
G03*
X312208555Y-97793466I-2121305J-2121383D01*
G01*
%TO.N,/29*%
X314785319Y-97572631D02*
G75*
G03*
X312663983Y-96693966I-2121319J-2121369D01*
G01*
%TO.N,/30*%
X284406769Y-99759378D02*
G75*
G03*
X286528090Y-98880720I31J2999978D01*
G01*
%TO.N,/25*%
X284862197Y-100858898D02*
G75*
G03*
X286983518Y-99980220I3J2999998D01*
G01*
%TO.N,/21*%
X285317625Y-101958417D02*
G75*
G03*
X287438944Y-101079720I-25J3000017D01*
G01*
%TO.N,/22*%
X285773053Y-103057866D02*
G75*
G03*
X287894373Y-102179219I47J2999966D01*
G01*
%TO.N,/16*%
X286228481Y-104157386D02*
G75*
G03*
X288349801Y-103278719I19J2999986D01*
G01*
X291779197Y-101091974D02*
G75*
G03*
X289657877Y-101970645I3J-3000026D01*
G01*
X205461800Y-104157400D02*
X286228481Y-104157400D01*
X288349802Y-103278720D02*
X289657877Y-101970645D01*
X291779197Y-101091966D02*
X307588050Y-101091966D01*
%TO.N,/21*%
X290868341Y-98893005D02*
G75*
G03*
X288747020Y-99771646I-41J-2999995D01*
G01*
%TO.N,/25*%
X290412913Y-97793485D02*
G75*
G03*
X288291593Y-98672145I-13J-3000015D01*
G01*
%TO.N,/30*%
X289957485Y-96693966D02*
G75*
G03*
X287836166Y-97572646I15J-3000034D01*
G01*
%TO.N,/29*%
X289306625Y-95594494D02*
G75*
G03*
X287185305Y-96473145I-25J-3000006D01*
G01*
X283755909Y-98659906D02*
G75*
G03*
X285877230Y-97781220I-9J3000006D01*
G01*
%TO.N,/27*%
X283300481Y-97560386D02*
G75*
G03*
X285421801Y-96681719I19J2999986D01*
G01*
%TO.N,/14*%
X197428659Y-103057871D02*
G75*
G03*
X199549980Y-102179220I41J2999971D01*
G01*
%TO.N,/22*%
X210983601Y-102179241D02*
G75*
G03*
X213104941Y-103057900I2121299J2121341D01*
G01*
%TO.N,/27*%
X477651659Y-153857900D02*
X433000550Y-153857900D01*
X291406198Y-102191475D02*
G75*
G03*
X290699092Y-102484360I2J-1000025D01*
G01*
X290125550Y-103057900D02*
X290699091Y-102484359D01*
X417548802Y-144235580D02*
X426292443Y-152979221D01*
X291406198Y-102191466D02*
X310386843Y-102191466D01*
X312508164Y-103070146D02*
X330361489Y-120923471D01*
X385465869Y-143356900D02*
X415427481Y-143356900D01*
X332482809Y-121802150D02*
X361425837Y-121802150D01*
X363547158Y-122680830D02*
X383344549Y-142478221D01*
X428413763Y-153857900D02*
X433000550Y-153857900D01*
%TO.N,/16*%
X491856800Y-147770400D02*
X487747479Y-151879721D01*
X485626159Y-152758400D02*
X428869191Y-152758400D01*
X426747870Y-151879720D02*
X418004229Y-143136079D01*
X330816916Y-119823970D02*
X312963591Y-101970645D01*
X415882909Y-142257400D02*
X385921297Y-142257400D01*
X383799976Y-141378720D02*
X364002585Y-121581329D01*
X361881265Y-120702650D02*
X332938237Y-120702650D01*
X310842271Y-101091966D02*
X307588050Y-101091966D01*
X307588050Y-101091966D02*
X308381800Y-101091966D01*
%TO.N,/25*%
X423225659Y-138958871D02*
G75*
G03*
X425346979Y-138080221I41J2999971D01*
G01*
X249644300Y-100858900D02*
X284862197Y-100858900D01*
X286983518Y-99980220D02*
X288291593Y-98672145D01*
X290412913Y-97793466D02*
X312208555Y-97793466D01*
X365368870Y-118282830D02*
X385166261Y-138080221D01*
X425346979Y-138080221D02*
X434706800Y-128720400D01*
X314329876Y-98672146D02*
X332183201Y-116525471D01*
X334304521Y-117404150D02*
X363247549Y-117404150D01*
X387287581Y-138958900D02*
X423225659Y-138958900D01*
%TO.N,/21*%
X441176159Y-140058371D02*
G75*
G03*
X443297479Y-139179721I41J2999971D01*
G01*
X285317625Y-101958400D02*
X228356191Y-101958400D01*
X226234875Y-101079715D02*
G75*
G03*
X228356191Y-101958400I2121325J2121315D01*
G01*
X441176159Y-140058400D02*
X386832153Y-140058400D01*
X311753127Y-98892966D02*
X290868341Y-98892966D01*
X453756800Y-128720400D02*
X443297479Y-139179721D01*
X331727772Y-117624970D02*
X313874447Y-99771645D01*
X384710832Y-139179720D02*
X364913441Y-119382329D01*
X226234870Y-101079720D02*
X222656800Y-97501650D01*
X362792121Y-118503650D02*
X333849093Y-118503650D01*
X288747020Y-99771646D02*
X287438945Y-101079721D01*
%TO.N,/22*%
X448022999Y-142036559D02*
G75*
G03*
X445901659Y-141157900I-2121299J-2121341D01*
G01*
X448022979Y-142036579D02*
X453756800Y-147770400D01*
X210266800Y-101462400D02*
X210983621Y-102179221D01*
X313419020Y-100871146D02*
X331272345Y-118724471D01*
X213104941Y-103057900D02*
X285773053Y-103057900D01*
X386376725Y-141157900D02*
X445901659Y-141157900D01*
X287894374Y-102179220D02*
X290081128Y-99992466D01*
X333393665Y-119603150D02*
X362336693Y-119603150D01*
X364458014Y-120481830D02*
X384255405Y-140279221D01*
X290081128Y-99992466D02*
X311297699Y-99992466D01*
%TO.N,/5*%
X387081800Y-147770400D02*
X363091729Y-123780329D01*
X360970409Y-122901650D02*
X330118191Y-122901650D01*
X327996870Y-122022970D02*
X315644300Y-109670400D01*
%TO.N,/29*%
X223364983Y-96622347D02*
G75*
G03*
X222833505Y-96402150I-531583J-531553D01*
G01*
X225623375Y-98880715D02*
G75*
G03*
X227744691Y-99759400I2121325J2121315D01*
G01*
X222819691Y-96402150D02*
X222833505Y-96402150D01*
X247983014Y-98659910D02*
G75*
G03*
X247275907Y-98952793I-14J-999990D01*
G01*
X247983014Y-98659900D02*
X283755909Y-98659900D01*
X301192621Y-95887359D02*
G75*
G03*
X300485514Y-95594466I-707121J-707141D01*
G01*
X221981531Y-96402186D02*
G75*
G03*
X221291032Y-96688168I-31J-976514D01*
G01*
X379328714Y-107417344D02*
G75*
G03*
X377207409Y-106538650I-2121314J-2121256D01*
G01*
X219016800Y-98962400D02*
X221291032Y-96688168D01*
X301706321Y-96401087D02*
G75*
G03*
X302413442Y-96693966I707079J707087D01*
G01*
X246055086Y-99759390D02*
G75*
G03*
X246762193Y-99466507I14J999990D01*
G01*
X324993949Y-106538650D02*
X377207409Y-106538650D01*
X322872615Y-105659985D02*
G75*
G03*
X324993949Y-106538650I2121285J2121285D01*
G01*
X221981531Y-96402153D02*
X222819691Y-96402150D01*
X314785304Y-97572646D02*
X322872629Y-105659971D01*
X223364990Y-96622340D02*
X225623370Y-98880720D01*
X227744691Y-99759400D02*
X246055086Y-99759400D01*
X289306625Y-95594466D02*
X300485514Y-95594466D01*
X246762193Y-99466507D02*
X247275907Y-98952793D01*
X379328729Y-107417329D02*
X382081800Y-110170400D01*
X285877230Y-97781220D02*
X287185305Y-96473145D01*
X301192621Y-95887359D02*
X301706335Y-96401073D01*
X302413442Y-96693966D02*
X312663983Y-96693966D01*
%TO.N,/30*%
X246848836Y-100858925D02*
G75*
G03*
X247555942Y-100566006I-36J1000025D01*
G01*
X248776764Y-99759375D02*
G75*
G03*
X248069658Y-100052294I36J-1000025D01*
G01*
X286528090Y-98880720D02*
X287836165Y-97572645D01*
X227601550Y-100858900D02*
X246848836Y-100858900D01*
X289957485Y-96693966D02*
X300444300Y-96693966D01*
X247555943Y-100566007D02*
X248069657Y-100052293D01*
X248776764Y-99759400D02*
X284406769Y-99759400D01*
%TO.N,/27*%
X224478904Y-96181334D02*
G75*
G03*
X222357587Y-95302650I-2121304J-2121266D01*
G01*
X221419191Y-95302650D02*
X222357587Y-95302650D01*
X226078790Y-97781230D02*
G75*
G03*
X228200119Y-98659900I2121310J2121330D01*
G01*
X245261336Y-98659925D02*
G75*
G03*
X245968442Y-98367006I-36J1000025D01*
G01*
X247189264Y-97560375D02*
G75*
G03*
X246482158Y-97853294I36J-1000025D01*
G01*
X221419191Y-95302629D02*
G75*
G03*
X219297871Y-96181329I9J-2999971D01*
G01*
X288334345Y-93769125D02*
G75*
G03*
X289213050Y-91647831I-2121245J2121325D01*
G01*
X216516800Y-98962400D02*
X219297871Y-96181329D01*
X245968443Y-98367007D02*
X246482157Y-97853293D01*
X224478908Y-96181330D02*
X226078799Y-97781221D01*
X228200119Y-98659900D02*
X245261336Y-98659900D01*
X247189264Y-97560400D02*
X283300481Y-97560400D01*
X285421802Y-96681720D02*
X288334371Y-93769151D01*
X289213050Y-91647831D02*
X289213050Y-81595400D01*
%TO.N,/16*%
X86925550Y-104157400D02*
X205461800Y-104157400D01*
%TO.N,/7*%
X217775550Y-81595400D02*
X217775550Y-76982900D01*
X189438050Y-76982900D02*
X189319300Y-76864150D01*
X189319300Y-76864150D02*
X217894300Y-76864150D01*
X270281800Y-76864150D02*
X294094300Y-76864150D01*
X463954230Y-106317830D02*
X467806800Y-110170400D01*
X387081800Y-105557900D02*
X386963050Y-105439150D01*
X318025550Y-81095400D02*
X318025550Y-95584009D01*
X246588050Y-81095400D02*
X246588050Y-76982900D01*
X141813050Y-76982900D02*
X141694300Y-76864150D01*
X94069300Y-76864150D02*
X117881800Y-76864150D01*
X94188050Y-81095400D02*
X94188050Y-76982900D01*
X165625550Y-81095400D02*
X165625550Y-76982900D01*
X294094300Y-76864150D02*
X312551659Y-76864150D01*
X448756800Y-110170400D02*
X448756800Y-105557900D01*
X327880691Y-105439150D02*
X386963050Y-105439150D01*
X270400550Y-81095400D02*
X270400550Y-76982900D01*
X141694300Y-76864150D02*
X165506800Y-76864150D01*
X387081800Y-109670400D02*
X387081800Y-105557900D01*
X429825550Y-105439150D02*
X448875550Y-105439150D01*
X165625550Y-76982900D02*
X165506800Y-76864150D01*
X294213050Y-81095400D02*
X294213050Y-76982900D01*
X318904230Y-97705330D02*
X325759371Y-104560471D01*
X246588050Y-76982900D02*
X246469300Y-76864150D01*
X217775550Y-76982900D02*
X217894300Y-76864150D01*
X429706800Y-105557900D02*
X429825550Y-105439150D01*
X217894300Y-76864150D02*
X246469300Y-76864150D01*
X448756800Y-105557900D02*
X448875550Y-105439150D01*
X64348891Y-76864150D02*
X94069300Y-76864150D01*
X118000550Y-76982900D02*
X117881800Y-76864150D01*
X294213050Y-76982900D02*
X294094300Y-76864150D01*
X165506800Y-76864150D02*
X189319300Y-76864150D01*
X141813050Y-81095400D02*
X141813050Y-76982900D01*
X117881800Y-76864150D02*
X141694300Y-76864150D01*
X314672980Y-77742830D02*
X318025550Y-81095400D01*
X386963050Y-105439150D02*
X429825550Y-105439150D01*
X118000550Y-81083600D02*
X118000550Y-76982900D01*
X189438050Y-81083600D02*
X189438050Y-76982900D01*
X270400550Y-76982900D02*
X270281800Y-76864150D01*
X429706800Y-110170400D02*
X429706800Y-105557900D01*
X448875550Y-105439150D02*
X461832909Y-105439150D01*
X58358800Y-81611600D02*
X62227571Y-77742829D01*
X246469300Y-76864150D02*
X270281800Y-76864150D01*
X94188050Y-76982900D02*
X94069300Y-76864150D01*
X314672990Y-77742820D02*
G75*
G03*
X312551659Y-76864150I-2121290J-2121280D01*
G01*
X325759386Y-104560456D02*
G75*
G03*
X327880691Y-105439150I2121314J2121256D01*
G01*
X318025559Y-95584009D02*
G75*
G03*
X318904231Y-97705329I3000041J9D01*
G01*
X463954215Y-106317845D02*
G75*
G03*
X461832909Y-105439150I-2121315J-2121255D01*
G01*
X64348891Y-76864129D02*
G75*
G03*
X62227571Y-77742829I9J-2999971D01*
G01*
%TO.N,/15*%
X301356800Y-166820400D02*
X296904729Y-162368329D01*
X197635480Y-95081080D02*
X201516800Y-98962400D01*
X63358800Y-81111600D02*
X78928920Y-96681720D01*
X183262726Y-94202400D02*
X195514159Y-94202400D01*
X180731941Y-95515601D02*
X180731941Y-95490544D01*
X294783409Y-161489650D02*
X93236441Y-161489650D01*
X81050241Y-97560400D02*
X177444501Y-97560400D01*
X179565821Y-96681721D02*
X180731941Y-95515601D01*
X91115120Y-162368330D02*
X87719300Y-165764150D01*
X180731941Y-95490544D02*
X181141406Y-95081079D01*
X177444501Y-97560400D02*
G75*
G03*
X179565820Y-96681720I-1J3000000D01*
G01*
X78928900Y-96681740D02*
G75*
G03*
X81050241Y-97560400I2121300J2121340D01*
G01*
X93236441Y-161489694D02*
G75*
G03*
X91115120Y-162368330I-41J-3000006D01*
G01*
X183262726Y-94202419D02*
G75*
G03*
X181141407Y-95081080I-26J-2999981D01*
G01*
X296904714Y-162368344D02*
G75*
G03*
X294783409Y-161489650I-2121314J-2121256D01*
G01*
X197635500Y-95081060D02*
G75*
G03*
X195514159Y-94202400I-2121300J-2121340D01*
G01*
%TO.N,/17*%
X203733550Y-98962400D02*
X203606800Y-99089150D01*
X187734099Y-93100601D02*
X196479234Y-93100601D01*
X198600555Y-93979281D02*
X203606800Y-98985526D01*
X187731800Y-93102900D02*
X187734099Y-93100601D01*
X105296191Y-96460900D02*
X176989073Y-96460900D01*
X179632441Y-95060173D02*
X179632441Y-95035116D01*
X89188050Y-81595400D02*
X103174870Y-95582220D01*
X203606800Y-99089150D02*
X203606800Y-98985526D01*
X179632441Y-95035116D02*
X180685978Y-93981579D01*
X182807298Y-93102900D02*
X187731800Y-93102900D01*
X179110394Y-95582220D02*
X179632441Y-95060173D01*
X103174875Y-95582215D02*
G75*
G03*
X105296191Y-96460900I2121325J2121315D01*
G01*
X198600538Y-93979298D02*
G75*
G03*
X196479234Y-93100601I-2121338J-2121302D01*
G01*
X176989073Y-96460881D02*
G75*
G03*
X179110394Y-95582220I27J2999981D01*
G01*
X182807298Y-93102899D02*
G75*
G03*
X180685978Y-93981579I2J-3000001D01*
G01*
%TO.N,/18*%
X210568300Y-160390150D02*
X142526550Y-160390150D01*
X142526550Y-160390150D02*
X142416175Y-160279775D01*
X210750550Y-160207900D02*
X210568300Y-160390150D01*
%TO.N,/19*%
X184559099Y-92001101D02*
X198312860Y-92001101D01*
X178532730Y-94482720D02*
X180133371Y-92882079D01*
X182254691Y-92003400D02*
X184556800Y-92003400D01*
X136813050Y-81595400D02*
X149700370Y-94482720D01*
X151821691Y-95361400D02*
X176411409Y-95361400D01*
X200434181Y-92879781D02*
X206516800Y-98962400D01*
X184556800Y-92003400D02*
X184559099Y-92001101D01*
X149700375Y-94482715D02*
G75*
G03*
X151821691Y-95361400I2121325J2121315D01*
G01*
X182254691Y-92003394D02*
G75*
G03*
X180133371Y-92882079I9J-3000006D01*
G01*
X176411409Y-95361406D02*
G75*
G03*
X178532730Y-94482720I-9J3000006D01*
G01*
X200434201Y-92879761D02*
G75*
G03*
X198312860Y-92001101I-2121301J-2121339D01*
G01*
%TO.N,/20*%
X172222870Y-114598080D02*
X165395525Y-121425425D01*
X174344191Y-113719400D02*
X193288050Y-113719400D01*
X193288050Y-113719400D02*
X193361709Y-113645741D01*
X174344191Y-113719394D02*
G75*
G03*
X172222870Y-114598080I9J-3000006D01*
G01*
%TO.N,/21*%
X199713360Y-90901601D02*
X194998692Y-90901601D01*
X192877371Y-90022921D02*
X184438050Y-81583600D01*
X209016800Y-98962400D02*
X201834680Y-91780280D01*
X201834700Y-91780260D02*
G75*
G03*
X199713360Y-90901601I-2121300J-2121340D01*
G01*
X192877375Y-90022917D02*
G75*
G03*
X194998692Y-90901601I2121325J2121317D01*
G01*
%TO.N,/23*%
X221896870Y-88449772D02*
X211516800Y-98829842D01*
X222775550Y-81095400D02*
X222775550Y-86328451D01*
X221896884Y-88449786D02*
G75*
G03*
X222775550Y-86328451I-2121284J2121286D01*
G01*
%TO.N,/25*%
X214016800Y-97884770D02*
X216819741Y-95081829D01*
X237881730Y-96681720D02*
X240709371Y-93854079D01*
X225734480Y-95081830D02*
X227334371Y-96681721D01*
X241588050Y-91732759D02*
X241588050Y-81595400D01*
X214016800Y-98962400D02*
X214016800Y-97884770D01*
X229455691Y-97560400D02*
X235760409Y-97560400D01*
X218941061Y-94203150D02*
X223613159Y-94203150D01*
X235760409Y-97560406D02*
G75*
G03*
X237881730Y-96681720I-9J3000006D01*
G01*
X240709381Y-93854089D02*
G75*
G03*
X241588050Y-91732759I-2121281J2121289D01*
G01*
X225734511Y-95081799D02*
G75*
G03*
X223613159Y-94203150I-2121311J-2121401D01*
G01*
X227334376Y-96681716D02*
G75*
G03*
X229455691Y-97560400I2121324J2121316D01*
G01*
X218941061Y-94203108D02*
G75*
G03*
X216819741Y-95081829I39J-2999992D01*
G01*
%TO.N,/26*%
X319040256Y-114621284D02*
X360475872Y-156056900D01*
X312350550Y-113742604D02*
X316918935Y-113742604D01*
X360475872Y-156056900D02*
X434706800Y-156056900D01*
X227419300Y-113719400D02*
X312350550Y-113719400D01*
X312350550Y-113719400D02*
X312350550Y-113742604D01*
X319040238Y-114621302D02*
G75*
G03*
X316918935Y-113742604I-2121338J-2121298D01*
G01*
%TO.N,/27*%
X201106800Y-186401650D02*
X201106800Y-193914650D01*
X491856800Y-166820400D02*
X479772979Y-154736579D01*
X443090620Y-175204220D02*
X434706800Y-166820400D01*
X491856800Y-166820400D02*
X483472979Y-175204221D01*
X481351659Y-176082900D02*
X445211941Y-176082900D01*
X201106800Y-193914650D02*
X201225550Y-194033400D01*
X201225550Y-194033400D02*
X277926159Y-194033400D01*
X280047480Y-193154720D02*
X286831800Y-186370400D01*
X120144300Y-186370400D02*
X126928621Y-193154721D01*
X129049941Y-194033400D02*
X201225550Y-194033400D01*
X481351659Y-176082871D02*
G75*
G03*
X483472979Y-175204221I41J2999971D01*
G01*
X277926159Y-194033371D02*
G75*
G03*
X280047480Y-193154720I41J2999971D01*
G01*
X126928601Y-193154741D02*
G75*
G03*
X129049941Y-194033400I2121299J2121341D01*
G01*
X479772999Y-154736559D02*
G75*
G03*
X477651659Y-153857900I-2121299J-2121341D01*
G01*
X443090600Y-175204240D02*
G75*
G03*
X445211941Y-176082900I2121300J2121340D01*
G01*
%TO.N,/28*%
X308487693Y-112327007D02*
X310644300Y-110170400D01*
X228819800Y-112582900D02*
X228856800Y-112619900D01*
X228856800Y-112619900D02*
X307780586Y-112619900D01*
X307780586Y-112619890D02*
G75*
G03*
X308487693Y-112327007I14J999990D01*
G01*
%TO.N,/29*%
X388055691Y-162589150D02*
X400657909Y-162589150D01*
X399012441Y-106538650D02*
X413501659Y-106538650D01*
X432349941Y-122901650D02*
X484795409Y-122901650D01*
X486916730Y-123780330D02*
X491856800Y-128720400D01*
X391016730Y-113291720D02*
X396891121Y-107417329D01*
X368031800Y-166820400D02*
X381581800Y-166820400D01*
X382081800Y-110170400D02*
X385203121Y-113291721D01*
X402779230Y-163467830D02*
X406131800Y-166820400D01*
X387324441Y-114170400D02*
X388895409Y-114170400D01*
X415622980Y-107417330D02*
X430228621Y-122022971D01*
X382081800Y-167320400D02*
X385934371Y-163467829D01*
X388055691Y-162589129D02*
G75*
G03*
X385934371Y-163467829I9J-2999971D01*
G01*
X415622990Y-107417320D02*
G75*
G03*
X413501659Y-106538650I-2121290J-2121280D01*
G01*
X402779215Y-163467845D02*
G75*
G03*
X400657909Y-162589150I-2121315J-2121255D01*
G01*
X388895409Y-114170406D02*
G75*
G03*
X391016730Y-113291720I-9J3000006D01*
G01*
X385203101Y-113291741D02*
G75*
G03*
X387324441Y-114170400I2121299J2121341D01*
G01*
X486916736Y-123780324D02*
G75*
G03*
X484795409Y-122901650I-2121336J-2121376D01*
G01*
X430228611Y-122022981D02*
G75*
G03*
X432349941Y-122901650I2121289J2121281D01*
G01*
X399012441Y-106538665D02*
G75*
G03*
X396891122Y-107417330I-41J-2999935D01*
G01*
%TO.N,/30*%
X111531800Y-195132900D02*
X88024441Y-195132900D01*
X329931800Y-166820400D02*
X329931800Y-175365259D01*
X111531800Y-195132900D02*
X107074441Y-195132900D01*
X320169300Y-186370400D02*
X312285479Y-194254221D01*
X104953120Y-194254220D02*
X96569300Y-185870400D01*
X310164159Y-195132900D02*
X111531800Y-195132900D01*
X329053120Y-177486580D02*
X320169300Y-186370400D01*
X77519300Y-185870400D02*
X85903120Y-194254220D01*
X310164159Y-195132871D02*
G75*
G03*
X312285479Y-194254221I41J2999971D01*
G01*
X104953100Y-194254240D02*
G75*
G03*
X107074441Y-195132900I2121300J2121340D01*
G01*
X329053140Y-177486600D02*
G75*
G03*
X329931800Y-175365259I-2121340J2121300D01*
G01*
X85903100Y-194254240D02*
G75*
G03*
X88024441Y-195132900I2121300J2121340D01*
G01*
%TO.N,/6*%
X321016730Y-171235470D02*
X324931800Y-167320400D01*
X217894300Y-172114150D02*
X318895409Y-172114150D01*
X318895409Y-172114141D02*
G75*
G03*
X321016729Y-171235469I-9J3000041D01*
G01*
%TO.N,/5*%
X234444300Y-107145400D02*
X234563050Y-107026650D01*
X196344300Y-107145400D02*
X196463050Y-107026650D01*
X473251159Y-154957400D02*
X395511441Y-154957400D01*
X272544300Y-107145400D02*
X272663050Y-107026650D01*
X182294300Y-107145400D02*
X182175550Y-107026650D01*
X139194300Y-107145400D02*
X139313050Y-107026650D01*
X234444300Y-110170400D02*
X234444300Y-107145400D01*
X220394300Y-107145400D02*
X220275550Y-107026650D01*
X253494300Y-107145400D02*
X253613050Y-107026650D01*
X158363050Y-107026650D02*
X182175550Y-107026650D01*
X139313050Y-107026650D02*
X158363050Y-107026650D01*
X220275550Y-107026650D02*
X234563050Y-107026650D01*
X182175550Y-107026650D02*
X196463050Y-107026650D01*
X393390120Y-154078720D02*
X387081800Y-147770400D01*
X158244300Y-107145400D02*
X158363050Y-107026650D01*
X101094300Y-107145400D02*
X101213050Y-107026650D01*
X291713050Y-107026650D02*
X311757909Y-107026650D01*
X158244300Y-110170400D02*
X158244300Y-107145400D01*
X234563050Y-107026650D02*
X253613050Y-107026650D01*
X101094300Y-110170400D02*
X101094300Y-107145400D01*
X101213050Y-107026650D02*
X120263050Y-107026650D01*
X182294300Y-109670400D02*
X182294300Y-107145400D01*
X253613050Y-107026650D02*
X272663050Y-107026650D01*
X272544300Y-110170400D02*
X272544300Y-107145400D01*
X65613050Y-109670400D02*
X66875550Y-108407900D01*
X220394300Y-109670400D02*
X220394300Y-107145400D01*
X291594300Y-110170400D02*
X291594300Y-107145400D01*
X291594300Y-107145400D02*
X291713050Y-107026650D01*
X82044300Y-107145400D02*
X82163050Y-107026650D01*
X69499441Y-107026650D02*
X82163050Y-107026650D01*
X66875550Y-108407900D02*
X67378121Y-107905329D01*
X120263050Y-107026650D02*
X139313050Y-107026650D01*
X313879230Y-107905330D02*
X315644300Y-109670400D01*
X82044300Y-110170400D02*
X82044300Y-107145400D01*
X196344300Y-110170400D02*
X196344300Y-107145400D01*
X120144300Y-107145400D02*
X120263050Y-107026650D01*
X253494300Y-110170400D02*
X253494300Y-107145400D01*
X196463050Y-107026650D02*
X220275550Y-107026650D01*
X139194300Y-110170400D02*
X139194300Y-107145400D01*
X82163050Y-107026650D02*
X101213050Y-107026650D01*
X272663050Y-107026650D02*
X291713050Y-107026650D01*
X486856800Y-167320400D02*
X475372479Y-155836079D01*
X120144300Y-110170400D02*
X120144300Y-107145400D01*
X313879236Y-107905324D02*
G75*
G03*
X311757909Y-107026650I-2121336J-2121376D01*
G01*
X475372499Y-155836059D02*
G75*
G03*
X473251159Y-154957400I-2121299J-2121341D01*
G01*
X69499441Y-107026665D02*
G75*
G03*
X67378122Y-107905330I-41J-2999935D01*
G01*
X393390100Y-154078740D02*
G75*
G03*
X395511441Y-154957400I2121300J2121340D01*
G01*
%TO.N,/16*%
X202766800Y-101462400D02*
X205461800Y-104157400D01*
%TO.N,/1*%
X191700550Y-124489150D02*
X205988050Y-124489150D01*
X363031800Y-167320400D02*
X357651941Y-167320400D01*
X148719300Y-124607900D02*
X148838050Y-124489150D01*
X191819300Y-128720400D02*
X191819300Y-124607900D01*
X244088050Y-124489150D02*
X263138050Y-124489150D01*
X110619300Y-124607900D02*
X110738050Y-124489150D01*
X263019300Y-124607900D02*
X263138050Y-124489150D01*
X55234103Y-107384416D02*
X55234103Y-117836312D01*
X301119300Y-129220400D02*
X312971871Y-141072971D01*
X129669300Y-124607900D02*
X129788050Y-124489150D01*
X167888050Y-124489150D02*
X191700550Y-124489150D01*
X179778159Y-101958400D02*
X60660119Y-101958400D01*
X225038050Y-124489150D02*
X244088050Y-124489150D01*
X282069300Y-124607900D02*
X282188050Y-124489150D01*
X56112783Y-119957633D02*
X65375550Y-129220400D01*
X355530620Y-166441720D02*
X334369300Y-145280400D01*
X263019300Y-129220400D02*
X263019300Y-124607900D01*
X97543191Y-124489150D02*
X110738050Y-124489150D01*
X263138050Y-124489150D02*
X282188050Y-124489150D01*
X129669300Y-129220400D02*
X129669300Y-124607900D01*
X205869300Y-129220400D02*
X205869300Y-124607900D01*
X110619300Y-129220400D02*
X110619300Y-124607900D01*
X148719300Y-129220400D02*
X148719300Y-124607900D01*
X331485480Y-142830330D02*
X333935550Y-145280400D01*
X282188050Y-124489150D02*
X295145409Y-124489150D01*
X129788050Y-124489150D02*
X148838050Y-124489150D01*
X184016800Y-98962400D02*
X181899479Y-101079721D01*
X91569300Y-129220400D02*
X95421871Y-125367829D01*
X315093191Y-141951650D02*
X329364159Y-141951650D01*
X167769300Y-124607900D02*
X167888050Y-124489150D01*
X205988050Y-124489150D02*
X225038050Y-124489150D01*
X167769300Y-129299200D02*
X167769300Y-124607900D01*
X58538798Y-102837080D02*
X56112782Y-105263096D01*
X224919300Y-124607900D02*
X225038050Y-124489150D01*
X224919300Y-129220400D02*
X224919300Y-124607900D01*
X191819300Y-124607900D02*
X191700550Y-124489150D01*
X110738050Y-124489150D02*
X129788050Y-124489150D01*
X243969300Y-129220400D02*
X243969300Y-124607900D01*
X148838050Y-124489150D02*
X167888050Y-124489150D01*
X297266730Y-125367830D02*
X301119300Y-129220400D01*
X205869300Y-124607900D02*
X205988050Y-124489150D01*
X243969300Y-124607900D02*
X244088050Y-124489150D01*
X282069300Y-129220400D02*
X282069300Y-124607900D01*
X297266715Y-125367845D02*
G75*
G03*
X295145409Y-124489150I-2121315J-2121255D01*
G01*
X331485511Y-142830299D02*
G75*
G03*
X329364159Y-141951650I-2121311J-2121401D01*
G01*
X179778159Y-101958371D02*
G75*
G03*
X181899479Y-101079721I41J2999971D01*
G01*
X97543191Y-124489129D02*
G75*
G03*
X95421871Y-125367829I9J-2999971D01*
G01*
X56112775Y-105263089D02*
G75*
G03*
X55234103Y-107384416I2121325J-2121311D01*
G01*
X60660119Y-101958414D02*
G75*
G03*
X58538799Y-102837081I-19J-2999986D01*
G01*
X55234094Y-117836312D02*
G75*
G03*
X56112783Y-119957633I3000006J12D01*
G01*
X312971886Y-141072956D02*
G75*
G03*
X315093191Y-141951650I2121314J2121256D01*
G01*
X355530600Y-166441740D02*
G75*
G03*
X357651941Y-167320400I2121300J2121340D01*
G01*
%TO.N,/2*%
X172650550Y-143539150D02*
X196463050Y-143539150D01*
X210631800Y-148270400D02*
X210631800Y-143657900D01*
X134431800Y-143657900D02*
X134550550Y-143539150D01*
X153600550Y-143539150D02*
X172650550Y-143539150D01*
X210631800Y-143657900D02*
X210750550Y-143539150D01*
X268035800Y-143674400D02*
X267900550Y-143539150D01*
X83255691Y-143539150D02*
X96450550Y-143539150D01*
X153481800Y-143657900D02*
X153600550Y-143539150D01*
X301373300Y-143539150D02*
X306135800Y-148301650D01*
X267900550Y-143539150D02*
X286950550Y-143539150D01*
X248850550Y-143539150D02*
X267900550Y-143539150D01*
X134431800Y-148270400D02*
X134431800Y-143657900D01*
X77281800Y-148270400D02*
X81134371Y-144417829D01*
X210750550Y-143539150D02*
X229800550Y-143539150D01*
X229681800Y-143657900D02*
X229800550Y-143539150D01*
X344734370Y-171954220D02*
X334660479Y-161880329D01*
X153481800Y-148270400D02*
X153481800Y-143657900D01*
X287085800Y-143674400D02*
X286950550Y-143539150D01*
X229681800Y-148270400D02*
X229681800Y-143657900D01*
X363031800Y-110170400D02*
X367252621Y-114391221D01*
X196463050Y-143539150D02*
X210750550Y-143539150D01*
X172531800Y-148270400D02*
X172531800Y-143657900D01*
X268035800Y-148270400D02*
X268035800Y-143674400D01*
X196581800Y-147770400D02*
X196581800Y-143657900D01*
X396910980Y-114391220D02*
X401131800Y-110170400D01*
X229800550Y-143539150D02*
X248850550Y-143539150D01*
X115500550Y-143539150D02*
X134550550Y-143539150D01*
X248731800Y-148270400D02*
X248731800Y-143657900D01*
X115381800Y-143657900D02*
X115500550Y-143539150D01*
X286950550Y-143539150D02*
X301373300Y-143539150D01*
X96450550Y-143539150D02*
X115500550Y-143539150D01*
X332539159Y-161001650D02*
X320078441Y-161001650D01*
X196581800Y-143657900D02*
X196463050Y-143539150D01*
X287085800Y-148270400D02*
X287085800Y-143674400D01*
X115381800Y-148270400D02*
X115381800Y-143657900D01*
X401131800Y-167320400D02*
X396497979Y-171954221D01*
X172531800Y-143657900D02*
X172650550Y-143539150D01*
X394376659Y-172832900D02*
X346855691Y-172832900D01*
X96331800Y-148270400D02*
X96331800Y-143657900D01*
X248731800Y-143657900D02*
X248850550Y-143539150D01*
X369373941Y-115269900D02*
X394789659Y-115269900D01*
X317957120Y-160122970D02*
X306135800Y-148301650D01*
X96331800Y-143657900D02*
X96450550Y-143539150D01*
X134550550Y-143539150D02*
X153600550Y-143539150D01*
X367252601Y-114391241D02*
G75*
G03*
X369373941Y-115269900I2121299J2121341D01*
G01*
X83255691Y-143539129D02*
G75*
G03*
X81134371Y-144417829I9J-2999971D01*
G01*
X394789659Y-115269871D02*
G75*
G03*
X396910980Y-114391220I41J2999971D01*
G01*
X394376659Y-172832871D02*
G75*
G03*
X396497979Y-171954221I41J2999971D01*
G01*
X317957110Y-160122980D02*
G75*
G03*
X320078441Y-161001650I2121290J2121280D01*
G01*
X334660489Y-161880319D02*
G75*
G03*
X332539159Y-161001650I-2121289J-2121281D01*
G01*
X344734375Y-171954215D02*
G75*
G03*
X346855691Y-172832900I2121325J2121315D01*
G01*
%TO.N,/11*%
X192713159Y-96401400D02*
X186144300Y-96401400D01*
X178355357Y-99759400D02*
X61304191Y-99759400D01*
X54134603Y-106928988D02*
X54134603Y-142930562D01*
X185350550Y-96401400D02*
X192713159Y-96401400D01*
X55013283Y-145051883D02*
X58231800Y-148270400D01*
X182077318Y-97280080D02*
X180476678Y-98880720D01*
X59182870Y-100638080D02*
X55013282Y-104807668D01*
X186144300Y-96401400D02*
X185350550Y-96401400D01*
X194834480Y-97280080D02*
X196516800Y-98962400D01*
X186144300Y-96401400D02*
X184198639Y-96401400D01*
X55013289Y-104807675D02*
G75*
G03*
X54134603Y-106928988I2121311J-2121325D01*
G01*
X184198639Y-96401428D02*
G75*
G03*
X182077318Y-97280080I-39J-2999972D01*
G01*
X194834500Y-97280060D02*
G75*
G03*
X192713159Y-96401400I-2121300J-2121340D01*
G01*
X178355357Y-99759369D02*
G75*
G03*
X180476677Y-98880719I43J2999969D01*
G01*
X61304191Y-99759394D02*
G75*
G03*
X59182870Y-100638080I9J-3000006D01*
G01*
X54134629Y-142930562D02*
G75*
G03*
X55013283Y-145051883I2999971J-38D01*
G01*
%TO.N,/3*%
X186516800Y-98962400D02*
X185435117Y-97880717D01*
X239210800Y-162703900D02*
X239325550Y-162589150D01*
X220156800Y-162707900D02*
X220275550Y-162589150D01*
X144075550Y-162589150D02*
X163125550Y-162589150D01*
X220156800Y-167320400D02*
X220156800Y-162707900D01*
X178810785Y-100858900D02*
X94069300Y-100858900D01*
X206106800Y-185901650D02*
X206106800Y-166820400D01*
X277306800Y-167320400D02*
X277306800Y-162707900D01*
X205988050Y-162589150D02*
X220275550Y-162589150D01*
X183154279Y-97758047D02*
X180932105Y-99980221D01*
X124906800Y-162707900D02*
X125025550Y-162589150D01*
X277306800Y-162707900D02*
X277425550Y-162589150D01*
X239325550Y-162589150D02*
X258375550Y-162589150D01*
X258250800Y-167342400D02*
X258250800Y-162713900D01*
X111830691Y-162589150D02*
X125025550Y-162589150D01*
X239210800Y-167322400D02*
X239210800Y-162703900D01*
X105856800Y-167320400D02*
X124406800Y-185870400D01*
X183812659Y-97500900D02*
X184518115Y-97500890D01*
X258250800Y-162713900D02*
X258375550Y-162589150D01*
X163006800Y-167320400D02*
X163006800Y-162707900D01*
X143956800Y-162707900D02*
X144075550Y-162589150D01*
X124906800Y-167320400D02*
X124906800Y-162707900D01*
X258375550Y-162589150D02*
X277425550Y-162589150D01*
X125025550Y-162589150D02*
X144075550Y-162589150D01*
X163125550Y-162589150D02*
X182175550Y-162589150D01*
X220275550Y-162589150D02*
X239325550Y-162589150D01*
X277425550Y-162589150D02*
X290382909Y-162589150D01*
X163006800Y-162707900D02*
X163125550Y-162589150D01*
X182056800Y-167320400D02*
X182056800Y-162707900D01*
X183812659Y-97500900D02*
X183775160Y-97500900D01*
X206106800Y-166820400D02*
X206106800Y-162707900D01*
X182056800Y-162707900D02*
X182175550Y-162589150D01*
X206106800Y-162707900D02*
X205988050Y-162589150D01*
X292504230Y-163467830D02*
X296356800Y-167320400D01*
X143956800Y-167320400D02*
X143956800Y-162707900D01*
X182175550Y-162589150D02*
X205988050Y-162589150D01*
X105856800Y-167320400D02*
X109709371Y-163467829D01*
X183775160Y-97500904D02*
G75*
G03*
X183154279Y-97758047I-60J-877996D01*
G01*
X185435100Y-97880734D02*
G75*
G03*
X184518115Y-97500890I-917000J-916966D01*
G01*
X292504215Y-163467845D02*
G75*
G03*
X290382909Y-162589150I-2121315J-2121255D01*
G01*
X178810785Y-100858889D02*
G75*
G03*
X180932105Y-99980221I15J2999989D01*
G01*
X111830691Y-162589129D02*
G75*
G03*
X109709371Y-163467829I9J-2999971D01*
G01*
%TO.N,/12*%
X208246282Y-159291132D02*
X208135425Y-159180275D01*
X141596979Y-159511471D02*
X141091773Y-160016679D01*
X83070871Y-161268829D02*
X77519300Y-166820400D01*
X141638346Y-159470104D02*
X141596979Y-159511471D01*
X140190135Y-160390150D02*
X85192191Y-160390150D01*
X208135425Y-159180275D02*
X142338023Y-159180275D01*
X140190135Y-160390162D02*
G75*
G03*
X141091773Y-160016679I-35J1275162D01*
G01*
X142338023Y-159180281D02*
G75*
G03*
X141638346Y-159470104I-23J-989419D01*
G01*
X85192191Y-160390129D02*
G75*
G03*
X83070871Y-161268829I9J-2999971D01*
G01*
%TO.N,/4*%
X440449441Y-190370400D02*
X467925550Y-190370400D01*
X448756800Y-167320400D02*
X451878121Y-170441721D01*
X483735480Y-189491720D02*
X486856800Y-186370400D01*
X467925550Y-190370400D02*
X481614159Y-190370400D01*
X309992504Y-114842104D02*
X316463507Y-114842104D01*
X467806800Y-190251650D02*
X467925550Y-190370400D01*
X434706800Y-185870400D02*
X438328121Y-189491721D01*
X470134370Y-131547970D02*
X467806800Y-129220400D01*
X464685480Y-170441720D02*
X467806800Y-167320400D01*
X360020444Y-157156400D02*
X404750159Y-157156400D01*
X187083300Y-114818900D02*
X309969300Y-114818900D01*
X467806800Y-186370400D02*
X467806800Y-190251650D01*
X486856800Y-129220400D02*
X484529229Y-131547971D01*
X406871480Y-158035080D02*
X434706800Y-185870400D01*
X309969300Y-114818900D02*
X309992504Y-114842104D01*
X318584828Y-115720784D02*
X360020444Y-157156400D01*
X453999441Y-171320400D02*
X462564159Y-171320400D01*
X482407909Y-132426650D02*
X472255691Y-132426650D01*
X187083300Y-114818900D02*
X186921764Y-114980436D01*
X406871500Y-158035060D02*
G75*
G03*
X404750159Y-157156400I-2121300J-2121340D01*
G01*
X438328101Y-189491741D02*
G75*
G03*
X440449441Y-190370400I2121299J2121341D01*
G01*
X482407909Y-132426671D02*
G75*
G03*
X484529229Y-131547971I-9J2999971D01*
G01*
X318584824Y-115720788D02*
G75*
G03*
X316463507Y-114842104I-2121324J-2121312D01*
G01*
X470134385Y-131547955D02*
G75*
G03*
X472255691Y-132426650I2121315J2121255D01*
G01*
X462564159Y-171320371D02*
G75*
G03*
X464685480Y-170441720I41J2999971D01*
G01*
X481614159Y-190370371D02*
G75*
G03*
X483735480Y-189491720I41J2999971D01*
G01*
X451878101Y-170441741D02*
G75*
G03*
X453999441Y-171320400I2121299J2121341D01*
G01*
%TO.N,/13*%
X199016800Y-98962400D02*
X196234979Y-96180579D01*
X58727442Y-99538580D02*
X53913782Y-104352240D01*
X60848763Y-98659900D02*
X177899929Y-98659900D01*
X194113659Y-95301900D02*
X183743211Y-95301900D01*
X53035103Y-106473560D02*
X53035103Y-165643562D01*
X180021250Y-97781220D02*
X181621890Y-96180580D01*
X53913783Y-167764883D02*
X72519300Y-186370400D01*
X60848763Y-98659874D02*
G75*
G03*
X58727442Y-99538580I37J-3000026D01*
G01*
X53035129Y-165643562D02*
G75*
G03*
X53913783Y-167764883I2999971J-38D01*
G01*
X183743211Y-95301908D02*
G75*
G03*
X181621890Y-96180580I-11J-2999992D01*
G01*
X177899929Y-98659920D02*
G75*
G03*
X180021249Y-97781219I-29J3000020D01*
G01*
X53913803Y-104352261D02*
G75*
G03*
X53035103Y-106473560I2121297J-2121339D01*
G01*
X196234999Y-96180559D02*
G75*
G03*
X194113659Y-95301900I-2121299J-2121341D01*
G01*
%TO.N,/14*%
X85221870Y-185491720D02*
X68754229Y-169024079D01*
X61115547Y-103057900D02*
X197428659Y-103057900D01*
X73346870Y-124404220D02*
X73119854Y-124177204D01*
X57212283Y-105718523D02*
X58994227Y-103936579D01*
X56333603Y-111340259D02*
X56333603Y-107839844D01*
X67875550Y-166902759D02*
X67875550Y-150944791D01*
X66170548Y-122419845D02*
X57212282Y-113461579D01*
X68754230Y-148823470D02*
X73346871Y-144230829D01*
X74225550Y-142109509D02*
X74225550Y-126525541D01*
X199549980Y-102179220D02*
X200266800Y-101462400D01*
X91569300Y-186370400D02*
X87343191Y-186370400D01*
X70998534Y-123298525D02*
X68291869Y-123298525D01*
X68754224Y-148823464D02*
G75*
G03*
X67875550Y-150944791I2121376J-2121336D01*
G01*
X66170558Y-122419835D02*
G75*
G03*
X68291869Y-123298525I2121342J2121335D01*
G01*
X73119832Y-124177226D02*
G75*
G03*
X70998534Y-123298525I-2121332J-2121274D01*
G01*
X57212262Y-105718502D02*
G75*
G03*
X56333603Y-107839844I2121338J-2121298D01*
G01*
X85221875Y-185491715D02*
G75*
G03*
X87343191Y-186370400I2121325J2121315D01*
G01*
X67875565Y-166902759D02*
G75*
G03*
X68754230Y-169024078I2999935J-41D01*
G01*
X74225506Y-126525541D02*
G75*
G03*
X73346870Y-124404220I-3000006J41D01*
G01*
X61115547Y-103057934D02*
G75*
G03*
X58994228Y-103936580I-47J-2999966D01*
G01*
X73346856Y-144230814D02*
G75*
G03*
X74225550Y-142109509I-2121256J2121314D01*
G01*
X56333631Y-111340259D02*
G75*
G03*
X57212282Y-113461579I2999969J-41D01*
G01*
%TO.N,/24*%
X491856800Y-185870400D02*
X495621871Y-182105329D01*
X495621870Y-108529220D02*
X493410479Y-106317829D01*
X491289159Y-105439150D02*
X478280691Y-105439150D01*
X496500550Y-179984009D02*
X496500550Y-110650541D01*
X254489175Y-158080775D02*
X254610480Y-158202080D01*
X476159370Y-106317830D02*
X472806800Y-109670400D01*
X146059925Y-158080775D02*
X219481800Y-158080775D01*
X219481800Y-158080775D02*
X254489175Y-158080775D01*
X478280691Y-105439159D02*
G75*
G03*
X476159371Y-106317831I9J-3000041D01*
G01*
X493410489Y-106317819D02*
G75*
G03*
X491289159Y-105439150I-2121289J-2121281D01*
G01*
X496500535Y-110650541D02*
G75*
G03*
X495621869Y-108529221I-2999935J41D01*
G01*
X495621856Y-182105314D02*
G75*
G03*
X496500550Y-179984009I-2121256J2121314D01*
G01*
%TD*%
M02*
