%TF.GenerationSoftware,KiCad,Pcbnew,7.99.0-999-ge1db4e0694*%
%TF.CreationDate,2023-12-05T13:45:31-05:00*%
%TF.ProjectId,A1200KB,41313230-304b-4422-9e6b-696361645f70,rev?*%
%TF.SameCoordinates,Original*%
%TF.FileFunction,Legend,Bot*%
%TF.FilePolarity,Positive*%
%FSLAX46Y46*%
G04 Gerber Fmt 4.6, Leading zero omitted, Abs format (unit mm)*
G04 Created by KiCad (PCBNEW 7.99.0-999-ge1db4e0694) date 2023-12-05 13:45:31*
%MOMM*%
%LPD*%
G01*
G04 APERTURE LIST*
%ADD10C,0.150000*%
%ADD11C,3.602000*%
%ADD12C,3.302000*%
%ADD13O,6.102000X3.602000*%
%ADD14C,1.626000*%
G04 APERTURE END LIST*
D10*
%TO.C,J1*%
X204350133Y-103175019D02*
X204350133Y-103889304D01*
X204350133Y-103889304D02*
X204397752Y-104032161D01*
X204397752Y-104032161D02*
X204492990Y-104127400D01*
X204492990Y-104127400D02*
X204635847Y-104175019D01*
X204635847Y-104175019D02*
X204731085Y-104175019D01*
X203350133Y-104175019D02*
X203921561Y-104175019D01*
X203635847Y-104175019D02*
X203635847Y-103175019D01*
X203635847Y-103175019D02*
X203731085Y-103317876D01*
X203731085Y-103317876D02*
X203826323Y-103413114D01*
X203826323Y-103413114D02*
X203921561Y-103460733D01*
X181516800Y-100212400D02*
X181516800Y-92462400D01*
X181516800Y-100212400D02*
X183516800Y-100212400D01*
X223266800Y-100212400D02*
X225266800Y-100212400D01*
X225266800Y-92462400D02*
X181516800Y-92462400D01*
X225266800Y-100212400D02*
X225266800Y-92462400D01*
%TD*%
%LPC*%
D11*
%TO.C,K1*%
X63358800Y-81111600D03*
X58358800Y-81611600D03*
%TD*%
%TO.C,K2*%
X89188050Y-81595400D03*
X94188050Y-81095400D03*
%TD*%
%TO.C,K3*%
X113000550Y-81583600D03*
X118000550Y-81083600D03*
%TD*%
%TO.C,K4*%
X136813050Y-81595400D03*
X141813050Y-81095400D03*
%TD*%
%TO.C,K5*%
X160625550Y-81595400D03*
X165625550Y-81095400D03*
%TD*%
%TO.C,K6*%
X184438050Y-81583600D03*
X189438050Y-81083600D03*
%TD*%
%TO.C,K7*%
X217775550Y-81595400D03*
X222775550Y-81095400D03*
%TD*%
%TO.C,K8*%
X241588050Y-81595400D03*
X246588050Y-81095400D03*
%TD*%
%TO.C,K9*%
X265400550Y-81595400D03*
X270400550Y-81095400D03*
%TD*%
%TO.C,K10*%
X289213050Y-81595400D03*
X294213050Y-81095400D03*
%TD*%
%TO.C,K11*%
X313025550Y-81595400D03*
X318025550Y-81095400D03*
%TD*%
%TO.C,K27*%
X368031800Y-109670400D03*
X363031800Y-110170400D03*
%TD*%
%TO.C,K29*%
X434706800Y-109670400D03*
X429706800Y-110170400D03*
%TD*%
%TO.C,K30*%
X453756800Y-109670400D03*
X448756800Y-110170400D03*
%TD*%
%TO.C,K31*%
X472806800Y-109670400D03*
X467806800Y-110170400D03*
%TD*%
%TO.C,K32*%
X491856800Y-109670400D03*
X486856800Y-110170400D03*
%TD*%
%TO.C,K47*%
X434706800Y-128720400D03*
X429706800Y-129220400D03*
%TD*%
%TO.C,K48*%
X453756800Y-128720400D03*
X448756800Y-129220400D03*
%TD*%
%TO.C,K49*%
X472806800Y-128720400D03*
X467806800Y-129220400D03*
%TD*%
%TO.C,K50*%
X491856800Y-128720400D03*
X486856800Y-129220400D03*
%TD*%
%TO.C,K65*%
X387081800Y-147770400D03*
X382081800Y-148270400D03*
%TD*%
%TO.C,K66*%
X434706800Y-147770400D03*
X429706800Y-148270400D03*
%TD*%
%TO.C,K67*%
X453756800Y-147770400D03*
X448756800Y-148270400D03*
%TD*%
%TO.C,K68*%
X472806800Y-147770400D03*
X467806800Y-148270400D03*
%TD*%
%TO.C,K69*%
X491856800Y-147770400D03*
X486856800Y-148270400D03*
%TD*%
%TO.C,K83*%
X368031800Y-166820400D03*
X363031800Y-167320400D03*
%TD*%
%TO.C,K84*%
X387081800Y-166820400D03*
X382081800Y-167320400D03*
%TD*%
%TO.C,K85*%
X406131800Y-166820400D03*
X401131800Y-167320400D03*
%TD*%
%TO.C,K86*%
X434706800Y-166820400D03*
X429706800Y-167320400D03*
%TD*%
%TO.C,K87*%
X453756800Y-166820400D03*
X448756800Y-167320400D03*
%TD*%
%TO.C,K88*%
X472806800Y-166820400D03*
X467806800Y-167320400D03*
%TD*%
%TO.C,K89*%
X491856800Y-185870400D03*
X486856800Y-186370400D03*
%TD*%
%TO.C,K95*%
X434706800Y-185870400D03*
X429706800Y-186370400D03*
%TD*%
%TO.C,K96*%
X472806800Y-185870400D03*
X467806800Y-186370400D03*
%TD*%
%TO.C,K28*%
X382081800Y-110170400D03*
X387081800Y-109670400D03*
%TD*%
D12*
%TO.C,REF\u002A\u002A*%
X57000000Y-97000000D03*
%TD*%
%TO.C,REF\u002A\u002A*%
X57000000Y-193000000D03*
%TD*%
%TO.C,REF\u002A\u002A*%
X493000000Y-162000000D03*
%TD*%
D11*
%TO.C,K33*%
X65375550Y-129220400D03*
X70375550Y-128720400D03*
%TD*%
%TO.C,K92*%
X120144300Y-186370400D03*
X125144300Y-185870400D03*
%TD*%
%TO.C,K16*%
X144194300Y-109670400D03*
X139194300Y-110170400D03*
%TD*%
%TO.C,K13*%
X87044300Y-109670400D03*
X82044300Y-110170400D03*
%TD*%
%TO.C,K21*%
X239444300Y-109670400D03*
X234444300Y-110170400D03*
%TD*%
%TO.C,K19*%
X201344300Y-109670400D03*
X196344300Y-110170400D03*
%TD*%
%TO.C,K14*%
X106094300Y-109670400D03*
X101094300Y-110170400D03*
%TD*%
%TO.C,K23*%
X277544300Y-109670400D03*
X272544300Y-110170400D03*
%TD*%
%TO.C,K17*%
X163244300Y-109670400D03*
X158244300Y-110170400D03*
%TD*%
%TO.C,K20*%
X220394300Y-109670400D03*
X215394300Y-110170400D03*
%TD*%
%TO.C,K18*%
X182294300Y-109670400D03*
X177294300Y-110170400D03*
%TD*%
%TO.C,K15*%
X125144300Y-109670400D03*
X120144300Y-110170400D03*
%TD*%
D13*
%TO.C,K46*%
X334369300Y-145280400D03*
X333869300Y-140280400D03*
%TD*%
D11*
%TO.C,K60*%
X234681800Y-147770400D03*
X229681800Y-148270400D03*
%TD*%
%TO.C,K22*%
X258494300Y-109670400D03*
X253494300Y-110170400D03*
%TD*%
%TO.C,K53*%
X101331800Y-147770400D03*
X96331800Y-148270400D03*
%TD*%
%TO.C,K54*%
X120381800Y-147770400D03*
X115381800Y-148270400D03*
%TD*%
%TO.C,K64*%
X311135800Y-147801650D03*
X306135800Y-148301650D03*
%TD*%
%TO.C,K58*%
X196581800Y-147770400D03*
X191581800Y-148270400D03*
%TD*%
%TO.C,K59*%
X215631800Y-147770400D03*
X210631800Y-148270400D03*
%TD*%
%TO.C,K45*%
X306119300Y-128720400D03*
X301119300Y-129220400D03*
%TD*%
%TO.C,K63*%
X292085800Y-147770400D03*
X287085800Y-148270400D03*
%TD*%
%TO.C,K62*%
X273035800Y-147770400D03*
X268035800Y-148270400D03*
%TD*%
%TO.C,K55*%
X139431800Y-147770400D03*
X134431800Y-148270400D03*
%TD*%
%TO.C,K61*%
X253731800Y-147770400D03*
X248731800Y-148270400D03*
%TD*%
%TO.C,K57*%
X177531800Y-147770400D03*
X172531800Y-148270400D03*
%TD*%
%TO.C,K56*%
X158481800Y-147770400D03*
X153481800Y-148270400D03*
%TD*%
%TO.C,K34*%
X96569300Y-128720400D03*
X91569300Y-129220400D03*
%TD*%
%TO.C,K40*%
X210869300Y-128720400D03*
X205869300Y-129220400D03*
%TD*%
%TO.C,K39*%
X191819300Y-128720400D03*
X186819300Y-129220400D03*
%TD*%
%TO.C,K42*%
X248969300Y-128720400D03*
X243969300Y-129220400D03*
%TD*%
%TO.C,K26*%
X332075550Y-110170400D03*
X337075550Y-109670400D03*
%TD*%
%TO.C,K36*%
X134669300Y-128720400D03*
X129669300Y-129220400D03*
%TD*%
%TO.C,K25*%
X315644300Y-109670400D03*
X310644300Y-110170400D03*
%TD*%
%TO.C,K44*%
X287069300Y-128720400D03*
X282069300Y-129220400D03*
%TD*%
%TO.C,K41*%
X229919300Y-128720400D03*
X224919300Y-129220400D03*
%TD*%
%TO.C,K35*%
X115619300Y-128720400D03*
X110619300Y-129220400D03*
%TD*%
%TO.C,K38*%
X172769300Y-128799200D03*
X167769300Y-129299200D03*
%TD*%
%TO.C,K24*%
X296594300Y-109670400D03*
X291594300Y-110170400D03*
%TD*%
%TO.C,K37*%
X153719300Y-128720400D03*
X148719300Y-129220400D03*
%TD*%
%TO.C,K43*%
X268019300Y-128720400D03*
X263019300Y-129220400D03*
%TD*%
%TO.C,K94*%
X325169300Y-185870400D03*
X320169300Y-186370400D03*
%TD*%
%TO.C,K91*%
X96569300Y-185870400D03*
X91569300Y-186370400D03*
%TD*%
%TO.C,K70*%
X72519300Y-167320400D03*
X77519300Y-166820400D03*
%TD*%
%TO.C,K52*%
X82281800Y-147770400D03*
X77281800Y-148270400D03*
%TD*%
%TO.C,K12*%
X60613050Y-110170400D03*
X65613050Y-109670400D03*
%TD*%
%TO.C,K90*%
X77519300Y-185870400D03*
X72519300Y-186370400D03*
%TD*%
%TO.C,K82*%
X324931800Y-167320400D03*
X329931800Y-166820400D03*
%TD*%
%TO.C,K51*%
X63231800Y-147770400D03*
X58231800Y-148270400D03*
%TD*%
%TO.C,K72*%
X110856800Y-166820400D03*
X105856800Y-167320400D03*
%TD*%
%TO.C,K73*%
X129906800Y-166820400D03*
X124906800Y-167320400D03*
%TD*%
%TO.C,K78*%
X225156800Y-166820400D03*
X220156800Y-167320400D03*
%TD*%
%TO.C,K80*%
X263250800Y-166842400D03*
X258250800Y-167342400D03*
%TD*%
%TO.C,K76*%
X187056800Y-166820400D03*
X182056800Y-167320400D03*
%TD*%
%TO.C,K71*%
X301356800Y-166820400D03*
X296356800Y-167320400D03*
%TD*%
%TO.C,K81*%
X282306800Y-166820400D03*
X277306800Y-167320400D03*
%TD*%
%TO.C,K79*%
X244210800Y-166822400D03*
X239210800Y-167322400D03*
%TD*%
%TO.C,K74*%
X148956800Y-166820400D03*
X143956800Y-167320400D03*
%TD*%
%TO.C,K75*%
X168006800Y-166820400D03*
X163006800Y-167320400D03*
%TD*%
%TO.C,K77*%
X206106800Y-166820400D03*
X201106800Y-167320400D03*
%TD*%
%TO.C,K101*%
X334369300Y-145280400D03*
X333869300Y-140280400D03*
%TD*%
%TO.C,K100*%
X453756800Y-185870400D03*
X448756800Y-186370400D03*
%TD*%
%TO.C,K98*%
X286831800Y-186370400D03*
X291831800Y-185870400D03*
%TD*%
%TO.C,K97*%
X201106800Y-186401650D03*
X206106800Y-185901650D03*
%TD*%
%TO.C,K93*%
X406131800Y-109670400D03*
X401131800Y-110170400D03*
%TD*%
%TO.C,K99*%
X491856800Y-166820400D03*
X486856800Y-167320400D03*
%TD*%
D14*
%TO.C,J1*%
X184016800Y-98962400D03*
X185266800Y-101462400D03*
X186516800Y-98962400D03*
X187766800Y-101462400D03*
X189016800Y-98962400D03*
X190266800Y-101462400D03*
X191516800Y-98962400D03*
X192766800Y-101462400D03*
X194016800Y-98962400D03*
X195266800Y-101462400D03*
X196516800Y-98962400D03*
X197766800Y-101462400D03*
X199016800Y-98962400D03*
X200266800Y-101462400D03*
X201516800Y-98962400D03*
X202766800Y-101462400D03*
X204016800Y-98962400D03*
X205266800Y-101462400D03*
X206516800Y-98962400D03*
X207766800Y-101462400D03*
X209016800Y-98962400D03*
X210266800Y-101462400D03*
X211516800Y-98962400D03*
X212766800Y-101462400D03*
X214016800Y-98962400D03*
X215266800Y-101462400D03*
X216516800Y-98962400D03*
X217766800Y-101462400D03*
X219016800Y-98962400D03*
X220266800Y-101462400D03*
X221516800Y-98962400D03*
X222766800Y-101462400D03*
%TD*%
%LPD*%
M02*
